{"glyphs":{"0":{"ha":842,"x_min":0,"x_max":0,"o":"m 421 986 b 42 489 210 986 42 781 b 421 -8 42 215 224 -8 b 800 489 629 -8 800 194 b 421 986 800 764 618 986 z m 522 25 b 167 376 354 -40 221 131 b 318 953 113 621 146 886 b 675 603 489 1018 621 847 b 522 25 729 357 696 92 z "},"1":{"ha":300,"x_min":0,"x_max":0,"o":"m 213 92 l 213 972 l 0 851 l 4 843 b 107 790 89 882 107 881 l 107 92 b 75 10 107 43 97 22 b 75 0 75 7 75 0 l 244 0 b 244 10 244 0 244 7 b 213 92 224 22 213 43 z "},"2":{"ha":726,"x_min":0,"x_max":0,"o":"m 674 164 b 563 103 654 118 621 103 l 172 103 b 650 786 488 356 701 543 b 358 986 624 908 507 996 b 60 840 257 979 143 913 l 117 681 l 126 681 b 364 972 154 868 267 974 b 538 758 482 969 531 872 b 42 10 554 478 264 179 l 42 0 l 663 0 l 685 164 b 674 164 685 164 678 164 z "},"3":{"ha":774,"x_min":0,"x_max":0,"o":"m 356 539 b 651 800 465 578 651 625 b 411 986 651 915 560 986 b 86 849 293 986 165 926 l 143 704 l 153 704 b 404 972 179 892 289 972 b 546 807 489 972 542 914 b 288 519 551 681 454 579 b 292 510 288 519 289 515 b 619 242 517 592 639 442 b 375 7 608 121 542 1 b 108 304 258 10 135 118 l 97 304 l 42 131 b 382 -8 121 53 250 -8 b 728 249 582 -8 710 128 b 356 539 763 467 565 596 z "},"4":{"ha":826,"x_min":0,"x_max":0,"o":"m 785 219 l 785 229 l 640 229 l 640 972 l 535 972 l 535 850 l 56 229 l 56 219 l 535 219 l 535 92 b 503 10 535 43 524 22 b 503 0 503 7 503 0 l 672 0 b 672 10 672 0 672 7 b 640 92 650 22 640 43 l 640 219 z m 69 229 l 535 835 l 535 229 z "},"5":{"ha":788,"x_min":0,"x_max":0,"o":"m 179 553 l 233 868 l 686 868 l 708 1033 b 699 1033 708 1033 701 1033 b 588 972 679 986 644 972 l 240 972 l 168 550 b 172 540 168 550 169 546 b 621 279 457 657 633 515 b 361 7 614 150 542 0 b 108 304 244 11 135 118 l 99 304 l 42 131 b 368 -8 121 53 236 -8 b 729 286 583 -8 713 135 b 179 553 757 549 449 690 z "},"6":{"ha":783,"x_min":0,"x_max":0,"o":"m 138 451 b 592 975 147 756 399 892 l 588 985 b 76 192 243 843 -61 560 b 390 -8 129 46 279 -8 b 738 249 590 -8 717 128 b 138 451 778 488 478 694 z m 643 242 b 383 7 636 115 550 -7 b 138 443 211 21 138 238 b 643 242 478 644 657 449 z "},"7":{"ha":714,"x_min":0,"x_max":0,"o":"m 50 986 l 28 822 b 38 822 28 822 35 822 b 150 883 57 868 92 883 l 550 883 b 228 0 326 700 106 386 l 392 0 b 700 976 92 504 496 857 l 700 986 z "},"8":{"ha":778,"x_min":0,"x_max":0,"o":"m 442 546 b 665 776 525 578 665 647 b 413 986 665 908 549 986 b 126 760 254 986 129 883 b 293 521 124 646 199 576 b 42 231 178 469 42 378 b 392 -8 42 76 196 -8 b 736 256 586 -8 736 107 b 442 546 736 406 583 475 z m 203 806 b 396 972 210 924 319 972 b 578 792 467 972 574 921 b 431 551 583 672 524 593 b 203 806 308 614 196 681 z m 406 7 b 131 279 274 7 131 74 b 300 517 131 394 201 472 b 658 189 460 424 669 365 b 406 7 649 29 458 7 z "},"9":{"ha":782,"x_min":0,"x_max":0,"o":"m 644 525 b 190 1 635 221 383 85 l 194 -8 b 707 785 540 133 843 417 b 392 986 653 929 504 986 b 46 728 192 986 65 847 b 644 525 4 488 304 282 z m 139 735 b 399 969 147 861 232 983 b 646 532 571 956 646 739 b 139 735 306 332 125 528 z "},"B":{"ha":889,"x_min":0,"x_max":0,"o":"m 507 518 b 788 740 651 536 788 592 b 378 972 788 936 557 972 l 56 972 b 56 961 56 972 56 964 b 86 879 76 949 86 928 l 86 92 b 56 10 86 43 76 22 b 56 0 56 7 56 0 l 438 0 b 847 261 617 0 847 65 b 507 518 847 431 671 503 z m 196 961 l 378 961 b 678 740 606 961 678 864 b 378 522 678 618 606 522 l 196 522 z m 438 10 l 196 10 l 196 511 l 438 511 b 739 261 665 511 739 383 b 438 10 739 138 665 10 z "},"C":{"ha":1049,"x_min":0,"x_max":0,"o":"m 997 279 b 694 40 926 140 819 58 b 175 375 450 3 250 131 b 424 953 100 621 186 901 b 872 711 606 992 771 872 l 882 711 l 924 869 b 565 986 806 947 715 986 b 42 489 290 986 42 764 b 553 -8 42 214 279 -8 b 1007 275 799 -8 932 119 z "},"D":{"ha":1001,"x_min":0,"x_max":0,"o":"m 403 972 l 56 972 b 56 961 56 972 56 964 b 86 879 76 949 86 928 l 86 92 b 56 10 86 43 76 22 b 56 0 56 7 56 0 l 403 0 b 960 486 725 0 960 211 b 403 972 960 760 725 972 z m 403 10 l 196 10 l 196 961 l 403 961 b 850 486 681 961 850 742 b 403 10 850 229 681 10 z "},"E":{"ha":692,"x_min":0,"x_max":0,"o":"m 642 174 b 308 10 576 89 461 10 l 196 10 l 196 540 l 546 511 l 546 582 l 196 551 l 196 961 l 293 961 b 597 813 447 961 533 885 l 604 818 l 575 972 l 56 972 b 56 961 56 972 56 964 b 86 879 76 949 86 928 l 86 92 b 56 10 86 43 76 22 b 56 0 56 7 56 0 l 619 0 l 650 168 z "},"F":{"ha":651,"x_min":0,"x_max":0,"o":"m 579 972 l 56 972 b 56 961 56 972 56 964 b 86 879 76 949 86 928 l 86 92 b 56 10 86 43 76 22 b 56 0 56 7 56 0 l 226 0 b 226 10 226 0 226 7 b 196 92 206 22 196 43 l 196 496 l 515 465 l 515 536 l 196 507 l 196 961 l 313 961 b 617 799 467 961 554 869 l 624 803 z "},"G":{"ha":1060,"x_min":0,"x_max":0,"o":"m 764 463 b 764 451 764 463 764 460 b 871 310 832 447 871 394 l 871 125 b 679 25 825 75 763 36 b 175 375 432 -7 250 131 b 424 953 100 621 186 901 b 872 711 606 992 771 872 l 882 711 l 924 869 b 565 986 806 947 715 986 b 42 489 290 986 42 764 b 538 -8 42 214 264 -8 b 981 219 810 -8 943 139 l 981 369 b 1011 451 981 419 990 439 b 1011 463 1011 454 1011 463 z "},"H":{"ha":876,"x_min":0,"x_max":0,"o":"m 821 961 b 821 972 821 964 821 972 l 649 972 b 649 961 649 972 649 964 b 681 879 671 949 681 928 l 681 581 l 197 581 l 197 879 b 228 961 197 928 207 949 b 228 972 228 964 228 972 l 56 972 b 56 961 56 972 56 964 b 88 879 78 949 88 928 l 88 92 b 56 10 88 43 78 22 b 56 0 56 7 56 0 l 228 0 b 228 10 228 0 228 7 b 197 92 207 22 197 43 l 197 571 l 681 571 l 681 92 b 649 10 681 43 671 22 b 649 0 649 7 649 0 l 821 0 b 821 10 821 0 821 7 b 790 92 800 22 790 43 l 790 879 b 821 961 790 928 800 949 z "},"I":{"ha":283,"x_min":0,"x_max":0,"o":"m 228 961 b 228 972 228 964 228 972 l 56 972 b 56 961 56 972 56 964 b 86 879 76 949 86 928 l 86 92 b 56 10 86 43 76 22 b 56 0 56 7 56 0 l 228 0 b 228 10 228 0 228 7 b 196 92 206 22 196 43 l 196 879 b 228 961 196 928 206 949 z "},"J":{"ha":340,"x_min":0,"x_max":0,"o":"m 68 972 b 68 961 68 972 68 964 b 143 865 118 957 143 921 l 143 225 b -56 -129 143 -4 68 -74 l -51 -142 b 253 225 86 -94 253 -15 l 253 879 b 285 961 253 929 263 949 b 285 972 285 964 285 972 z "},"K":{"ha":856,"x_min":0,"x_max":0,"o":"m 842 10 b 664 236 786 56 740 103 l 429 647 l 506 728 b 775 961 628 853 706 925 l 775 972 l 593 972 l 593 961 b 488 724 646 919 615 857 l 197 424 l 197 879 b 228 961 197 929 207 949 b 228 972 228 964 228 972 l 56 972 b 56 961 56 972 56 964 b 88 879 78 949 88 929 l 88 92 b 56 10 88 43 78 22 b 56 0 56 7 56 0 l 228 0 b 228 10 228 0 228 7 b 197 92 207 22 197 43 l 197 410 l 356 572 l 572 190 b 621 10 628 96 656 46 l 621 0 l 842 0 z "},"L":{"ha":693,"x_min":0,"x_max":0,"o":"m 657 174 b 324 10 592 89 478 10 l 197 10 l 197 879 b 228 961 197 929 207 949 b 228 972 228 964 228 972 l 56 972 b 56 961 56 972 56 964 b 88 879 78 949 88 929 l 88 92 b 56 10 88 43 78 22 b 56 0 56 7 56 0 l 635 0 l 665 168 z "},"M":{"ha":1143,"x_min":0,"x_max":0,"o":"m 1088 961 b 1088 972 1088 964 1088 972 l 958 972 l 604 357 l 206 972 l 81 972 l 143 886 l 143 167 b 56 10 143 107 101 33 b 56 0 56 7 56 0 l 242 0 b 242 10 242 0 242 7 b 154 167 196 33 154 107 l 154 872 l 551 267 l 564 267 l 947 931 l 947 92 b 915 10 947 43 936 22 b 915 0 915 7 915 0 l 1088 0 b 1088 10 1088 0 1088 7 b 1056 92 1065 22 1056 43 l 1056 879 b 1088 961 1056 929 1065 949 z "},"N":{"ha":979,"x_min":0,"x_max":0,"o":"m 738 972 b 738 961 738 972 738 964 b 825 806 783 938 825 865 l 825 175 l 196 972 l 56 972 l 144 858 l 144 167 b 56 10 144 107 103 33 b 56 0 56 7 56 0 l 243 0 b 243 10 243 0 243 7 b 154 167 196 33 154 107 l 154 846 l 815 0 l 836 0 l 836 806 b 924 961 836 865 878 938 b 924 972 924 964 924 972 z "},"O":{"ha":1092,"x_min":0,"x_max":0,"o":"m 546 986 b 42 489 271 986 42 764 b 546 -8 42 215 271 -8 b 1050 489 821 -8 1050 215 b 546 986 1050 764 821 986 z m 688 25 b 175 376 456 -46 250 131 b 404 953 100 621 172 882 b 917 603 636 1024 842 847 b 688 25 992 357 919 96 z "},"P":{"ha":763,"x_min":0,"x_max":0,"o":"m 265 972 l 56 972 b 56 961 56 972 56 964 b 88 879 78 949 88 929 l 88 92 b 56 10 88 43 78 22 b 56 0 56 7 56 0 l 228 0 b 228 10 228 0 228 7 b 197 92 207 22 197 43 l 197 404 l 265 404 b 721 688 539 404 721 492 b 265 972 721 885 539 972 z m 265 415 l 197 415 l 197 961 l 265 961 b 611 688 515 961 611 851 b 265 415 611 525 515 415 z "},"Q":{"ha":1092,"x_min":0,"x_max":0,"o":"m 1050 489 b 546 986 1050 764 819 986 b 42 489 271 986 42 764 b 546 -8 42 215 271 -8 b 731 28 611 -8 674 4 l 946 -92 l 975 -28 l 769 44 b 1050 489 935 126 1050 294 z m 688 25 b 175 376 456 -46 250 131 b 404 953 100 621 172 882 b 917 603 636 1024 842 847 b 750 51 983 381 932 147 l 643 89 l 639 79 l 717 36 b 688 25 707 32 697 28 z "},"R":{"ha":811,"x_min":0,"x_max":0,"o":"m 617 249 l 492 468 b 735 710 631 500 735 579 b 325 972 735 892 540 972 l 56 972 b 56 961 56 972 56 964 b 86 879 76 949 86 929 l 86 92 b 56 10 86 43 76 22 b 56 0 56 7 56 0 l 226 0 b 226 10 226 0 226 7 b 196 92 206 22 196 43 l 196 449 l 325 449 b 388 451 346 449 367 450 l 536 192 b 583 10 590 96 619 46 l 583 0 l 797 0 l 797 10 b 617 249 743 58 699 106 z m 325 460 l 196 460 l 196 961 l 325 961 b 625 710 589 961 625 818 b 325 460 625 603 588 460 z "},"S":{"ha":806,"x_min":0,"x_max":0,"o":"m 456 986 b 142 733 232 986 142 846 b 703 183 142 385 739 479 b 475 19 692 96 593 19 b 93 288 293 19 164 146 l 83 288 l 42 129 b 418 -8 150 47 253 -8 b 764 274 615 -8 764 108 b 194 807 764 621 168 529 b 419 968 203 890 282 968 b 710 711 529 968 631 897 l 719 711 l 761 856 b 456 986 679 919 563 986 z "},"T":{"ha":850,"x_min":0,"x_max":0,"o":"m 778 972 l 72 972 l 28 803 l 36 799 b 340 961 99 869 186 961 l 371 961 l 371 92 b 339 10 371 43 360 22 b 339 0 339 7 339 0 l 511 0 b 511 10 511 0 511 7 b 479 92 490 22 479 43 l 479 961 l 510 961 b 814 799 664 961 751 869 l 822 803 z "},"U":{"ha":915,"x_min":0,"x_max":0,"o":"m 688 972 b 688 961 688 972 688 964 b 792 790 756 951 792 867 l 792 326 b 517 8 792 171 688 22 b 197 360 315 -8 197 131 l 197 879 b 228 961 197 929 207 949 b 228 972 228 964 228 972 l 56 972 b 56 961 56 972 56 964 b 88 879 78 949 88 929 l 88 360 b 468 -8 88 107 261 -8 b 801 326 664 -8 801 133 l 801 806 b 860 961 801 865 815 938 b 860 972 860 964 860 972 z "},"V":{"ha":863,"x_min":0,"x_max":0,"o":"m 849 961 l 849 972 l 683 972 l 683 961 b 692 706 743 899 736 831 l 489 133 l 242 775 b 226 961 203 876 192 925 l 226 972 l 14 972 l 14 961 b 158 706 65 899 117 813 b 431 0 200 597 431 0 l 540 0 l 494 119 l 703 706 b 849 961 749 835 789 899 z "},"W":{"ha":1410,"x_min":0,"x_max":0,"o":"m 1396 961 l 1396 972 l 1231 972 l 1231 961 b 1243 706 1290 899 1286 832 l 1050 136 l 803 775 b 789 961 764 876 753 925 l 789 972 l 575 972 l 575 961 b 699 758 621 907 654 858 b 682 706 693 742 688 724 l 489 136 l 242 775 b 228 961 203 876 192 925 l 228 972 l 14 972 l 14 961 b 160 706 67 899 103 843 l 432 0 l 540 0 l 494 121 l 704 743 b 721 706 710 731 721 706 l 993 0 l 1103 0 l 1056 121 l 1253 706 b 1396 961 1297 836 1336 899 z "},"X":{"ha":947,"x_min":0,"x_max":0,"o":"m 825 92 l 508 547 l 640 728 b 868 961 738 861 799 925 l 868 972 l 685 972 l 685 961 b 625 724 739 919 725 861 l 503 557 b 271 892 503 557 293 860 b 292 961 250 924 271 951 b 292 972 292 964 292 972 l 64 972 b 64 961 64 972 64 964 b 158 881 88 949 128 924 b 432 483 188 836 432 483 l 256 243 b 28 10 157 108 99 47 l 28 0 l 211 0 l 211 10 b 269 244 157 53 168 104 l 438 475 l 703 92 b 690 10 738 42 714 21 b 690 0 690 7 690 0 l 919 0 b 919 10 919 0 919 7 b 825 92 894 22 850 56 z "},"Y":{"ha":864,"x_min":0,"x_max":0,"o":"m 686 972 l 686 961 b 685 751 736 919 743 882 l 496 350 l 274 768 b 257 961 221 867 221 925 l 257 972 l 14 972 l 14 961 b 135 825 57 925 104 881 b 397 331 164 768 397 331 l 397 92 b 367 10 397 43 388 22 b 367 0 367 7 367 0 l 539 0 b 539 10 539 0 539 7 b 507 92 517 22 507 43 l 507 346 l 685 728 b 850 961 756 878 786 907 l 850 972 z "},"Z":{"ha":775,"x_min":0,"x_max":0,"o":"m 725 174 b 392 10 660 89 544 10 l 135 10 l 704 972 l 99 972 l 54 803 l 61 799 b 365 961 125 869 213 961 l 582 961 l 14 0 l 129 0 l 703 0 l 733 168 z "},"a":{"ha":717,"x_min":0,"x_max":0,"o":"m 675 10 b 644 92 654 22 644 43 l 644 436 b 407 668 644 607 522 668 b 214 415 221 668 178 496 b 46 146 107 371 22 288 b 289 -8 64 46 175 -8 b 535 194 422 -8 499 72 l 535 0 l 675 0 b 675 10 675 0 675 7 z m 394 654 b 535 456 493 654 535 561 l 535 446 b 451 458 511 453 483 458 b 228 421 386 458 303 449 b 394 654 186 533 269 654 z m 322 10 b 154 126 253 6 172 51 b 451 446 94 371 300 446 b 535 433 494 446 528 436 l 535 219 b 322 10 507 119 443 17 z "},"b":{"ha":788,"x_min":0,"x_max":0,"o":"m 488 668 b 197 288 293 668 222 449 l 197 1001 l 188 1001 l 56 972 b 56 961 56 972 56 964 b 88 894 83 957 88 943 l 88 -8 b 96 -8 88 -8 93 -8 b 125 21 99 1 106 19 b 279 -8 153 22 207 -8 b 744 394 435 -8 754 50 b 488 668 740 571 601 668 z m 281 0 b 197 13 236 -1 204 10 l 197 206 b 426 643 197 322 269 613 b 638 414 544 667 631 535 b 281 0 657 60 414 1 z "},"c":{"ha":764,"x_min":0,"x_max":0,"o":"m 183 226 b 358 651 125 393 188 613 b 654 479 489 682 621 563 l 663 479 l 683 594 b 421 668 611 632 500 668 b 57 315 268 668 50 556 b 446 -8 63 86 254 -18 b 736 188 611 1 693 110 l 728 192 b 493 17 706 153 631 31 b 183 226 353 3 235 81 z "},"d":{"ha":788,"x_min":0,"x_max":0,"o":"m 746 10 b 715 92 725 22 715 43 l 715 1001 l 706 1001 l 574 972 b 574 961 574 972 574 964 b 606 894 601 957 606 943 l 606 656 b 522 668 582 663 554 668 b 57 267 368 668 49 610 b 314 -8 63 89 201 -8 b 606 372 508 -8 579 211 l 606 0 l 746 0 b 746 10 746 0 746 7 z m 376 17 b 165 246 257 -6 172 125 b 522 661 146 600 388 658 b 606 649 567 661 599 650 l 606 454 b 376 17 606 338 532 47 z "},"e":{"ha":775,"x_min":0,"x_max":0,"o":"m 592 449 l 622 449 b 721 449 622 449 708 449 b 421 668 701 617 539 674 b 57 315 268 660 50 556 b 439 -8 63 86 247 -8 b 732 221 636 -8 724 122 b 592 449 743 347 671 428 z m 358 651 b 621 460 494 678 603 581 l 178 460 b 358 651 203 554 264 633 z m 719 218 b 482 22 706 110 601 28 b 185 226 340 17 236 81 b 175 449 161 293 157 375 l 535 449 b 719 218 640 449 736 363 z "},"f":{"ha":515,"x_min":0,"x_max":0,"o":"m 515 657 l 515 668 l 324 668 b 157 813 211 668 167 753 b 208 982 144 888 161 961 b 425 804 301 1025 392 889 l 435 804 l 456 950 b 275 1001 406 986 335 1001 b 61 833 138 1001 61 928 b 260 668 61 740 176 672 l 56 668 l 56 657 b 138 546 110 657 138 621 l 138 92 b 107 10 138 43 128 22 b 107 0 107 7 107 0 l 278 0 b 278 10 278 0 278 7 b 247 92 257 22 247 43 l 247 657 z "},"g":{"ha":890,"x_min":0,"x_max":0,"o":"m 775 38 b 515 -99 704 35 618 -37 b 275 -206 426 -153 346 -207 b 197 -126 224 -206 200 -172 b 389 -7 190 -43 297 -11 b 403 -8 394 -8 399 -8 b 781 360 590 -8 781 138 b 611 628 781 486 711 579 l 835 638 l 826 707 l 589 638 b 433 668 542 657 489 668 b 56 300 247 668 56 529 b 350 -4 56 124 188 15 b 122 -144 253 -14 119 -60 b 253 -229 124 -208 179 -235 b 451 -150 318 -225 388 -189 b 633 -250 485 -196 533 -250 b 890 -69 751 -250 890 -179 b 775 38 890 -8 858 39 z m 174 256 b 326 643 125 424 168 597 b 664 404 485 689 615 571 b 511 17 713 236 668 63 b 174 256 353 -31 222 89 z m 806 -93 b 633 -240 800 -185 740 -242 b 461 -143 531 -239 488 -182 b 524 -106 482 -131 503 -118 b 736 10 604 -56 693 4 b 806 -93 792 18 808 -29 z "},"h":{"ha":769,"x_min":0,"x_max":0,"o":"m 703 92 b 669 424 697 143 685 289 b 443 668 653 590 556 668 b 197 324 263 668 214 479 l 197 1001 l 186 1001 l 56 972 b 56 961 56 972 56 964 b 88 894 83 957 88 943 l 88 92 b 56 10 88 43 78 22 b 56 0 56 7 56 0 l 228 0 b 228 10 228 0 228 7 b 197 92 207 22 197 43 l 197 206 b 381 643 197 322 225 613 b 563 444 500 667 551 549 b 594 92 569 372 589 138 b 571 10 599 46 592 22 b 571 0 571 7 571 0 l 742 0 b 742 10 742 0 742 7 b 703 92 721 22 708 42 z "},"i":{"ha":269,"x_min":0,"x_max":0,"o":"m 196 92 l 196 668 l 186 668 l 56 638 b 56 628 56 638 56 631 b 86 561 82 624 86 610 l 86 92 b 56 10 86 43 76 22 b 56 0 56 7 56 0 l 228 0 b 228 10 228 0 228 7 b 196 92 206 22 196 43 z m 138 781 b 203 846 174 781 203 810 b 138 911 203 882 174 911 b 72 846 101 911 72 882 b 138 781 72 810 101 781 z "},"j":{"ha":283,"x_min":0,"x_max":0,"o":"m 199 668 l 68 638 b 68 628 68 638 68 631 b 99 561 94 624 99 610 l 99 -19 b -56 -357 99 -249 68 -299 l -51 -371 b 208 -4 78 -317 208 -244 l 208 668 z m 149 781 b 214 846 185 781 214 810 b 149 911 214 882 185 911 b 85 846 114 911 85 882 b 149 781 85 810 114 781 z "},"k":{"ha":715,"x_min":0,"x_max":0,"o":"m 506 254 l 378 458 b 647 657 504 569 571 626 l 647 668 l 464 668 l 464 657 b 343 439 519 621 486 567 l 196 310 l 196 1001 l 186 1001 l 56 972 b 56 961 56 972 56 964 b 86 903 82 957 86 951 l 86 99 b 56 10 86 50 76 22 b 56 0 56 7 56 0 l 228 0 b 228 10 228 0 228 7 b 196 99 206 22 196 50 l 196 297 l 308 396 l 465 140 b 490 10 507 69 522 35 l 490 0 l 701 0 l 701 10 b 506 254 639 39 601 99 z "},"l":{"ha":268,"x_min":0,"x_max":0,"o":"m 196 92 l 196 1001 l 186 1001 l 56 972 b 56 961 56 972 56 964 b 86 894 82 957 86 943 l 86 92 b 56 10 86 43 76 22 b 56 0 56 7 56 0 l 226 0 b 226 10 226 0 226 7 b 196 92 206 22 196 43 z "},"m":{"ha":1138,"x_min":0,"x_max":0,"o":"m 1071 92 b 1038 424 1065 143 1053 289 b 833 668 1021 586 943 668 b 625 408 693 668 642 543 l 624 424 b 419 668 618 576 526 668 b 196 360 253 668 211 507 l 196 668 l 186 668 l 56 638 b 56 628 56 638 56 631 b 88 561 83 624 88 610 l 88 92 b 56 10 88 43 76 22 b 56 0 56 7 56 0 l 228 0 b 228 10 228 0 228 7 b 196 92 207 22 196 43 l 196 206 b 358 643 196 324 203 614 b 515 444 467 664 515 550 l 515 92 b 485 10 515 43 506 22 b 485 0 485 7 485 0 l 656 0 b 656 10 656 0 656 7 b 625 92 635 22 625 43 l 625 254 b 771 643 626 400 643 615 b 931 444 879 667 919 549 b 963 92 938 372 957 138 b 939 10 967 46 960 22 b 939 0 939 7 939 0 l 1110 0 b 1110 10 1110 0 1110 7 b 1071 92 1089 22 1076 42 z "},"n":{"ha":769,"x_min":0,"x_max":0,"o":"m 703 92 b 669 424 697 143 683 289 b 442 668 653 590 556 668 b 196 324 261 668 214 479 l 196 668 l 186 668 l 56 638 b 56 628 56 638 56 631 b 86 561 82 624 86 610 l 86 92 b 56 10 86 43 76 22 b 56 0 56 7 56 0 l 228 0 b 228 10 228 0 228 7 b 196 92 206 22 196 43 l 196 206 b 381 643 196 322 225 613 b 561 444 500 667 551 549 b 593 92 568 372 589 138 b 569 10 597 46 592 22 b 569 0 569 7 569 0 l 742 0 b 742 10 742 0 742 7 b 703 92 721 22 708 42 z "},"o":{"ha":821,"x_min":0,"x_max":0,"o":"m 432 668 b 56 300 246 668 56 529 b 403 -8 56 106 215 -8 b 779 360 589 -8 779 138 b 432 668 779 551 618 668 z m 510 17 b 172 256 351 -31 221 89 b 325 643 124 424 167 597 b 663 404 483 689 614 571 b 510 17 711 236 668 63 z "},"q":{"ha":788,"x_min":0,"x_max":0,"o":"m 714 -235 l 714 668 b 706 668 714 668 708 668 b 676 639 703 658 696 640 b 522 668 649 638 594 668 b 57 267 367 668 47 610 b 314 -8 61 89 200 -8 b 604 372 508 -8 579 211 l 604 -342 l 615 -342 l 746 -311 b 746 -301 746 -311 746 -304 b 714 -235 718 -297 714 -283 z m 604 454 b 375 17 604 338 532 47 b 164 246 257 -6 171 125 b 521 661 144 600 388 658 b 604 649 565 661 597 650 z "},"p":{"ha":788,"x_min":0,"x_max":0,"o":"m 486 668 b 196 288 292 668 221 449 l 196 668 l 186 668 l 56 638 b 56 628 56 638 56 631 b 86 561 82 624 86 610 l 86 -342 l 96 -342 l 226 -311 b 226 -301 226 -311 226 -304 b 196 -235 200 -297 196 -283 l 196 4 b 278 -8 219 -3 247 -8 b 744 394 433 -8 753 50 b 486 668 739 571 600 668 z m 279 0 b 196 13 235 -1 203 10 l 196 206 b 425 643 196 322 269 613 b 636 414 544 667 629 535 b 279 0 656 60 413 1 z "},"r":{"ha":563,"x_min":0,"x_max":0,"o":"m 397 668 b 197 296 250 668 211 464 l 197 668 l 186 668 l 56 638 b 56 628 56 638 56 631 b 88 561 83 624 88 610 l 88 92 b 56 10 88 43 78 22 b 56 0 56 7 56 0 l 228 0 b 228 10 228 0 228 7 b 197 92 207 22 197 43 l 197 146 b 351 643 197 264 215 622 b 468 472 426 654 465 551 l 478 467 l 563 586 b 397 668 515 642 472 668 z "},"s":{"ha":636,"x_min":0,"x_max":0,"o":"m 338 668 b 125 496 186 668 136 586 b 550 122 92 224 576 304 b 367 11 542 63 467 11 b 92 224 243 11 139 126 l 85 224 l 56 85 b 326 -8 131 29 214 -8 b 593 183 482 -8 585 74 b 160 546 608 410 140 360 b 314 656 167 603 219 656 b 525 451 393 656 482 569 l 532 451 l 560 579 b 338 668 504 622 410 668 z "},"t":{"ha":526,"x_min":0,"x_max":0,"o":"m 547 246 b 385 17 522 139 476 29 b 233 215 267 1 233 94 l 233 657 l 397 657 l 397 668 l 90 668 b 279 858 174 672 279 751 l 169 858 b 42 668 169 792 160 668 l 42 657 l 124 657 l 124 236 b 324 -8 124 72 200 -8 b 554 243 469 -8 528 113 z "},"u":{"ha":744,"x_min":0,"x_max":0,"o":"m 703 10 b 671 92 681 22 671 43 l 671 668 l 661 668 l 531 638 b 531 628 531 638 531 631 b 561 561 557 624 561 610 l 561 454 b 378 17 561 338 533 47 b 196 215 258 -6 196 94 l 196 668 l 186 668 l 56 638 b 56 628 56 638 56 631 b 86 561 82 624 86 610 l 86 236 b 315 -8 86 72 188 -8 b 561 338 496 -8 543 181 l 561 0 l 703 0 b 703 10 703 0 703 7 z "},"v":{"ha":711,"x_min":0,"x_max":0,"o":"m 697 657 l 697 668 l 533 668 l 533 657 b 528 401 594 606 579 529 l 414 118 l 249 504 b 240 657 217 582 204 619 l 240 668 l 28 668 l 28 657 b 182 406 94 601 124 542 l 354 0 l 464 0 l 419 106 l 538 400 b 697 657 589 528 638 596 z "},"w":{"ha":1057,"x_min":0,"x_max":0,"o":"m 879 668 l 879 657 b 879 401 942 607 929 531 l 776 129 l 646 468 b 632 657 608 569 590 614 l 632 668 l 418 668 l 418 657 b 532 479 472 613 497 565 l 417 113 l 250 504 b 242 657 218 582 206 619 l 242 668 l 28 668 l 28 657 b 183 406 96 601 125 542 l 356 0 l 465 0 l 424 99 l 538 465 b 715 0 544 447 715 0 l 825 0 l 781 115 l 904 439 b 1043 657 949 544 988 604 l 1043 668 z "},"x":{"ha":751,"x_min":0,"x_max":0,"o":"m 636 106 l 428 379 l 469 433 b 699 657 569 564 615 622 l 699 668 l 526 668 l 526 657 b 454 428 582 631 551 553 l 422 386 l 278 576 b 286 657 243 622 264 647 b 286 668 286 661 286 668 l 53 668 b 53 657 53 668 53 661 b 167 563 93 643 132 608 l 338 339 l 257 235 b 28 10 157 103 111 46 l 28 0 l 201 0 l 201 10 b 272 240 144 38 175 114 l 343 332 l 528 89 b 518 10 560 44 540 19 b 518 0 518 7 518 0 l 751 0 b 751 10 751 0 751 7 b 636 106 710 24 672 58 z "},"y":{"ha":721,"x_min":0,"x_max":0,"o":"m 707 657 l 707 668 l 543 668 l 543 657 b 538 401 606 606 589 529 l 424 118 l 258 504 b 250 657 226 582 215 619 l 250 668 l 38 668 l 38 657 b 192 406 104 601 133 542 l 369 -12 b 194 -215 324 -115 267 -207 b 117 -39 118 -224 103 -117 l 108 -32 l 0 -131 b 164 -229 35 -194 89 -229 b 386 0 274 -229 336 -125 b 547 400 436 124 547 400 b 707 657 599 528 647 596 z "},"z":{"ha":654,"x_min":0,"x_max":0,"o":"m 618 174 b 329 10 553 89 492 11 l 164 10 l 608 668 l 108 668 l 63 515 l 71 510 b 360 658 133 582 206 658 l 486 658 l 42 0 l 596 0 l 626 168 z "},".":{"ha":263,"x_min":0,"x_max":0,"o":"m 132 143 b 56 68 90 143 56 110 b 132 -8 56 26 90 -8 b 207 68 174 -8 207 26 b 132 143 207 110 174 143 z "},",":{"ha":261,"x_min":0,"x_max":0,"o":"m 131 143 b 56 68 89 143 56 110 b 131 -8 56 26 89 -8 b 182 13 150 -8 168 0 b 74 -131 165 -40 129 -83 l 82 -137 b 206 68 158 -75 206 -8 b 131 143 206 110 172 143 z "},":":{"ha":261,"x_min":0,"x_max":0,"o":"m 131 143 b 56 68 89 143 56 110 b 131 -8 56 26 89 -8 b 206 68 172 -8 206 26 b 131 143 206 110 172 143 z m 131 518 b 206 593 172 518 206 551 b 131 668 206 635 172 668 b 56 593 89 668 56 635 b 131 518 56 551 89 518 z "},";":{"ha":261,"x_min":0,"x_max":0,"o":"m 131 518 b 206 593 172 518 206 551 b 131 668 206 635 172 668 b 56 593 89 668 56 635 b 131 518 56 551 89 518 z m 131 143 b 56 68 89 143 56 110 b 131 -8 56 26 89 -8 b 182 13 150 -8 168 0 b 74 -131 165 -40 129 -83 l 81 -137 b 206 68 158 -75 206 -8 b 131 143 206 110 172 143 z "},"!":{"ha":278,"x_min":0,"x_max":0,"o":"m 144 254 l 222 972 l 56 972 l 135 254 z m 139 143 b 64 68 97 143 64 110 b 139 -8 64 26 97 -8 b 215 68 181 -8 215 26 b 139 143 215 110 181 143 z "},"?":{"ha":718,"x_min":0,"x_max":0,"o":"m 299 143 b 224 68 257 143 224 110 b 299 -8 224 26 257 -8 b 374 68 340 -8 374 26 b 299 143 374 110 340 143 z m 660 786 b 354 986 643 910 503 996 b 56 840 251 979 139 913 l 113 682 l 122 682 b 351 972 149 868 254 974 b 547 758 469 971 539 872 b 293 396 556 650 533 507 l 293 254 l 304 254 l 304 386 b 660 786 494 463 685 594 z "},"¿":{"ha":718,"x_min":0,"x_max":0,"o":"m 419 518 b 494 593 461 518 494 551 b 419 668 494 635 461 668 b 344 593 378 668 344 635 b 419 518 344 551 378 518 z m 606 -21 l 596 -21 b 367 -311 569 -208 464 -312 b 171 -97 249 -310 179 -211 b 425 265 163 11 185 154 l 425 407 l 414 407 l 414 274 b 58 -126 224 197 33 67 b 364 -325 75 -249 215 -336 b 663 -181 467 -318 579 -251 z "},"¡":{"ha":278,"x_min":0,"x_max":0,"o":"m 143 407 l 133 407 l 56 -312 l 222 -312 z m 139 518 b 214 593 181 518 214 551 b 139 668 214 635 181 668 b 64 593 97 668 64 635 b 139 518 64 551 97 518 z "},"-":{"ha":646,"x_min":0,"x_max":0,"o":"m 56 492 l 56 481 l 590 481 l 590 492 z "},"+":{"ha":646,"x_min":0,"x_max":0,"o":"m 590 492 l 328 492 l 328 753 l 317 753 l 317 492 l 56 492 l 56 481 l 317 481 l 317 218 l 328 218 l 328 481 l 590 481 z "},"=":{"ha":646,"x_min":0,"x_max":0,"o":"m 56 611 l 56 601 l 590 601 l 590 611 z m 56 360 l 590 360 l 590 371 l 56 371 z "},"×":{"ha":497,"x_min":0,"x_max":0,"o":"m 442 671 l 433 679 l 249 493 l 64 679 l 56 671 l 242 486 l 56 300 l 64 293 l 249 478 l 433 293 l 442 300 l 256 486 z "},"÷":{"ha":646,"x_min":0,"x_max":0,"o":"m 324 668 b 381 726 356 668 381 694 b 324 785 381 758 356 785 b 265 726 292 785 265 758 b 324 668 265 694 292 668 z m 324 303 b 265 246 292 303 265 278 b 324 188 265 214 292 188 b 381 246 356 188 381 214 b 324 303 381 278 356 303 z m 56 492 l 56 481 l 590 481 l 590 492 z "},"≠":{"ha":646,"x_min":0,"x_max":0,"o":"m 590 601 l 590 611 l 456 611 l 536 692 l 529 700 l 440 611 l 56 611 l 56 601 l 431 601 l 200 371 l 56 371 l 56 360 l 189 360 l 108 279 l 115 272 l 204 360 l 590 360 l 590 371 l 215 371 l 444 601 z "},"–":{"ha":721,"x_min":0,"x_max":0,"o":"m 56 492 l 56 481 l 665 481 l 665 492 z "},"—":{"ha":810,"x_min":0,"x_max":0,"o":"m 56 492 l 56 481 l 754 481 l 754 492 z "},"_":{"ha":646,"x_min":0,"x_max":0,"o":"m 56 -28 l 56 -37 l 590 -37 l 590 -28 z "},"|":{"ha":121,"x_min":0,"x_max":0,"o":"m 56 1203 l 56 -232 l 65 -232 l 65 1203 z "},"/":{"ha":617,"x_min":0,"x_max":0,"o":"m 550 1203 l 56 -232 l 67 -232 l 561 1203 z "},"\\":{"ha":615,"x_min":0,"x_max":0,"o":"m 65 1203 l 56 1203 l 550 -232 l 560 -232 z "},"¦":{"ha":122,"x_min":0,"x_max":0,"o":"m 56 1203 l 56 668 l 67 668 l 67 1203 z m 56 -232 l 67 -232 l 67 303 l 56 303 z "},"#":{"ha":1671,"x_min":0,"x_max":0,"o":"m 1615 740 l 1615 751 l 1164 751 l 1272 1203 l 1263 1203 l 1154 751 l 644 751 l 753 1203 l 742 1203 l 633 751 l 181 751 l 181 740 l 631 740 l 508 231 l 56 231 l 56 221 l 506 221 l 397 -232 l 408 -232 l 517 221 l 1026 221 l 918 -232 l 928 -232 l 1036 221 l 1489 221 l 1489 231 l 1039 231 l 1161 740 z m 1029 231 l 519 231 l 642 740 l 1151 740 z "},"‚":{"ha":261,"x_min":0,"x_max":0,"o":"m 131 143 b 56 68 89 143 56 110 b 131 -8 56 26 89 -8 b 182 13 150 -8 168 0 b 74 -131 165 -40 129 -83 l 81 -137 b 206 68 158 -75 206 -8 b 131 143 206 110 172 143 z "},"„":{"ha":494,"x_min":0,"x_max":0,"o":"m 131 143 b 56 68 89 143 56 110 b 131 -8 56 26 89 -8 b 182 13 151 -8 168 0 b 75 -131 165 -40 129 -83 l 82 -137 b 207 68 160 -75 207 -8 b 131 143 207 110 172 143 z m 364 143 b 289 68 322 143 289 110 b 364 -8 289 26 322 -8 b 415 13 383 -8 401 0 b 307 -131 399 -40 363 -83 l 314 -137 b 439 68 392 -75 439 -8 b 364 143 439 110 406 143 z "},"’":{"ha":263,"x_min":0,"x_max":0,"o":"m 132 988 b 56 911 90 988 56 953 b 132 836 56 871 90 836 b 182 857 151 836 168 844 b 75 714 165 803 129 761 l 82 707 b 207 911 160 769 207 836 b 132 988 207 953 172 988 z "},"”":{"ha":494,"x_min":0,"x_max":0,"o":"m 131 988 b 56 911 89 988 56 953 b 131 836 56 871 89 836 b 181 857 150 836 168 844 b 74 714 165 803 129 761 l 81 707 b 206 911 158 769 206 836 b 131 988 206 953 172 988 z m 363 988 b 288 911 322 988 288 953 b 363 836 288 871 322 836 b 414 857 383 836 400 844 b 307 714 397 803 361 761 l 314 707 b 439 911 392 769 439 836 b 363 988 439 953 404 988 z "},"“":{"ha":494,"x_min":0,"x_max":0,"o":"m 364 857 b 313 838 344 857 326 850 b 421 981 329 890 365 933 l 414 988 b 289 782 336 925 289 857 b 364 707 289 740 322 707 b 439 782 406 707 439 740 b 364 857 439 824 406 857 z m 131 857 b 81 838 111 857 93 850 b 188 981 96 890 132 933 l 181 988 b 56 782 103 925 56 857 b 131 707 56 740 89 707 b 206 782 172 707 206 740 b 131 857 206 824 172 857 z "},"‘":{"ha":261,"x_min":0,"x_max":0,"o":"m 131 857 b 81 838 111 857 93 850 b 188 981 96 890 132 933 l 181 988 b 56 782 103 925 56 857 b 131 707 56 740 89 707 b 206 782 172 707 206 740 b 131 857 206 824 172 857 z "},"[":{"ha":406,"x_min":0,"x_max":0,"o":"m 350 1193 l 350 1203 l 56 1203 l 56 -232 l 350 -232 l 350 -221 l 65 -221 l 65 1193 z "},"]":{"ha":406,"x_min":0,"x_max":0,"o":"m 56 1203 l 56 1193 l 340 1193 l 340 -221 l 56 -221 l 56 -232 l 350 -232 l 350 1203 z "},"…":{"ha":863,"x_min":0,"x_max":0,"o":"m 132 143 b 56 68 90 143 56 110 b 132 -8 56 26 90 -8 b 207 68 174 -8 207 26 b 132 143 207 110 174 143 z m 432 143 b 357 68 390 143 357 110 b 432 -8 357 26 390 -8 b 507 68 474 -8 507 26 b 432 143 507 110 474 143 z m 732 143 b 657 68 690 143 657 110 b 732 -8 657 26 690 -8 b 807 68 774 -8 807 26 b 732 143 807 110 774 143 z "},"−":{"ha":646,"x_min":0,"x_max":0,"o":"m 56 492 l 56 481 l 590 481 l 590 492 z "},"%":{"ha":1451,"x_min":0,"x_max":0,"o":"m 1017 1032 l 450 -47 l 460 -47 l 1026 1032 z m 625 714 b 340 986 625 868 493 986 b 56 714 189 986 56 868 b 340 443 56 561 189 443 b 625 714 493 443 625 561 z m 340 456 b 144 714 219 456 144 574 b 340 974 144 856 219 974 b 536 714 461 974 536 856 b 340 456 536 574 461 456 z m 1111 536 b 826 264 960 536 826 418 b 1111 -7 826 111 960 -7 b 1396 264 1264 -7 1396 111 b 1111 536 1396 418 1264 536 z m 1111 6 b 915 264 990 6 915 124 b 1111 524 915 406 990 524 b 1307 264 1232 524 1307 406 b 1111 6 1307 124 1232 6 z "},"‰":{"ha":2128,"x_min":0,"x_max":0,"o":"m 626 714 b 340 986 626 868 493 986 b 56 714 189 986 56 868 b 340 443 56 561 189 443 b 626 714 493 443 626 561 z m 340 456 b 146 714 221 456 146 574 b 340 974 146 856 221 974 b 536 714 461 974 536 856 b 340 456 536 574 461 456 z m 1111 536 b 826 264 960 536 826 418 b 1111 -7 826 111 960 -7 b 1396 264 1264 -7 1396 111 b 1111 536 1396 418 1264 536 z m 1111 6 b 915 264 992 6 915 124 b 1111 524 915 406 992 524 b 1307 264 1232 524 1307 406 b 1111 6 1307 124 1232 6 z m 1788 536 b 1503 264 1636 536 1503 418 b 1788 -7 1503 111 1636 -7 b 2072 264 1940 -7 2072 111 b 1788 536 2072 418 1940 536 z m 1788 6 b 1592 264 1667 6 1592 124 b 1788 524 1592 406 1667 524 b 1983 264 1908 524 1983 406 b 1788 6 1983 124 1908 6 z m 1017 1032 l 450 -47 l 461 -47 l 1026 1032 z "},"¶":{"ha":801,"x_min":0,"x_max":0,"o":"m 746 999 l 301 999 b 56 753 165 999 56 889 b 301 508 56 618 165 508 l 301 0 l 311 0 l 311 988 l 519 988 l 519 0 l 529 0 l 529 988 l 746 988 z "},"'":{"ha":193,"x_min":0,"x_max":0,"o":"m 96 1001 b 57 949 75 1001 56 988 b 96 746 63 807 79 746 b 136 949 114 746 131 807 b 96 1001 138 988 118 1001 z "},"\"":{"ha":324,"x_min":0,"x_max":0,"o":"m 96 1001 b 57 949 75 1001 56 988 b 96 746 63 807 79 746 b 136 949 114 746 131 807 b 96 1001 138 988 118 1001 z m 228 1001 b 189 949 206 1001 188 988 b 228 746 193 807 210 746 b 267 949 244 746 263 807 b 228 1001 268 988 249 1001 z "},"§":{"ha":788,"x_min":0,"x_max":0,"o":"m 732 453 b 164 986 732 800 138 708 b 389 1147 171 1069 250 1147 b 678 890 497 1147 599 1076 l 688 890 l 729 1033 b 424 1165 647 1097 531 1165 b 111 913 201 1165 111 1024 b 164 760 111 849 132 799 b 56 550 97 710 56 636 b 625 17 56 203 651 294 b 400 -144 617 -67 538 -144 b 110 113 290 -144 189 -74 l 100 113 l 58 -32 b 364 -162 140 -94 257 -162 b 676 90 588 -162 676 -22 b 624 243 676 154 657 204 b 732 453 692 293 732 367 z m 117 640 b 178 744 122 679 144 715 b 671 363 332 586 700 596 b 610 258 667 324 644 288 b 117 640 456 417 89 406 z "},"†":{"ha":558,"x_min":0,"x_max":0,"o":"m 503 751 l 450 790 l 283 754 l 318 919 l 279 972 l 240 919 l 275 754 l 108 790 l 56 751 l 108 713 l 276 749 b 240 625 265 700 240 625 l 276 188 l 282 188 l 319 625 b 283 749 319 625 294 700 l 450 713 z "},"‡":{"ha":558,"x_min":0,"x_max":0,"o":"m 283 410 l 319 579 b 283 749 319 579 319 579 l 450 713 l 503 751 l 450 790 l 283 754 l 319 919 l 279 972 l 240 919 l 276 754 l 108 790 l 56 751 l 108 713 l 276 749 l 240 579 l 276 410 l 108 446 l 56 407 l 108 368 l 276 404 l 240 239 l 279 188 l 319 239 l 283 404 l 450 368 l 503 407 l 450 446 z "},"№":{"ha":1610,"x_min":0,"x_max":0,"o":"m 1035 429 l 1035 419 l 1554 419 l 1554 429 z m 736 961 b 825 804 783 938 825 865 l 825 175 l 196 972 l 56 972 l 144 858 l 144 167 b 56 10 144 107 103 35 b 56 0 56 7 56 0 l 243 0 b 243 10 243 0 243 7 b 154 167 196 35 154 107 l 154 846 l 815 0 l 835 0 l 835 804 b 924 961 835 865 876 938 b 924 972 924 964 924 972 l 736 972 b 736 961 736 972 736 964 z m 1294 579 b 1507 782 1408 579 1507 668 b 1294 986 1507 897 1408 986 b 1081 782 1179 986 1081 897 b 1294 579 1081 668 1179 579 z m 1294 976 b 1440 782 1385 976 1440 889 b 1294 589 1440 676 1385 589 b 1147 782 1204 589 1147 676 b 1294 976 1147 889 1204 976 z "},"*":{"ha":447,"x_min":0,"x_max":0,"o":"m 389 882 b 326 903 382 901 360 921 b 242 854 283 879 258 865 b 263 949 247 872 254 901 b 224 1001 269 986 244 1001 b 185 949 201 1001 178 986 b 204 854 193 901 199 872 b 121 903 189 865 163 879 b 58 882 88 921 65 901 b 96 828 51 861 58 833 b 193 818 144 822 174 818 b 121 753 178 807 156 786 b 121 688 93 728 104 700 b 185 707 139 675 168 672 b 224 796 204 751 217 778 b 263 707 229 778 242 751 b 325 688 279 672 308 675 b 326 753 343 700 354 728 b 254 818 292 786 269 807 b 350 828 272 818 303 822 b 389 882 388 833 394 861 z "},"@":{"ha":1443,"x_min":0,"x_max":0,"o":"m 1113 -8 b 1388 381 1244 1 1388 153 b 789 947 1388 704 1113 943 b 58 333 472 951 86 757 b 704 -336 21 -228 535 -339 b 1210 -158 1018 -331 1204 -164 l 1199 -149 b 704 -321 1197 -150 1014 -324 b 74 333 496 -319 42 -185 b 789 932 99 744 482 939 b 1372 381 1104 926 1372 696 b 1142 17 1372 163 1238 25 b 1039 167 1068 13 1039 71 b 1039 619 1039 244 1039 578 b 847 668 1000 638 932 668 b 382 267 692 668 372 610 b 639 -8 386 90 525 -8 b 929 372 833 -8 904 211 b 929 192 929 306 929 239 b 1113 -8 929 29 1028 -15 z m 700 17 b 489 246 582 -6 496 125 b 846 661 469 600 713 658 b 929 646 890 661 922 649 b 929 454 929 621 929 544 b 700 17 929 338 856 47 z "},"&":{"ha":1142,"x_min":0,"x_max":0,"o":"m 1068 808 b 914 836 1038 861 976 881 b 768 583 857 796 821 689 b 621 360 721 489 678 393 b 513 368 576 333 526 328 b 643 518 496 415 556 469 l 640 526 b 460 333 553 478 428 407 b 615 331 481 286 556 288 b 742 506 669 371 707 438 b 472 7 893 433 879 7 b 168 242 292 7 179 121 b 496 510 150 442 272 592 b 500 519 499 515 500 519 b 242 807 333 579 242 686 b 331 982 242 890 274 958 b 650 810 424 1021 558 964 l 660 810 l 686 953 b 313 988 528 1013 417 1022 b 136 800 208 954 143 899 b 426 542 124 628 314 578 b 60 249 218 594 25 465 b 465 -8 79 128 233 -8 b 776 493 876 -8 896 393 b 949 518 824 479 883 476 b 1068 808 1047 581 1121 717 z m 944 524 b 746 515 863 471 785 497 b 778 581 757 538 768 560 b 896 792 819 665 860 768 b 1014 761 933 818 978 814 b 944 524 1058 694 1033 582 z "},"^":{"ha":497,"x_min":0,"x_max":0,"o":"m 249 986 l 56 764 l 64 757 l 249 972 l 433 757 l 442 764 z "},"(":{"ha":457,"x_min":0,"x_max":0,"o":"m 67 418 b 401 1046 67 747 192 982 l 399 1057 b 56 418 183 992 56 753 b 399 -219 56 83 183 -156 l 401 -210 b 67 418 192 -146 67 89 z "},")":{"ha":457,"x_min":0,"x_max":0,"o":"m 390 418 b 56 -210 390 89 265 -146 l 58 -219 b 401 418 274 -156 401 83 b 58 1057 401 753 274 992 l 56 1046 b 390 418 265 982 390 747 z "},"{":{"ha":406,"x_min":0,"x_max":0,"o":"m 183 -161 b 150 6 157 -139 115 -87 b 174 386 211 169 219 319 b 132 418 163 401 149 413 b 174 451 149 424 163 435 b 150 831 219 518 211 667 b 183 997 115 924 157 975 b 344 1014 231 1035 300 1042 l 350 1024 b 176 1006 303 1054 226 1046 b 139 826 126 965 113 900 b 164 457 199 667 208 521 b 101 425 149 436 128 425 l 56 425 l 56 413 l 101 413 b 164 379 128 413 149 401 b 139 10 208 315 199 171 b 176 -169 113 -64 126 -129 b 350 -187 226 -210 303 -217 l 344 -178 b 183 -161 300 -206 231 -199 z "},"}":{"ha":404,"x_min":0,"x_max":0,"o":"m 222 -161 b 61 -178 175 -199 106 -206 l 56 -187 b 229 -169 103 -217 179 -210 b 267 10 279 -129 293 -64 b 242 379 207 171 197 315 b 304 413 257 401 278 413 l 349 413 l 349 425 l 304 425 b 242 457 278 425 257 436 b 267 826 197 521 207 667 b 229 1006 293 900 279 965 b 56 1024 179 1046 103 1054 l 61 1014 b 222 997 106 1042 175 1035 b 256 831 249 975 290 924 b 232 451 194 667 186 518 b 274 418 243 435 257 424 b 232 386 257 413 243 401 b 256 6 186 319 194 169 b 222 -161 290 -87 249 -139 z "},"~":{"ha":799,"x_min":0,"x_max":0,"o":"m 565 293 b 743 435 649 293 714 344 l 733 438 b 565 304 706 353 644 304 b 389 386 490 304 439 346 b 239 458 342 424 297 458 b 56 303 153 458 89 406 l 67 299 b 239 447 89 367 136 447 b 382 378 294 447 336 414 b 565 293 433 336 486 293 z "},"≈":{"ha":799,"x_min":0,"x_max":0,"o":"m 565 465 b 743 607 649 465 714 517 l 733 611 b 565 476 706 526 644 476 b 389 558 490 476 439 518 b 239 632 342 596 297 632 b 56 475 153 632 89 578 l 67 472 b 239 621 89 540 138 621 b 382 550 294 621 336 586 b 565 465 433 508 488 465 z m 565 203 b 743 344 649 203 714 254 l 733 349 b 565 214 706 263 644 214 b 389 296 490 214 439 256 b 239 369 342 333 297 369 b 56 213 153 369 89 315 l 67 210 b 239 358 89 276 138 358 b 382 288 294 358 336 324 b 565 203 433 246 488 203 z "},"›":{"ha":311,"x_min":0,"x_max":0,"o":"m 63 600 l 56 592 l 240 407 l 56 222 l 63 214 l 256 407 z "},"‹":{"ha":311,"x_min":0,"x_max":0,"o":"m 256 592 l 249 600 l 56 407 l 249 214 l 256 222 l 71 407 z "},"»":{"ha":529,"x_min":0,"x_max":0,"o":"m 474 407 l 281 600 l 274 592 l 458 407 l 274 222 l 281 214 z m 256 407 l 63 600 l 56 592 l 240 407 l 56 222 l 63 214 z "},"«":{"ha":529,"x_min":0,"x_max":0,"o":"m 249 214 l 256 222 l 71 407 l 256 592 l 249 600 l 56 407 z m 467 214 l 474 222 l 289 407 l 474 592 l 467 600 l 274 407 z "},"©":{"ha":1044,"x_min":0,"x_max":0,"o":"m 614 171 b 349 343 489 153 386 218 b 475 638 310 467 354 611 b 704 514 568 657 653 596 l 710 514 l 731 594 b 547 654 671 635 625 654 b 281 400 407 654 281 540 b 542 147 281 260 401 147 b 774 292 667 147 735 211 l 768 293 b 614 171 732 222 678 181 z m 522 860 b 56 393 265 860 56 650 b 522 -74 56 136 265 -74 b 989 393 779 -74 989 136 b 522 860 989 650 779 860 z m 522 -62 b 67 393 271 -62 67 142 b 522 849 67 644 271 849 b 978 393 774 849 978 644 b 522 -62 978 142 774 -62 z "},"®":{"ha":1044,"x_min":0,"x_max":0,"o":"m 660 278 l 596 389 b 719 513 667 407 719 446 b 510 646 719 606 619 646 l 372 646 b 372 642 372 646 372 643 b 389 600 383 635 389 625 l 389 197 b 372 156 389 172 383 163 b 372 150 372 154 372 150 l 460 150 b 460 156 460 150 460 154 b 444 197 450 163 444 172 l 444 381 l 510 381 b 542 381 521 381 532 381 l 618 249 b 643 156 646 199 661 174 l 643 150 l 751 150 l 751 156 b 660 278 724 181 701 204 z m 510 385 l 444 385 l 444 642 l 510 642 b 664 513 644 642 664 568 b 510 385 664 458 644 385 z m 522 860 b 56 393 265 860 56 650 b 522 -74 56 136 265 -74 b 989 393 779 -74 989 136 b 522 860 989 650 779 860 z m 522 -62 b 67 393 271 -62 67 142 b 522 849 67 644 271 849 b 978 393 774 849 978 644 b 522 -62 978 142 774 -62 z "},"•":{"ha":333,"x_min":0,"x_max":0,"o":"m 167 442 b 56 331 106 442 56 392 b 167 219 56 268 106 219 b 278 331 228 219 278 268 b 167 442 278 392 228 442 z "},">":{"ha":532,"x_min":0,"x_max":0,"o":"m 56 586 l 56 574 l 463 396 l 56 217 l 56 206 l 476 390 l 476 401 z "},"<":{"ha":531,"x_min":0,"x_max":0,"o":"m 475 586 l 56 401 l 56 390 l 475 206 l 475 217 l 69 396 l 475 574 z "},"≥":{"ha":531,"x_min":0,"x_max":0,"o":"m 56 97 l 475 97 l 475 108 l 56 108 z m 56 586 l 56 574 l 461 396 l 56 217 l 56 206 l 475 390 l 475 401 z "},"≤":{"ha":532,"x_min":0,"x_max":0,"o":"m 56 97 l 476 97 l 476 108 l 56 108 z m 476 586 l 56 401 l 56 390 l 476 206 l 476 217 l 69 396 l 476 574 z "},"±":{"ha":646,"x_min":0,"x_max":0,"o":"m 329 490 l 329 753 l 318 753 l 318 490 l 56 490 l 56 481 l 318 481 l 318 218 l 329 218 l 329 481 l 590 481 l 590 490 z m 56 97 l 590 97 l 590 108 l 56 108 z "},"Æ":{"ha":1233,"x_min":0,"x_max":0,"o":"m 1183 174 b 850 10 1118 89 1004 10 l 738 10 l 738 542 l 1088 511 l 1088 582 l 738 551 l 738 961 l 835 961 b 1139 814 989 961 1076 885 l 1146 818 l 1117 972 l 597 972 b 597 961 597 972 597 964 b 607 881 619 951 633 922 l 218 265 b 14 10 151 157 83 69 l 14 0 l 178 0 l 178 10 b 229 267 118 74 174 179 l 297 374 l 629 374 l 629 92 b 597 10 629 43 618 22 b 597 0 597 7 597 0 l 1161 0 l 1192 168 z m 629 383 l 303 383 l 629 899 z "},"Đ":{"ha":1036,"x_min":0,"x_max":0,"o":"m 438 972 l 90 972 b 90 961 90 972 90 964 b 121 881 111 949 121 929 l 121 492 l 0 492 l 0 481 l 121 481 l 121 92 b 90 10 121 43 111 22 b 90 0 90 7 90 0 l 438 0 b 994 486 760 0 994 211 b 438 972 994 760 760 972 z m 438 10 l 231 10 l 231 481 l 535 481 l 535 492 l 231 492 l 231 961 l 438 961 b 885 486 715 961 885 742 b 438 10 885 229 715 10 z "},"Œ":{"ha":1551,"x_min":0,"x_max":0,"o":"m 1501 174 b 1167 10 1436 89 1321 10 l 1056 10 l 1056 542 l 1406 511 l 1406 582 l 1056 551 l 1056 961 l 1153 961 b 1457 814 1306 961 1393 885 l 1464 818 l 1435 972 l 915 972 b 915 961 915 972 915 964 b 946 881 936 949 946 929 l 946 789 b 546 986 853 908 707 986 b 42 489 271 986 42 764 b 546 -8 42 215 271 -8 b 946 189 707 -8 853 69 l 946 92 b 915 10 946 43 936 22 b 915 0 915 7 915 0 l 1479 0 l 1510 168 z m 688 25 b 175 376 456 -46 250 131 b 404 953 100 621 172 882 b 917 603 636 1024 842 847 b 688 25 992 357 919 96 z "},"Ħ":{"ha":876,"x_min":0,"x_max":0,"o":"m 896 739 l 896 749 l 790 749 l 790 881 b 821 961 790 929 800 949 b 821 972 821 964 821 972 l 650 972 b 650 961 650 972 650 964 b 681 881 671 949 681 929 l 681 749 l 197 749 l 197 881 b 228 961 197 929 207 949 b 228 972 228 964 228 972 l 57 972 b 57 961 57 972 57 964 b 88 881 78 949 88 929 l 88 749 l -18 749 l -18 739 l 88 739 l 88 92 b 57 10 88 43 78 22 b 57 0 57 7 57 0 l 228 0 b 228 10 228 0 228 7 b 197 92 207 22 197 43 l 197 571 l 681 571 l 681 92 b 650 10 681 43 671 22 b 650 0 650 7 650 0 l 821 0 b 821 10 821 0 821 7 b 790 92 800 22 790 43 l 790 739 z m 681 581 l 197 581 l 197 739 l 681 739 z "},"Ŧ":{"ha":850,"x_min":0,"x_max":0,"o":"m 778 972 l 72 972 l 28 803 l 36 799 b 340 961 99 871 186 961 l 371 961 l 371 569 l 158 569 l 158 560 l 371 560 l 371 92 b 339 10 371 43 361 22 b 339 0 339 7 339 0 l 511 0 b 511 10 511 0 511 7 b 479 92 490 22 479 43 l 479 560 l 692 560 l 692 569 l 479 569 l 479 961 l 510 961 b 814 799 664 961 751 871 l 822 803 z "},"Ł":{"ha":785,"x_min":0,"x_max":0,"o":"m 749 174 b 415 10 683 89 568 10 l 289 10 l 289 313 l 551 422 l 551 433 l 289 324 l 289 881 b 319 961 289 929 299 949 b 319 972 319 964 319 972 l 147 972 b 147 961 147 972 147 964 b 179 881 169 949 179 929 l 179 278 l 56 226 l 56 215 l 179 267 l 179 92 b 147 10 179 43 169 22 b 147 0 147 7 147 0 l 726 0 l 757 168 z "},"Ø":{"ha":1092,"x_min":0,"x_max":0,"o":"m 903 839 l 1022 957 l 1014 965 l 896 846 b 546 986 804 932 681 986 b 42 489 272 986 42 764 b 189 140 42 353 99 229 l 71 21 l 78 14 l 197 132 b 546 -8 289 46 413 -8 b 1050 489 821 -8 1050 215 b 903 839 1050 625 994 749 z m 175 376 b 404 953 101 621 172 882 b 831 781 574 1006 731 924 l 256 206 b 175 376 222 257 194 314 z m 688 25 b 263 197 518 -26 363 54 l 836 772 b 917 603 871 722 899 664 b 688 25 992 357 919 96 z "},"Ŋ":{"ha":978,"x_min":0,"x_max":0,"o":"m 736 972 b 736 961 736 972 736 964 b 824 806 782 938 824 865 l 824 175 l 194 972 l 56 972 l 143 858 l 143 167 b 56 10 143 107 101 33 b 56 0 56 7 56 0 l 242 0 b 242 10 242 0 242 7 b 154 167 194 33 154 107 l 154 846 l 814 0 l 824 0 b 668 -215 824 -139 757 -217 b 560 -39 592 -214 546 -115 l 551 -31 l 444 -131 b 638 -229 478 -194 563 -229 b 835 0 769 -229 835 -147 l 835 806 b 922 961 835 865 876 938 b 922 972 922 964 922 972 z "},"Þ":{"ha":763,"x_min":0,"x_max":0,"o":"m 265 769 l 197 769 l 197 881 b 228 961 197 929 207 949 b 228 972 228 964 228 972 l 56 972 b 56 961 56 972 56 964 b 88 881 78 949 88 929 l 88 92 b 56 10 88 43 78 22 b 56 0 56 7 56 0 l 228 0 b 228 10 228 0 228 7 b 197 92 207 22 197 43 l 197 201 l 265 201 b 721 486 539 201 721 290 b 265 769 721 682 539 769 z m 265 213 l 197 213 l 197 758 l 265 758 b 611 486 515 758 611 650 b 265 213 611 322 515 213 z "},"ß":{"ha":1010,"x_min":0,"x_max":0,"o":"m 589 543 b 843 769 694 575 851 615 b 501 988 836 885 689 988 b 86 589 304 988 86 851 l 86 92 b 56 10 86 43 76 22 b 56 0 56 7 56 0 l 228 0 b 228 10 228 0 228 7 b 196 92 206 22 196 43 l 196 692 b 494 972 196 899 360 972 b 738 778 624 972 724 883 b 508 519 754 654 675 579 b 513 510 508 519 511 515 b 856 242 738 592 875 442 b 611 7 844 121 778 1 b 344 304 494 10 371 118 l 335 304 l 278 131 b 618 -8 357 53 486 -8 b 964 249 818 -8 946 128 b 589 543 999 464 797 592 z "},"æ":{"ha":1257,"x_min":0,"x_max":0,"o":"m 1074 449 b 1203 449 1074 449 1190 449 b 903 668 1183 617 1021 674 b 622 546 814 664 700 625 b 407 668 582 635 493 668 b 214 415 221 668 178 497 b 46 146 107 371 22 288 b 289 -8 63 46 175 -8 b 539 261 449 -8 528 117 b 921 -8 572 72 744 -8 b 1214 221 1118 -8 1204 122 b 1074 449 1225 349 1153 428 z m 840 651 b 1103 460 976 678 1085 581 l 660 460 b 840 651 685 554 744 635 z m 394 654 b 535 456 493 654 535 561 l 535 446 b 451 458 511 453 483 458 b 228 421 386 458 303 449 b 394 654 186 533 269 654 z m 322 10 b 154 126 253 6 172 51 b 450 446 94 371 300 446 b 535 433 494 446 528 436 l 535 333 b 322 10 535 190 488 22 z m 1200 218 b 964 22 1188 110 1083 28 b 665 226 822 17 718 81 b 657 449 642 293 639 375 l 1017 449 b 1200 218 1122 449 1218 363 z "},"œ":{"ha":1400,"x_min":0,"x_max":0,"o":"m 1218 449 l 1247 449 b 1347 449 1247 449 1333 449 b 1047 668 1328 617 1165 674 b 740 511 944 663 814 615 b 433 668 681 611 564 668 b 56 300 247 668 56 529 b 403 -8 56 106 217 -8 b 721 163 526 -8 650 56 b 1064 -7 786 44 922 -7 b 1357 221 1263 -7 1349 122 b 1218 449 1368 349 1297 428 z m 983 651 b 1246 460 1119 678 1228 581 l 804 460 b 983 651 829 554 889 635 z m 510 17 b 172 256 351 -29 221 89 b 326 643 124 424 168 597 b 664 404 485 690 615 571 b 510 17 713 236 668 63 z m 1344 218 b 1108 22 1332 110 1226 28 b 810 226 967 17 861 81 b 801 449 786 293 783 375 l 1161 449 b 1344 218 1265 449 1361 363 z "},"đ":{"ha":788,"x_min":0,"x_max":0,"o":"m 840 783 l 714 783 l 714 1001 l 704 1001 l 574 972 b 574 961 574 972 574 964 b 604 894 600 957 604 944 l 604 783 l 306 783 l 306 774 l 604 774 l 604 656 b 522 668 581 663 553 668 b 57 267 367 668 47 610 b 314 -8 61 90 200 -8 b 604 372 508 -8 579 211 l 604 0 l 714 0 l 746 0 b 746 10 746 0 746 7 b 714 92 724 22 714 43 l 714 774 l 840 774 z m 604 456 b 375 17 604 338 531 47 b 164 246 256 -6 171 125 b 521 661 144 601 388 658 b 604 649 565 661 597 650 z "},"ħ":{"ha":769,"x_min":0,"x_max":0,"o":"m 703 92 b 669 424 697 143 683 289 b 442 668 653 590 556 668 b 196 324 263 668 214 479 l 196 774 l 494 774 l 494 783 l 196 783 l 196 1001 l 186 1001 l 56 972 b 56 961 56 972 56 964 b 86 894 82 957 86 944 l 86 783 l -40 783 l -40 774 l 86 774 l 86 92 b 56 10 86 43 76 22 b 56 0 56 7 56 0 l 228 0 b 228 10 228 0 228 7 b 196 92 206 22 196 43 l 196 206 b 381 643 196 322 225 613 b 561 444 500 667 551 549 b 593 92 568 374 589 138 b 569 10 597 46 592 22 b 569 0 569 7 569 0 l 742 0 b 742 10 742 0 742 7 b 703 92 721 22 708 42 z "},"ŧ":{"ha":526,"x_min":0,"x_max":0,"o":"m 546 246 b 385 17 522 139 475 29 b 233 217 267 1 233 94 l 233 485 l 351 485 l 351 494 l 233 494 l 233 657 l 396 657 l 396 668 l 90 668 b 278 858 174 672 278 751 l 168 858 b 42 668 168 792 160 668 l 42 657 l 124 657 l 124 494 l 42 494 l 42 485 l 124 485 l 124 236 b 322 -8 124 72 200 -8 b 554 243 469 -8 528 113 z "},"ł":{"ha":357,"x_min":0,"x_max":0,"o":"m 371 531 l 371 544 l 226 472 l 226 1001 l 217 1001 l 86 972 b 86 961 86 972 86 964 b 117 894 113 957 117 944 l 117 419 l -28 349 l -28 335 l 117 406 l 117 92 b 86 10 117 43 107 22 b 86 0 86 7 86 0 l 257 0 b 257 10 257 0 257 7 b 226 92 236 22 226 43 l 226 460 z "},"ø":{"ha":829,"x_min":0,"x_max":0,"o":"m 682 583 l 788 689 l 781 696 l 675 590 b 436 668 611 640 526 668 b 60 300 250 668 60 529 b 160 76 60 204 99 128 l 56 -29 l 63 -36 l 168 69 b 407 -8 231 19 315 -8 b 783 360 593 -8 783 138 b 682 583 783 454 744 531 z m 176 256 b 329 643 128 424 171 597 b 610 526 444 678 546 624 l 226 143 b 176 256 206 176 188 215 z m 514 17 b 232 133 399 -17 297 38 l 617 518 b 667 404 638 483 654 446 b 514 17 715 236 672 63 z "},"ŋ":{"ha":747,"x_min":0,"x_max":0,"o":"m 715 -4 b 669 424 700 128 685 289 b 443 668 653 590 556 668 b 197 324 263 668 214 479 l 197 668 l 186 668 l 56 638 b 56 628 56 638 56 631 b 88 561 83 624 88 610 l 88 92 b 56 10 88 43 78 22 b 56 0 56 7 56 0 l 228 0 b 228 10 228 0 228 7 b 197 92 207 22 197 43 l 197 206 b 381 643 197 322 225 613 b 563 444 500 667 551 549 b 607 -19 569 374 599 75 b 517 -268 615 -114 625 -268 b 369 22 447 -268 396 -164 l 360 22 l 303 -136 b 511 -282 351 -212 408 -279 b 715 -4 640 -286 736 -189 z "},"þ":{"ha":788,"x_min":0,"x_max":0,"o":"m 486 668 b 196 288 292 668 221 449 l 196 1001 l 186 1001 l 56 972 b 56 961 56 972 56 964 b 86 894 82 957 86 944 l 86 -342 l 96 -342 l 226 -311 b 226 -301 226 -311 226 -304 b 196 -235 200 -297 196 -283 l 196 4 b 278 -8 219 -1 247 -8 b 744 394 433 -8 753 50 b 486 668 739 571 600 668 z m 279 0 b 196 13 235 -1 203 10 l 196 206 b 425 643 196 322 269 613 b 636 414 544 667 629 535 b 279 0 656 60 413 1 z "},"ð":{"ha":796,"x_min":0,"x_max":0,"o":"m 486 861 l 624 928 l 624 942 l 475 869 b 179 999 386 933 285 981 l 175 990 b 457 860 278 971 376 926 l 225 746 l 225 733 l 468 851 b 658 467 576 760 651 629 b 60 235 318 710 18 474 b 406 -8 79 114 206 -8 b 721 192 518 -8 667 46 b 486 861 815 447 690 704 z m 413 7 b 153 226 246 -7 161 101 b 660 458 139 433 319 658 b 413 7 660 253 585 21 z "},"£":{"ha":863,"x_min":0,"x_max":0,"o":"m 796 164 b 685 103 776 118 743 103 l 217 103 b 278 478 306 222 300 342 l 560 478 l 560 489 l 276 489 b 239 758 263 571 244 660 b 443 972 232 894 324 971 b 679 682 540 974 653 868 l 689 682 l 746 840 b 447 986 663 913 550 979 b 126 786 299 996 153 908 b 182 489 106 685 143 586 l 56 489 l 56 478 l 186 478 b 113 10 250 317 313 161 l 113 0 l 785 0 l 807 164 b 796 164 807 164 799 164 z "},"€":{"ha":1224,"x_min":0,"x_max":0,"o":"m 1158 281 b 856 40 1088 140 979 60 b 335 376 611 4 410 131 b 335 379 335 376 335 378 l 740 379 l 740 389 l 332 389 b 311 589 313 456 306 524 l 815 589 l 815 600 l 311 600 b 583 953 326 769 418 917 b 1032 711 767 993 931 872 l 1042 711 l 1083 871 b 725 986 967 949 876 986 b 215 600 489 986 271 821 l 56 600 l 56 589 l 213 589 b 201 489 206 557 201 524 b 213 389 201 456 206 422 l 56 389 l 56 379 l 215 379 b 714 -8 268 158 476 -8 b 1168 275 960 -8 1093 119 z "},"$":{"ha":833,"x_min":0,"x_max":0,"o":"m 778 274 b 456 578 778 460 610 519 l 456 968 b 724 711 556 958 650 886 l 733 711 l 775 856 b 469 986 693 919 576 986 b 456 986 464 986 460 986 l 456 1121 l 444 1121 l 444 985 b 157 733 240 975 157 842 b 444 440 157 561 301 497 l 444 24 b 107 289 286 42 172 158 l 97 289 l 56 129 b 432 -7 165 47 267 -7 b 444 -7 436 -7 440 -7 l 444 -149 l 456 -149 l 456 -7 b 778 274 640 1 778 115 z m 208 807 b 435 968 217 890 296 968 b 444 968 438 968 442 968 l 444 582 b 208 807 314 631 197 681 z m 490 21 b 456 22 478 21 467 21 l 456 436 b 717 183 597 381 735 331 b 490 21 706 97 608 21 z "},"¥":{"ha":947,"x_min":0,"x_max":0,"o":"m 728 972 l 728 961 b 726 751 778 919 785 882 l 538 350 l 315 768 b 299 961 263 867 264 925 l 299 972 l 56 972 l 56 961 b 176 825 99 925 146 882 b 436 339 204 774 404 397 l 228 339 l 228 328 l 440 328 l 440 225 l 228 225 l 228 214 l 440 214 l 440 92 b 408 10 440 43 431 24 b 408 0 408 7 408 0 l 581 0 b 581 10 581 0 581 7 b 549 92 560 24 549 43 l 549 214 l 763 214 l 763 225 l 549 225 l 549 328 l 763 328 l 763 339 l 549 339 l 549 346 l 726 728 b 892 961 797 878 828 907 l 892 972 z "},"¢":{"ha":792,"x_min":0,"x_max":0,"o":"m 728 347 b 493 172 706 308 631 186 b 401 176 461 169 431 171 l 401 813 b 654 635 517 811 624 708 l 663 635 l 683 750 b 421 824 611 788 500 824 b 401 822 415 824 408 824 l 401 971 l 392 971 l 392 822 b 57 471 242 808 50 696 b 392 149 63 264 219 160 l 392 1 l 401 1 l 401 149 b 446 149 417 147 431 149 b 736 343 611 158 693 265 z m 183 382 b 358 807 125 549 188 768 b 392 811 369 810 381 811 l 392 179 b 183 382 297 203 222 272 z "},"¤":{"ha":835,"x_min":0,"x_max":0,"o":"m 779 515 b 678 739 779 611 740 686 l 764 825 l 757 832 l 671 746 b 432 824 607 796 524 824 b 181 731 342 824 250 790 l 78 832 l 71 825 l 172 724 b 56 456 103 661 56 569 b 156 232 56 360 94 285 l 71 147 l 78 139 l 164 225 b 403 149 226 175 311 149 b 653 242 493 149 583 182 l 757 139 l 764 147 l 661 249 b 779 515 732 314 779 406 z m 510 172 b 172 413 351 126 221 244 b 325 800 124 579 167 753 b 663 560 483 846 614 726 b 510 172 711 393 668 218 z "},"₿":{"ha":889,"x_min":0,"x_max":0,"o":"m 847 261 b 507 519 847 431 671 503 b 788 742 651 536 786 592 b 497 965 786 894 644 949 l 497 1121 l 486 1121 l 486 967 b 378 972 450 971 413 972 l 292 972 l 292 1121 l 281 1121 l 281 972 l 56 972 b 56 961 56 972 56 964 b 86 881 76 949 86 929 l 86 92 b 56 10 86 43 76 24 b 56 0 56 7 56 0 l 281 0 l 281 -149 l 292 -149 l 292 0 l 438 0 b 486 1 453 0 469 0 l 486 -149 l 497 -149 l 497 3 b 847 261 664 15 847 86 z m 196 961 l 378 961 b 678 742 606 961 678 864 b 378 522 678 618 606 522 l 196 522 z m 438 10 l 196 10 l 196 511 l 438 511 b 738 261 665 511 738 383 b 438 10 738 138 665 10 z "},"`":{"ha":354,"x_min":0,"x_max":0,"o":"m 129 1006 b 64 1004 101 1031 76 1022 b 83 942 51 988 50 961 b 290 838 183 883 257 850 l 299 850 b 129 1006 272 875 215 929 z "},"Ą":{"ha":863,"x_min":0,"x_max":0,"o":"m 742 0 l 849 0 l 849 10 b 703 267 796 72 760 128 l 431 972 l 322 972 l 368 853 l 160 267 b 14 10 114 136 72 74 l 14 0 l 178 0 l 178 10 b 171 267 118 74 125 140 l 208 374 l 553 374 l 621 196 b 635 10 660 94 671 46 l 635 0 l 724 0 b 619 -229 633 -49 575 -161 b 779 -256 647 -271 717 -287 b 836 -208 801 -244 821 -225 l 829 -200 b 776 -240 815 -217 800 -232 b 665 -208 733 -254 690 -243 b 742 0 622 -147 657 -43 z m 213 383 l 374 839 l 549 383 z "},"˛":{"ha":343,"x_min":0,"x_max":0,"o":"m 282 -200 b 228 -240 267 -217 251 -232 b 117 -208 185 -254 142 -243 b 206 6 72 -144 113 -35 l 199 10 b 71 -229 96 -31 24 -156 b 231 -256 99 -271 168 -287 b 288 -208 253 -244 272 -225 z "},"¸":{"ha":353,"x_min":0,"x_max":0,"o":"m 122 -86 l 168 31 l 160 31 l 113 -94 b 113 -97 113 -94 113 -96 b 246 -183 207 -58 257 -107 b 164 -267 239 -225 217 -267 b 61 -224 124 -267 90 -251 l 56 -232 b 165 -276 82 -257 122 -276 b 296 -181 236 -276 290 -231 b 122 -86 306 -96 210 -46 z "},"Ç":{"ha":1050,"x_min":0,"x_max":0,"o":"m 554 -8 b 1008 275 800 -8 933 119 l 999 281 b 696 40 928 140 819 60 b 176 376 451 4 250 131 b 424 953 101 621 188 901 b 874 711 607 993 772 872 l 883 711 l 925 871 b 567 986 807 949 717 986 b 42 489 292 986 42 764 b 526 -7 42 224 264 7 l 493 -94 b 494 -97 493 -94 493 -96 b 626 -183 588 -58 638 -107 b 546 -267 621 -225 599 -267 b 442 -224 506 -267 471 -251 l 436 -232 b 547 -276 463 -257 503 -276 b 678 -181 618 -276 672 -231 b 504 -86 686 -96 592 -46 l 535 -7 b 554 -8 542 -7 547 -8 z "},"Ę":{"ha":692,"x_min":0,"x_max":0,"o":"m 643 -200 b 590 -240 628 -217 614 -232 b 479 -208 547 -254 503 -243 b 556 0 436 -147 471 -43 l 619 0 l 649 168 l 642 174 b 307 10 576 89 461 10 l 196 10 l 196 542 l 546 511 l 546 582 l 196 551 l 196 961 l 293 961 b 597 814 446 961 533 885 l 604 818 l 574 972 l 56 972 b 56 961 56 972 56 965 b 86 881 76 949 86 929 l 86 92 b 56 10 86 43 76 22 b 56 0 56 7 56 0 l 538 0 b 432 -229 447 -49 389 -161 b 593 -256 460 -271 531 -287 b 649 -208 615 -244 635 -225 z "},"Į":{"ha":283,"x_min":0,"x_max":0,"o":"m 250 -200 b 196 -240 235 -217 219 -232 b 85 -208 153 -254 110 -243 b 163 0 43 -147 76 -43 l 226 0 b 226 10 226 0 226 7 b 196 92 206 22 196 43 l 196 881 b 226 961 196 929 206 949 b 226 972 226 965 226 972 l 56 972 b 56 961 56 972 56 965 b 86 881 76 949 86 929 l 86 92 b 56 10 86 43 76 22 b 56 0 56 7 56 0 l 144 0 b 39 -229 53 -49 -6 -161 b 199 -256 67 -271 136 -287 b 256 -208 221 -244 240 -225 z "},"Ş":{"ha":806,"x_min":0,"x_max":0,"o":"m 764 274 b 194 807 764 622 168 529 b 419 968 203 890 282 968 b 710 711 529 968 631 897 l 719 711 l 761 856 b 456 986 679 919 563 986 b 142 733 232 986 142 846 b 703 183 142 385 739 479 b 476 19 692 96 594 19 b 93 289 293 19 164 146 l 83 289 l 42 129 b 413 -7 150 47 250 -7 l 379 -94 b 381 -97 379 -94 379 -96 b 513 -183 474 -58 524 -107 b 431 -267 507 -225 485 -267 b 328 -224 390 -267 357 -251 l 322 -232 b 432 -276 349 -257 389 -276 b 564 -181 503 -276 558 -231 b 390 -86 572 -96 476 -46 l 421 -8 b 764 274 617 -7 764 110 z "},"Ų":{"ha":915,"x_min":0,"x_max":0,"o":"m 688 972 b 688 961 688 972 688 965 b 790 790 756 951 790 868 l 790 328 b 515 8 790 171 686 22 b 196 360 314 -8 196 131 l 196 881 b 228 961 196 929 206 949 b 228 972 228 965 228 972 l 56 972 b 56 961 56 972 56 965 b 86 881 76 949 86 929 l 86 360 b 468 -8 86 107 260 -8 b 531 -3 490 -8 511 -6 b 429 -229 443 -51 386 -162 b 590 -256 457 -271 526 -287 b 646 -208 611 -244 632 -225 l 640 -200 b 588 -240 625 -217 611 -232 b 476 -208 543 -254 500 -243 b 563 4 432 -144 471 -35 b 801 328 707 43 801 167 l 801 806 b 860 961 801 865 815 938 b 860 972 860 965 860 972 z "},"ç":{"ha":765,"x_min":0,"x_max":0,"o":"m 446 -7 b 738 188 611 3 693 110 l 728 192 b 494 17 706 153 631 32 b 185 226 353 3 236 81 b 358 651 125 393 188 613 b 654 479 489 682 621 563 l 663 479 l 683 594 b 422 668 613 632 500 668 b 57 315 268 668 50 557 b 396 -7 63 107 222 1 l 363 -94 b 364 -97 363 -94 364 -96 b 496 -183 458 -58 507 -107 b 415 -267 490 -225 468 -267 b 313 -224 375 -267 342 -251 l 307 -232 b 417 -276 332 -257 374 -276 b 547 -181 488 -276 542 -231 b 374 -86 556 -96 461 -46 l 404 -7 b 446 -7 418 -7 432 -7 z "},"ę":{"ha":775,"x_min":0,"x_max":0,"o":"m 592 449 l 622 449 b 721 449 622 449 708 449 b 421 668 701 617 539 674 b 57 315 268 660 50 557 b 439 -7 63 86 247 -7 b 500 -1 461 -7 481 -6 b 397 -229 411 -51 354 -162 b 558 -256 425 -271 496 -287 b 614 -208 581 -244 600 -225 l 608 -200 b 556 -240 593 -217 579 -232 b 444 -208 513 -254 468 -243 b 531 4 400 -146 439 -36 b 732 221 664 38 725 139 b 592 449 743 349 671 429 z m 358 651 b 621 460 494 678 603 581 l 178 460 b 358 651 203 554 263 635 z m 719 218 b 482 22 706 110 601 28 b 183 226 340 17 236 81 b 175 449 160 293 157 375 l 535 449 b 719 218 640 449 736 363 z "},"į":{"ha":269,"x_min":0,"x_max":0,"o":"m 250 -200 b 197 -240 236 -217 221 -232 b 86 -208 154 -254 110 -243 b 163 0 43 -147 78 -43 l 226 0 b 226 10 226 0 226 7 b 196 92 206 22 196 43 l 196 668 l 185 668 l 54 639 b 54 628 54 639 54 631 b 86 561 82 624 86 610 l 86 92 b 54 10 86 43 76 22 b 54 0 54 7 54 0 l 144 0 b 40 -229 54 -49 -4 -161 b 200 -256 67 -271 138 -287 b 257 -208 222 -244 242 -225 z m 136 781 b 201 846 172 781 201 810 b 136 911 201 882 172 911 b 71 846 100 911 71 882 b 136 781 71 810 100 781 z "},"ş":{"ha":636,"x_min":0,"x_max":0,"o":"m 160 546 b 314 656 167 603 219 656 b 525 451 393 656 482 569 l 532 451 l 561 579 b 338 668 504 622 410 668 b 125 497 186 668 136 586 b 550 122 92 224 576 304 b 367 11 542 64 467 11 b 92 224 243 11 139 126 l 85 224 l 56 86 b 313 -7 126 32 207 -4 l 279 -94 b 281 -97 279 -94 279 -96 b 413 -183 374 -58 424 -107 b 331 -267 407 -225 385 -267 b 228 -224 290 -267 257 -251 l 222 -232 b 332 -276 249 -257 289 -276 b 463 -181 403 -276 457 -231 b 289 -86 472 -96 376 -46 l 319 -7 b 326 -8 322 -7 325 -8 b 593 183 482 -8 585 74 b 160 546 608 410 140 361 z "},"ų":{"ha":744,"x_min":0,"x_max":0,"o":"m 738 -200 b 683 -240 722 -217 707 -232 b 572 -208 640 -254 597 -243 b 650 0 531 -147 565 -43 l 703 0 b 703 10 703 0 703 7 b 672 92 682 22 672 43 l 672 668 l 663 668 l 531 639 b 531 628 531 639 531 631 b 563 561 558 624 563 610 l 563 454 b 378 17 563 338 533 47 b 196 217 258 -6 196 94 l 196 668 l 186 668 l 56 639 b 56 628 56 639 56 631 b 88 561 82 624 88 610 l 88 236 b 317 -8 88 72 188 -8 b 563 338 497 -8 544 181 l 563 0 l 632 0 b 526 -229 542 -49 482 -161 b 688 -256 554 -271 624 -287 b 743 -208 708 -244 728 -225 z "},"´":{"ha":354,"x_min":0,"x_max":0,"o":"m 290 1004 b 225 1006 278 1022 253 1031 b 56 850 139 929 82 875 l 64 838 b 271 942 97 850 171 883 b 290 1004 304 961 303 988 z "},"˝":{"ha":525,"x_min":0,"x_max":0,"o":"m 183 1014 b 56 824 118 919 75 856 l 67 814 b 243 964 96 833 160 883 b 249 1029 271 989 264 1015 b 183 1014 232 1043 206 1046 z m 454 1029 b 390 1014 439 1043 413 1046 b 263 824 325 919 282 856 l 274 814 b 450 964 301 833 367 883 b 454 1029 478 989 471 1015 z "},"¨":{"ha":475,"x_min":0,"x_max":0,"o":"m 115 919 b 56 858 82 919 56 892 b 115 797 56 825 82 797 b 176 858 150 797 176 825 b 115 919 176 892 150 919 z m 358 919 b 297 858 325 919 297 892 b 358 797 297 825 325 797 b 419 858 392 797 419 825 b 358 919 419 892 392 919 z "},"˘":{"ha":435,"x_min":0,"x_max":0,"o":"m 369 979 b 217 871 346 897 294 871 b 65 979 140 871 88 897 l 56 979 b 217 808 63 874 122 808 b 379 979 313 808 371 874 z "},"ˇ":{"ha":467,"x_min":0,"x_max":0,"o":"m 411 974 l 403 981 l 233 871 l 63 981 l 56 974 l 233 796 z "},"ˆ":{"ha":467,"x_min":0,"x_max":0,"o":"m 233 981 l 56 803 l 64 796 l 233 906 l 404 796 l 411 803 z "},"˚":{"ha":338,"x_min":0,"x_max":0,"o":"m 169 775 b 282 888 232 775 282 825 b 169 1001 282 951 232 1001 b 56 888 106 1001 56 951 b 169 775 56 825 106 775 z m 169 990 b 271 888 225 990 271 944 b 169 786 271 832 225 786 b 67 888 113 786 67 832 b 169 990 67 944 113 990 z "},"˙":{"ha":232,"x_min":0,"x_max":0,"o":"m 115 919 b 56 858 82 919 56 892 b 115 797 56 825 82 797 b 176 858 150 797 176 825 b 115 919 176 892 150 919 z "},"¯":{"ha":542,"x_min":0,"x_max":0,"o":"m 56 864 l 56 853 l 486 853 l 486 864 z "},"˜":{"ha":536,"x_min":0,"x_max":0,"o":"m 469 925 b 404 857 453 869 433 857 b 179 911 326 854 265 911 b 56 794 114 911 81 871 l 67 790 b 133 856 83 840 96 856 b 361 799 190 857 275 799 b 481 922 425 799 458 854 z "}," ":{"ha":319,"x_min":0,"x_max":0,"o":""},"Á":{"ha":863,"x_min":0,"x_max":0,"o":"m 849 10 b 703 267 796 72 760 128 l 432 972 l 322 972 l 368 853 l 160 267 b 14 10 114 136 74 72 l 14 0 l 178 0 l 178 10 b 171 267 119 72 126 140 l 208 372 l 553 372 l 621 196 b 635 10 660 94 671 46 l 635 0 l 849 0 z m 213 383 l 374 838 l 549 383 z m 528 1282 b 463 1283 515 1300 490 1308 b 293 1128 376 1207 319 1153 l 301 1115 b 508 1219 335 1128 408 1161 b 528 1282 542 1239 540 1265 z "},"Ă":{"ha":863,"x_min":0,"x_max":0,"o":"m 849 10 b 703 267 796 72 760 128 l 432 972 l 322 972 l 368 853 l 160 267 b 14 10 114 136 74 72 l 14 0 l 178 0 l 178 10 b 171 267 119 72 126 140 l 208 372 l 553 372 l 621 196 b 635 10 660 94 671 46 l 635 0 l 849 0 z m 213 383 l 374 838 l 549 383 z m 556 1257 b 403 1149 532 1175 481 1149 b 251 1257 326 1149 274 1175 l 242 1257 b 403 1086 249 1151 308 1086 b 565 1257 499 1086 557 1151 z "},"Â":{"ha":863,"x_min":0,"x_max":0,"o":"m 849 10 b 703 267 796 72 760 128 l 432 972 l 322 972 l 368 853 l 160 267 b 14 10 114 136 74 72 l 14 0 l 178 0 l 178 10 b 171 267 119 72 126 140 l 208 372 l 553 372 l 621 196 b 635 10 660 94 671 46 l 635 0 l 849 0 z m 213 383 l 374 838 l 549 383 z m 403 1258 l 225 1081 l 233 1074 l 403 1183 l 574 1074 l 581 1081 z "},"À":{"ha":863,"x_min":0,"x_max":0,"o":"m 849 10 b 703 267 796 72 760 128 l 432 972 l 322 972 l 368 853 l 160 267 b 14 10 114 136 74 72 l 14 0 l 178 0 l 178 10 b 171 267 119 72 126 140 l 208 372 l 553 372 l 621 196 b 635 10 660 94 671 46 l 635 0 l 849 0 z m 213 383 l 374 838 l 549 383 z m 317 1283 b 251 1282 289 1308 264 1300 b 271 1219 239 1265 238 1239 b 478 1115 371 1161 444 1128 l 486 1128 b 317 1283 460 1153 403 1207 z "},"Ä":{"ha":863,"x_min":0,"x_max":0,"o":"m 849 10 b 703 267 796 72 760 128 l 432 972 l 322 972 l 368 853 l 160 267 b 14 10 114 136 74 72 l 14 0 l 178 0 l 178 10 b 171 267 119 72 126 140 l 208 372 l 553 372 l 621 196 b 635 10 660 94 671 46 l 635 0 l 849 0 z m 213 383 l 374 838 l 549 383 z m 281 1197 b 221 1136 247 1197 221 1169 b 281 1075 221 1103 247 1075 b 342 1136 315 1075 342 1103 b 281 1197 342 1169 315 1197 z m 524 1197 b 463 1136 490 1197 463 1169 b 524 1075 463 1103 490 1075 b 585 1136 557 1075 585 1103 b 524 1197 585 1169 557 1197 z "},"Ā":{"ha":863,"x_min":0,"x_max":0,"o":"m 849 10 b 703 267 796 72 760 128 l 432 972 l 322 972 l 368 853 l 160 267 b 14 10 114 136 74 72 l 14 0 l 178 0 l 178 10 b 171 267 119 72 126 140 l 208 372 l 553 372 l 621 196 b 635 10 660 94 671 46 l 635 0 l 849 0 z m 213 383 l 374 838 l 549 383 z m 188 1142 l 188 1131 l 618 1131 l 618 1142 z "},"Å":{"ha":863,"x_min":0,"x_max":0,"o":"m 849 10 b 703 267 796 72 760 128 l 432 972 l 322 972 l 368 853 l 160 267 b 14 10 114 136 74 72 l 14 0 l 178 0 l 178 10 b 171 267 119 72 126 140 l 208 372 l 553 372 l 621 196 b 635 10 660 94 671 46 l 635 0 l 849 0 z m 213 383 l 374 838 l 549 383 z m 404 1053 b 517 1165 467 1053 517 1103 b 404 1279 517 1229 467 1279 b 290 1165 340 1279 290 1229 b 404 1053 290 1103 340 1053 z m 404 1268 b 506 1165 460 1268 506 1222 b 404 1064 506 1110 460 1064 b 301 1165 347 1064 301 1110 b 404 1268 301 1222 347 1268 z "},"Ã":{"ha":863,"x_min":0,"x_max":0,"o":"m 849 10 b 703 267 796 72 760 128 l 432 972 l 322 972 l 368 853 l 160 267 b 14 10 114 136 74 72 l 14 0 l 178 0 l 178 10 b 171 267 119 72 126 140 l 208 372 l 553 372 l 621 196 b 635 10 660 94 671 46 l 635 0 l 849 0 z m 213 383 l 374 838 l 549 383 z m 604 1203 b 539 1135 588 1147 568 1135 b 314 1189 461 1132 400 1189 b 190 1072 249 1189 215 1149 l 201 1068 b 268 1133 218 1118 231 1133 b 496 1076 325 1135 410 1076 b 615 1200 560 1076 593 1132 z "},"Ǽ":{"ha":1233,"x_min":0,"x_max":0,"o":"m 1183 174 b 850 10 1118 89 1004 10 l 738 10 l 738 542 l 1088 511 l 1088 582 l 738 551 l 738 961 l 835 961 b 1139 814 989 961 1076 885 l 1146 818 l 1117 972 l 597 972 b 597 961 597 972 597 964 b 607 881 619 951 633 922 l 218 265 b 14 10 151 157 83 69 l 14 0 l 178 0 l 178 10 b 229 267 118 74 174 179 l 297 374 l 629 374 l 629 92 b 597 10 629 43 618 22 b 597 0 597 7 597 0 l 1161 0 l 1192 168 z m 629 383 l 303 383 l 629 899 z m 949 1282 b 883 1283 936 1300 911 1308 b 714 1128 797 1207 740 1153 l 722 1115 b 929 1219 756 1128 829 1161 b 949 1282 963 1239 961 1265 z "},"Ć":{"ha":1049,"x_min":0,"x_max":0,"o":"m 997 279 b 694 40 926 140 819 58 b 175 375 450 3 250 131 b 424 953 100 621 186 901 b 872 711 606 992 771 872 l 882 711 l 924 869 b 565 986 806 947 715 986 b 42 489 290 986 42 764 b 553 -8 42 214 279 -8 b 1007 275 799 -8 932 119 z m 690 1282 b 625 1283 678 1300 653 1308 b 456 1128 539 1207 482 1153 l 464 1115 b 671 1219 497 1128 571 1161 b 690 1282 704 1239 703 1265 z "},"Č":{"ha":1049,"x_min":0,"x_max":0,"o":"m 997 279 b 694 40 926 140 819 58 b 175 375 450 3 250 131 b 424 953 100 621 186 901 b 872 711 606 992 771 872 l 882 711 l 924 869 b 565 986 806 947 715 986 b 42 489 290 986 42 764 b 553 -8 42 214 279 -8 b 1007 275 799 -8 932 119 z m 715 1251 l 707 1258 l 538 1149 l 367 1258 l 360 1251 l 538 1074 z "},"Ĉ":{"ha":1049,"x_min":0,"x_max":0,"o":"m 997 279 b 694 40 926 140 819 58 b 175 375 450 3 250 131 b 424 953 100 621 186 901 b 872 711 606 992 771 872 l 882 711 l 924 869 b 565 986 806 947 715 986 b 42 489 290 986 42 764 b 553 -8 42 214 279 -8 b 1007 275 799 -8 932 119 z m 551 1258 l 374 1081 l 382 1074 l 551 1183 l 722 1074 l 729 1081 z "},"Ċ":{"ha":1049,"x_min":0,"x_max":0,"o":"m 997 279 b 694 40 926 140 819 58 b 175 375 450 3 250 131 b 424 953 100 621 186 901 b 872 711 606 992 771 872 l 882 711 l 924 869 b 565 986 806 947 715 986 b 42 489 290 986 42 764 b 553 -8 42 214 279 -8 b 1007 275 799 -8 932 119 z m 551 1197 b 492 1136 518 1197 492 1169 b 551 1075 492 1103 518 1075 b 613 1136 586 1075 613 1103 b 551 1197 613 1169 586 1197 z "},"Ď":{"ha":1001,"x_min":0,"x_max":0,"o":"m 403 972 l 56 972 b 56 961 56 972 56 964 b 86 879 76 949 86 928 l 86 92 b 56 10 86 43 76 22 b 56 0 56 7 56 0 l 403 0 b 960 486 725 0 960 211 b 403 972 960 760 725 972 z m 403 10 l 196 10 l 196 961 l 403 961 b 850 486 681 961 850 742 b 403 10 850 229 681 10 z m 657 1251 l 649 1258 l 479 1149 l 308 1258 l 301 1251 l 479 1074 z "},"É":{"ha":692,"x_min":0,"x_max":0,"o":"m 642 174 b 308 10 576 89 461 10 l 196 10 l 196 540 l 546 511 l 546 582 l 196 551 l 196 961 l 293 961 b 597 813 447 961 533 885 l 604 818 l 575 972 l 56 972 b 56 961 56 972 56 964 b 86 879 76 949 86 928 l 86 92 b 56 10 86 43 76 22 b 56 0 56 7 56 0 l 619 0 l 650 168 z m 504 1282 b 439 1283 492 1300 467 1308 b 269 1128 353 1207 296 1153 l 278 1115 b 485 1219 311 1128 385 1161 b 504 1282 518 1239 517 1265 z "},"Ĕ":{"ha":692,"x_min":0,"x_max":0,"o":"m 642 174 b 308 10 576 89 461 10 l 196 10 l 196 540 l 546 511 l 546 582 l 196 551 l 196 961 l 293 961 b 597 813 447 961 533 885 l 604 818 l 575 972 l 56 972 b 56 961 56 972 56 964 b 86 879 76 949 86 928 l 86 92 b 56 10 86 43 76 22 b 56 0 56 7 56 0 l 619 0 l 650 168 z m 504 1257 b 351 1149 481 1175 429 1149 b 200 1257 275 1149 222 1175 l 190 1257 b 351 1086 197 1151 257 1086 b 514 1257 447 1086 506 1151 z "},"Ě":{"ha":692,"x_min":0,"x_max":0,"o":"m 642 174 b 308 10 576 89 461 10 l 196 10 l 196 540 l 546 511 l 546 582 l 196 551 l 196 961 l 293 961 b 597 813 447 961 533 885 l 604 818 l 575 972 l 56 972 b 56 961 56 972 56 964 b 86 879 76 949 86 928 l 86 92 b 56 10 86 43 76 22 b 56 0 56 7 56 0 l 619 0 l 650 168 z m 531 1251 l 522 1258 l 353 1149 l 182 1258 l 175 1251 l 353 1074 z "},"Ê":{"ha":692,"x_min":0,"x_max":0,"o":"m 642 174 b 308 10 576 89 461 10 l 196 10 l 196 540 l 546 511 l 546 582 l 196 551 l 196 961 l 293 961 b 597 813 447 961 533 885 l 604 818 l 575 972 l 56 972 b 56 961 56 972 56 964 b 86 879 76 949 86 928 l 86 92 b 56 10 86 43 76 22 b 56 0 56 7 56 0 l 619 0 l 650 168 z m 353 1258 l 175 1081 l 183 1074 l 353 1183 l 524 1074 l 531 1081 z "},"Ë":{"ha":692,"x_min":0,"x_max":0,"o":"m 642 174 b 308 10 576 89 461 10 l 196 10 l 196 540 l 546 511 l 546 582 l 196 551 l 196 961 l 293 961 b 597 813 447 961 533 885 l 604 818 l 575 972 l 56 972 b 56 961 56 972 56 964 b 86 879 76 949 86 928 l 86 92 b 56 10 86 43 76 22 b 56 0 56 7 56 0 l 619 0 l 650 168 z m 231 1197 b 171 1136 197 1197 171 1169 b 231 1075 171 1103 197 1075 b 292 1136 265 1075 292 1103 b 231 1197 292 1169 265 1197 z m 474 1197 b 413 1136 440 1197 413 1169 b 474 1075 413 1103 440 1075 b 535 1136 507 1075 535 1103 b 474 1197 535 1169 507 1197 z "},"Ė":{"ha":692,"x_min":0,"x_max":0,"o":"m 642 174 b 308 10 576 89 461 10 l 196 10 l 196 540 l 546 511 l 546 582 l 196 551 l 196 961 l 293 961 b 597 813 447 961 533 885 l 604 818 l 575 972 l 56 972 b 56 961 56 972 56 964 b 86 879 76 949 86 928 l 86 92 b 56 10 86 43 76 22 b 56 0 56 7 56 0 l 619 0 l 650 168 z m 351 1197 b 292 1136 318 1197 292 1169 b 351 1075 292 1103 318 1075 b 413 1136 386 1075 413 1103 b 351 1197 413 1169 386 1197 z "},"È":{"ha":692,"x_min":0,"x_max":0,"o":"m 642 174 b 308 10 576 89 461 10 l 196 10 l 196 540 l 546 511 l 546 582 l 196 551 l 196 961 l 293 961 b 597 813 447 961 533 885 l 604 818 l 575 972 l 56 972 b 56 961 56 972 56 964 b 86 879 76 949 86 928 l 86 92 b 56 10 86 43 76 22 b 56 0 56 7 56 0 l 619 0 l 650 168 z m 265 1283 b 200 1282 238 1308 213 1300 b 219 1219 188 1265 186 1239 b 426 1115 319 1161 393 1128 l 435 1128 b 265 1283 408 1153 351 1207 z "},"Ē":{"ha":692,"x_min":0,"x_max":0,"o":"m 642 174 b 308 10 576 89 461 10 l 196 10 l 196 540 l 546 511 l 546 582 l 196 551 l 196 961 l 293 961 b 597 813 447 961 533 885 l 604 818 l 575 972 l 56 972 b 56 961 56 972 56 964 b 86 879 76 949 86 928 l 86 92 b 56 10 86 43 76 22 b 56 0 56 7 56 0 l 619 0 l 650 168 z m 110 1142 l 110 1131 l 540 1131 l 540 1142 z "},"Ğ":{"ha":1060,"x_min":0,"x_max":0,"o":"m 764 463 b 764 451 764 463 764 460 b 871 310 832 447 871 394 l 871 125 b 679 25 825 75 763 36 b 175 375 432 -7 250 131 b 424 953 100 621 186 901 b 872 711 606 992 771 872 l 882 711 l 924 869 b 565 986 806 947 715 986 b 42 489 290 986 42 764 b 538 -8 42 214 264 -8 b 981 219 810 -8 943 139 l 981 369 b 1011 451 981 419 990 439 b 1011 463 1011 454 1011 463 z m 706 1257 b 553 1149 682 1175 631 1149 b 401 1257 476 1149 424 1175 l 392 1257 b 553 1086 399 1151 458 1086 b 715 1257 649 1086 707 1151 z "},"Ĝ":{"ha":1060,"x_min":0,"x_max":0,"o":"m 764 463 b 764 451 764 463 764 460 b 871 310 832 447 871 394 l 871 125 b 679 25 825 75 763 36 b 175 375 432 -7 250 131 b 424 953 100 621 186 901 b 872 711 606 992 771 872 l 882 711 l 924 869 b 565 986 806 947 715 986 b 42 489 290 986 42 764 b 538 -8 42 214 264 -8 b 981 219 810 -8 943 139 l 981 369 b 1011 451 981 419 990 439 b 1011 463 1011 454 1011 463 z m 554 1258 l 376 1081 l 385 1074 l 554 1183 l 725 1074 l 732 1081 z "},"":{"ha":231,"x_min":0,"x_max":0,"o":"m 115 -115 b 56 -175 82 -115 56 -142 b 115 -235 56 -207 82 -235 b 156 -218 131 -235 144 -228 b 71 -332 143 -261 114 -294 l 76 -337 b 175 -175 138 -287 175 -235 b 115 -115 175 -142 149 -115 z "},"Ģ":{"ha":1060,"x_min":0,"x_max":0,"o":"m 764 463 b 764 451 764 463 764 460 b 871 310 832 447 871 394 l 871 125 b 679 25 825 75 763 36 b 175 375 432 -7 250 131 b 424 953 100 621 186 901 b 872 711 606 992 771 872 l 882 711 l 924 869 b 565 986 806 947 715 986 b 42 489 290 986 42 764 b 538 -8 42 214 264 -8 b 981 219 810 -8 943 139 l 981 369 b 1011 451 981 419 990 439 b 1011 463 1011 454 1011 463 z m 554 -115 b 494 -175 521 -115 494 -142 b 554 -235 494 -207 521 -235 b 594 -218 569 -235 583 -228 b 510 -332 582 -261 553 -294 l 515 -337 b 614 -175 576 -287 614 -235 b 554 -115 614 -142 588 -115 z "},"Ġ":{"ha":1060,"x_min":0,"x_max":0,"o":"m 764 463 b 764 451 764 463 764 460 b 871 310 832 447 871 394 l 871 125 b 679 25 825 75 763 36 b 175 375 432 -7 250 131 b 424 953 100 621 186 901 b 872 711 606 992 771 872 l 882 711 l 924 869 b 565 986 806 947 715 986 b 42 489 290 986 42 764 b 538 -8 42 214 264 -8 b 981 219 810 -8 943 139 l 981 369 b 1011 451 981 419 990 439 b 1011 463 1011 454 1011 463 z m 553 1197 b 493 1136 519 1197 493 1169 b 553 1075 493 1103 519 1075 b 614 1136 588 1075 614 1103 b 553 1197 614 1169 588 1197 z "},"Ĥ":{"ha":876,"x_min":0,"x_max":0,"o":"m 821 961 b 821 972 821 964 821 972 l 649 972 b 649 961 649 972 649 964 b 681 879 671 949 681 928 l 681 581 l 197 581 l 197 879 b 228 961 197 928 207 949 b 228 972 228 964 228 972 l 56 972 b 56 961 56 972 56 964 b 88 879 78 949 88 928 l 88 92 b 56 10 88 43 78 22 b 56 0 56 7 56 0 l 228 0 b 228 10 228 0 228 7 b 197 92 207 22 197 43 l 197 571 l 681 571 l 681 92 b 649 10 681 43 671 22 b 649 0 649 7 649 0 l 821 0 b 821 10 821 0 821 7 b 790 92 800 22 790 43 l 790 879 b 821 961 790 928 800 949 z m 438 1258 l 260 1081 l 268 1074 l 438 1183 l 608 1074 l 615 1081 z "},"Í":{"ha":283,"x_min":0,"x_max":0,"o":"m 228 961 b 228 972 228 964 228 972 l 56 972 b 56 961 56 972 56 964 b 86 879 76 949 86 928 l 86 92 b 56 10 86 43 76 22 b 56 0 56 7 56 0 l 228 0 b 228 10 228 0 228 7 b 196 92 206 22 196 43 l 196 879 b 228 961 196 928 206 949 z m 281 1282 b 215 1283 268 1300 243 1308 b 46 1128 129 1207 72 1153 l 54 1115 b 261 1219 88 1128 161 1161 b 281 1282 294 1239 293 1265 z "},"Ĭ":{"ha":283,"x_min":0,"x_max":0,"o":"m 226 961 b 226 972 226 964 226 972 l 54 972 b 54 961 54 972 54 964 b 85 879 75 949 85 928 l 85 92 b 54 10 85 43 75 22 b 54 0 54 7 54 0 l 226 0 b 226 10 226 0 226 7 b 194 92 204 22 194 43 l 194 879 b 226 961 194 928 204 949 z m 293 1257 b 140 1149 269 1175 218 1149 b -11 1257 64 1149 11 1175 l -21 1257 b 140 1086 -14 1151 46 1086 b 303 1257 236 1086 294 1151 z "},"Î":{"ha":283,"x_min":0,"x_max":0,"o":"m 228 961 b 228 972 228 964 228 972 l 56 972 b 56 961 56 972 56 964 b 86 879 76 949 86 928 l 86 92 b 56 10 86 43 76 22 b 56 0 56 7 56 0 l 228 0 b 228 10 228 0 228 7 b 196 92 206 22 196 43 l 196 879 b 228 961 196 928 206 949 z m 142 1258 l -36 1081 l -28 1074 l 142 1183 l 313 1074 l 319 1081 z "},"Ï":{"ha":283,"x_min":0,"x_max":0,"o":"m 228 961 b 228 972 228 964 228 972 l 56 972 b 56 961 56 972 56 964 b 86 879 76 949 86 928 l 86 92 b 56 10 86 43 76 22 b 56 0 56 7 56 0 l 228 0 b 228 10 228 0 228 7 b 196 92 206 22 196 43 l 196 879 b 228 961 196 928 206 949 z m 19 1197 b -40 1136 -14 1197 -40 1169 b 19 1075 -40 1103 -14 1075 b 81 1136 54 1075 81 1103 b 19 1197 81 1169 54 1197 z m 263 1197 b 201 1136 229 1197 201 1169 b 263 1075 201 1103 229 1075 b 324 1136 296 1075 324 1103 b 263 1197 324 1169 296 1197 z "},"İ":{"ha":283,"x_min":0,"x_max":0,"o":"m 228 961 b 228 972 228 964 228 972 l 56 972 b 56 961 56 972 56 964 b 86 879 76 949 86 928 l 86 92 b 56 10 86 43 76 22 b 56 0 56 7 56 0 l 228 0 b 228 10 228 0 228 7 b 196 92 206 22 196 43 l 196 879 b 228 961 196 928 206 949 z m 140 1197 b 81 1136 107 1197 81 1169 b 140 1075 81 1103 107 1075 b 201 1136 175 1075 201 1103 b 140 1197 201 1169 175 1197 z "},"Ì":{"ha":283,"x_min":0,"x_max":0,"o":"m 229 961 b 229 972 229 964 229 972 l 57 972 b 57 961 57 972 57 964 b 88 879 78 949 88 928 l 88 92 b 57 10 88 43 78 22 b 57 0 57 7 57 0 l 229 0 b 229 10 229 0 229 7 b 197 92 207 22 197 43 l 197 879 b 229 961 197 928 207 949 z m 71 1283 b 6 1282 43 1308 18 1300 b 25 1219 -7 1265 -8 1239 b 232 1115 125 1161 199 1128 l 240 1128 b 71 1283 214 1153 157 1207 z "},"Ī":{"ha":283,"x_min":0,"x_max":0,"o":"m 228 961 b 228 972 228 964 228 972 l 56 972 b 56 961 56 972 56 964 b 86 879 76 949 86 928 l 86 92 b 56 10 86 43 76 22 b 56 0 56 7 56 0 l 228 0 b 228 10 228 0 228 7 b 196 92 206 22 196 43 l 196 879 b 228 961 196 928 206 949 z m -74 1142 l -74 1131 l 357 1131 l 357 1142 z "},"Ĩ":{"ha":283,"x_min":0,"x_max":0,"o":"m 228 961 b 228 972 228 964 228 972 l 56 972 b 56 961 56 972 56 964 b 86 879 76 949 86 928 l 86 92 b 56 10 86 43 76 22 b 56 0 56 7 56 0 l 228 0 b 228 10 228 0 228 7 b 196 92 206 22 196 43 l 196 879 b 228 961 196 928 206 949 z m 343 1203 b 278 1135 326 1147 307 1135 b 53 1189 200 1132 139 1189 b -71 1072 -12 1189 -46 1149 l -60 1068 b 7 1133 -43 1118 -31 1133 b 235 1076 64 1135 149 1076 b 354 1200 299 1076 332 1132 z "},"Ĳ":{"ha":554,"x_min":0,"x_max":0,"o":"m 228 961 b 228 972 228 964 228 972 l 56 972 b 56 961 56 972 56 964 b 86 879 76 949 86 928 l 86 92 b 56 10 86 43 76 22 b 56 0 56 7 56 0 l 228 0 b 228 10 228 0 228 7 b 196 92 206 22 196 43 l 196 879 b 228 961 196 928 206 949 z m 282 972 b 282 961 282 972 282 964 b 357 865 332 957 357 921 l 357 225 b 158 -129 357 -4 282 -74 l 163 -142 b 467 225 300 -94 467 -15 l 467 879 b 499 961 467 929 476 949 b 499 972 499 964 499 972 z "},"Ĵ":{"ha":340,"x_min":0,"x_max":0,"o":"m 68 972 b 68 961 68 972 68 964 b 143 865 118 957 143 921 l 143 225 b -56 -129 143 -4 68 -74 l -51 -142 b 253 225 86 -94 253 -15 l 253 879 b 285 961 253 929 263 949 b 285 972 285 964 285 972 z m 185 1258 l 7 1081 l 15 1074 l 185 1183 l 356 1074 l 363 1081 z "},"Ķ":{"ha":856,"x_min":0,"x_max":0,"o":"m 842 10 b 664 236 786 56 740 103 l 429 647 l 506 728 b 775 961 628 853 706 925 l 775 972 l 593 972 l 593 961 b 488 724 646 919 615 857 l 197 424 l 197 879 b 228 961 197 929 207 949 b 228 972 228 964 228 972 l 56 972 b 56 961 56 972 56 964 b 88 879 78 949 88 929 l 88 92 b 56 10 88 43 78 22 b 56 0 56 7 56 0 l 228 0 b 228 10 228 0 228 7 b 197 92 207 22 197 43 l 197 410 l 356 572 l 572 190 b 621 10 628 96 656 46 l 621 0 l 842 0 z m 421 -115 b 361 -175 388 -115 361 -142 b 421 -235 361 -207 388 -235 b 461 -218 436 -235 450 -228 b 376 -332 449 -261 419 -294 l 382 -337 b 481 -175 443 -287 481 -235 b 421 -115 481 -142 454 -115 z "},"Ĺ":{"ha":693,"x_min":0,"x_max":0,"o":"m 657 174 b 324 10 592 89 478 10 l 197 10 l 197 879 b 228 961 197 929 207 949 b 228 972 228 964 228 972 l 56 972 b 56 961 56 972 56 964 b 88 879 78 949 88 929 l 88 92 b 56 10 88 43 78 22 b 56 0 56 7 56 0 l 635 0 l 665 168 z m 332 1282 b 267 1283 319 1300 294 1308 b 97 1128 181 1207 124 1153 l 106 1115 b 313 1219 139 1128 213 1161 b 332 1282 346 1239 344 1265 z "},"Ľ":{"ha":693,"x_min":0,"x_max":0,"o":"m 657 174 b 324 10 592 89 478 10 l 197 10 l 197 879 b 228 961 197 929 207 949 b 228 972 228 964 228 972 l 56 972 b 56 961 56 972 56 964 b 88 879 78 949 88 929 l 88 92 b 56 10 88 43 78 22 b 56 0 56 7 56 0 l 635 0 l 665 168 z m 432 986 b 356 910 390 986 356 951 b 432 835 356 869 390 835 b 482 856 451 835 468 843 b 375 713 465 801 429 760 l 382 706 b 507 910 460 768 507 835 b 432 986 507 951 472 986 z "},"Ļ":{"ha":693,"x_min":0,"x_max":0,"o":"m 657 174 b 324 10 592 89 478 10 l 197 10 l 197 879 b 228 961 197 929 207 949 b 228 972 228 964 228 972 l 56 972 b 56 961 56 972 56 964 b 88 879 78 949 88 929 l 88 92 b 56 10 88 43 78 22 b 56 0 56 7 56 0 l 635 0 l 665 168 z m 346 -115 b 286 -175 313 -115 286 -142 b 346 -235 286 -207 313 -235 b 386 -218 361 -235 375 -228 b 301 -332 374 -261 344 -294 l 307 -337 b 406 -175 368 -287 406 -235 b 346 -115 406 -142 379 -115 z "},"Ŀ":{"ha":693,"x_min":0,"x_max":0,"o":"m 436 469 b 376 408 403 469 376 442 b 436 347 376 375 403 347 b 497 408 471 347 497 375 b 436 469 497 442 471 469 z m 657 174 b 324 10 592 89 478 10 l 197 10 l 197 879 b 228 961 197 929 207 949 b 228 972 228 964 228 972 l 56 972 b 56 961 56 972 56 964 b 88 879 78 949 88 929 l 88 92 b 56 10 88 43 78 22 b 56 0 56 7 56 0 l 635 0 l 665 168 z "},"Ń":{"ha":979,"x_min":0,"x_max":0,"o":"m 738 972 b 738 961 738 972 738 964 b 825 806 783 938 825 865 l 825 175 l 196 972 l 56 972 l 144 858 l 144 167 b 56 10 144 107 103 33 b 56 0 56 7 56 0 l 243 0 b 243 10 243 0 243 7 b 154 167 196 33 154 107 l 154 846 l 815 0 l 836 0 l 836 806 b 924 961 836 865 878 938 b 924 972 924 964 924 972 z m 628 1282 b 563 1283 615 1300 590 1308 b 393 1128 476 1207 419 1153 l 401 1115 b 608 1219 435 1128 508 1161 b 628 1282 642 1239 640 1265 z "},"Ň":{"ha":979,"x_min":0,"x_max":0,"o":"m 738 972 b 738 961 738 972 738 964 b 825 806 783 938 825 865 l 825 175 l 196 972 l 56 972 l 144 858 l 144 167 b 56 10 144 107 103 33 b 56 0 56 7 56 0 l 243 0 b 243 10 243 0 243 7 b 154 167 196 33 154 107 l 154 846 l 815 0 l 836 0 l 836 806 b 924 961 836 865 878 938 b 924 972 924 964 924 972 z m 681 1251 l 672 1258 l 503 1149 l 332 1258 l 325 1251 l 503 1074 z "},"Ņ":{"ha":979,"x_min":0,"x_max":0,"o":"m 738 972 b 738 961 738 972 738 964 b 825 806 783 938 825 865 l 825 175 l 196 972 l 56 972 l 144 858 l 144 167 b 56 10 144 107 103 33 b 56 0 56 7 56 0 l 243 0 b 243 10 243 0 243 7 b 154 167 196 33 154 107 l 154 846 l 815 0 l 836 0 l 836 806 b 924 961 836 865 878 938 b 924 972 924 964 924 972 z m 489 -115 b 429 -175 456 -115 429 -142 b 489 -235 429 -207 456 -235 b 529 -218 504 -235 518 -228 b 444 -332 517 -261 488 -294 l 450 -337 b 549 -175 511 -287 549 -235 b 489 -115 549 -142 522 -115 z "},"Ñ":{"ha":979,"x_min":0,"x_max":0,"o":"m 738 972 b 738 961 738 972 738 964 b 825 806 783 938 825 865 l 825 175 l 196 972 l 56 972 l 144 858 l 144 167 b 56 10 144 107 103 33 b 56 0 56 7 56 0 l 243 0 b 243 10 243 0 243 7 b 154 167 196 33 154 107 l 154 846 l 815 0 l 836 0 l 836 806 b 924 961 836 865 878 938 b 924 972 924 964 924 972 z m 704 1203 b 639 1135 688 1147 668 1135 b 414 1189 561 1132 500 1189 b 290 1072 349 1189 315 1149 l 301 1068 b 368 1133 318 1118 331 1133 b 596 1076 425 1135 510 1076 b 715 1200 660 1076 693 1132 z "},"Ó":{"ha":1092,"x_min":0,"x_max":0,"o":"m 546 986 b 42 489 271 986 42 764 b 546 -8 42 215 271 -8 b 1050 489 821 -8 1050 215 b 546 986 1050 764 821 986 z m 688 25 b 175 376 456 -46 250 131 b 404 953 100 621 172 882 b 917 603 636 1024 842 847 b 688 25 992 357 919 96 z m 683 1282 b 618 1283 671 1300 646 1308 b 449 1128 532 1207 475 1153 l 457 1115 b 664 1219 490 1128 564 1161 b 683 1282 697 1239 696 1265 z "},"Ŏ":{"ha":1092,"x_min":0,"x_max":0,"o":"m 546 986 b 42 489 271 986 42 764 b 546 -8 42 215 271 -8 b 1050 489 821 -8 1050 215 b 546 986 1050 764 821 986 z m 688 25 b 175 376 456 -46 250 131 b 404 953 100 621 172 882 b 917 603 636 1024 842 847 b 688 25 992 357 919 96 z m 697 1257 b 544 1149 674 1175 622 1149 b 393 1257 468 1149 415 1175 l 383 1257 b 544 1086 390 1151 450 1086 b 707 1257 640 1086 699 1151 z "},"Ô":{"ha":1092,"x_min":0,"x_max":0,"o":"m 546 986 b 42 489 271 986 42 764 b 546 -8 42 215 271 -8 b 1050 489 821 -8 1050 215 b 546 986 1050 764 821 986 z m 688 25 b 175 376 456 -46 250 131 b 404 953 100 621 172 882 b 917 603 636 1024 842 847 b 688 25 992 357 919 96 z m 546 1258 l 368 1081 l 376 1074 l 546 1183 l 717 1074 l 724 1081 z "},"Ö":{"ha":1092,"x_min":0,"x_max":0,"o":"m 546 986 b 42 489 271 986 42 764 b 546 -8 42 215 271 -8 b 1050 489 821 -8 1050 215 b 546 986 1050 764 821 986 z m 688 25 b 175 376 456 -46 250 131 b 404 953 100 621 172 882 b 917 603 636 1024 842 847 b 688 25 992 357 919 96 z m 424 1197 b 364 1136 390 1197 364 1169 b 424 1075 364 1103 390 1075 b 485 1136 458 1075 485 1103 b 424 1197 485 1169 458 1197 z m 667 1197 b 606 1136 633 1197 606 1169 b 667 1075 606 1103 633 1075 b 728 1136 700 1075 728 1103 b 667 1197 728 1169 700 1197 z "},"Ò":{"ha":1092,"x_min":0,"x_max":0,"o":"m 546 986 b 42 489 271 986 42 764 b 546 -8 42 215 271 -8 b 1050 489 821 -8 1050 215 b 546 986 1050 764 821 986 z m 688 25 b 175 376 456 -46 250 131 b 404 953 100 621 172 882 b 917 603 636 1024 842 847 b 688 25 992 357 919 96 z m 472 1283 b 407 1282 444 1308 419 1300 b 426 1219 394 1265 393 1239 b 633 1115 526 1161 600 1128 l 642 1128 b 472 1283 615 1153 558 1207 z "},"Ő":{"ha":1092,"x_min":0,"x_max":0,"o":"m 546 986 b 42 489 271 986 42 764 b 546 -8 42 215 271 -8 b 1050 489 821 -8 1050 215 b 546 986 1050 764 821 986 z m 688 25 b 175 376 456 -46 250 131 b 404 953 100 621 172 882 b 917 603 636 1024 842 847 b 688 25 992 357 919 96 z m 518 1292 b 390 1101 453 1197 410 1133 l 401 1092 b 578 1242 431 1111 494 1161 b 583 1307 606 1267 599 1293 b 518 1292 567 1321 540 1324 z m 789 1307 b 725 1292 774 1321 747 1324 b 597 1101 660 1197 617 1133 l 608 1092 b 785 1242 636 1111 701 1161 b 789 1307 813 1267 806 1293 z "},"Ō":{"ha":1092,"x_min":0,"x_max":0,"o":"m 546 986 b 42 489 271 986 42 764 b 546 -8 42 215 271 -8 b 1050 489 821 -8 1050 215 b 546 986 1050 764 821 986 z m 688 25 b 175 376 456 -46 250 131 b 404 953 100 621 172 882 b 917 603 636 1024 842 847 b 688 25 992 357 919 96 z m 331 1142 l 331 1131 l 761 1131 l 761 1142 z "},"Ǿ":{"ha":1092,"x_min":0,"x_max":0,"o":"m 903 839 l 1022 957 l 1014 965 l 896 846 b 546 986 804 932 681 986 b 42 489 272 986 42 764 b 189 140 42 353 99 229 l 71 21 l 78 14 l 197 132 b 546 -8 289 46 413 -8 b 1050 489 821 -8 1050 215 b 903 839 1050 625 994 749 z m 175 376 b 404 953 101 621 172 882 b 831 781 574 1006 731 924 l 256 206 b 175 376 222 257 194 314 z m 688 25 b 263 197 518 -26 363 54 l 836 772 b 917 603 871 722 899 664 b 688 25 992 357 919 96 z m 683 1282 b 618 1283 671 1300 646 1308 b 449 1128 532 1207 475 1153 l 457 1115 b 664 1219 490 1128 564 1161 b 683 1282 697 1239 696 1265 z "},"Õ":{"ha":1092,"x_min":0,"x_max":0,"o":"m 546 986 b 42 489 271 986 42 764 b 546 -8 42 215 271 -8 b 1050 489 821 -8 1050 215 b 546 986 1050 764 821 986 z m 688 25 b 175 376 456 -46 250 131 b 404 953 100 621 172 882 b 917 603 636 1024 842 847 b 688 25 992 357 919 96 z m 747 1203 b 682 1135 731 1147 711 1135 b 457 1189 604 1132 543 1189 b 333 1072 392 1189 358 1149 l 344 1068 b 411 1133 361 1118 374 1133 b 639 1076 468 1135 553 1076 b 758 1200 703 1076 736 1132 z "},"Ŕ":{"ha":811,"x_min":0,"x_max":0,"o":"m 617 249 l 492 468 b 735 710 631 500 735 579 b 325 972 735 892 540 972 l 56 972 b 56 961 56 972 56 964 b 86 879 76 949 86 929 l 86 92 b 56 10 86 43 76 22 b 56 0 56 7 56 0 l 226 0 b 226 10 226 0 226 7 b 196 92 206 22 196 43 l 196 449 l 325 449 b 388 451 346 449 367 450 l 536 192 b 583 10 590 96 619 46 l 583 0 l 797 0 l 797 10 b 617 249 743 58 699 106 z m 325 460 l 196 460 l 196 961 l 325 961 b 625 710 589 961 625 818 b 325 460 625 603 588 460 z m 536 1282 b 471 1283 524 1300 499 1308 b 301 1128 385 1207 328 1153 l 310 1115 b 517 1219 343 1128 417 1161 b 536 1282 550 1239 549 1265 z "},"Ř":{"ha":811,"x_min":0,"x_max":0,"o":"m 617 249 l 492 468 b 735 710 631 500 735 579 b 325 972 735 892 540 972 l 56 972 b 56 961 56 972 56 964 b 86 879 76 949 86 929 l 86 92 b 56 10 86 43 76 22 b 56 0 56 7 56 0 l 226 0 b 226 10 226 0 226 7 b 196 92 206 22 196 43 l 196 449 l 325 449 b 388 451 346 449 367 450 l 536 192 b 583 10 590 96 619 46 l 583 0 l 797 0 l 797 10 b 617 249 743 58 699 106 z m 325 460 l 196 460 l 196 961 l 325 961 b 625 710 589 961 625 818 b 325 460 625 603 588 460 z m 549 1251 l 540 1258 l 371 1149 l 200 1258 l 193 1251 l 371 1074 z "},"Ŗ":{"ha":811,"x_min":0,"x_max":0,"o":"m 617 249 l 492 468 b 735 710 631 500 735 579 b 325 972 735 892 540 972 l 56 972 b 56 961 56 972 56 964 b 86 879 76 949 86 929 l 86 92 b 56 10 86 43 76 22 b 56 0 56 7 56 0 l 226 0 b 226 10 226 0 226 7 b 196 92 206 22 196 43 l 196 449 l 325 449 b 388 451 346 449 367 450 l 536 192 b 583 10 590 96 619 46 l 583 0 l 797 0 l 797 10 b 617 249 743 58 699 106 z m 325 460 l 196 460 l 196 961 l 325 961 b 625 710 589 961 625 818 b 325 460 625 603 588 460 z m 413 -115 b 353 -175 379 -115 353 -142 b 413 -235 353 -207 379 -235 b 453 -218 428 -235 442 -228 b 368 -332 440 -261 411 -294 l 374 -337 b 472 -175 435 -287 472 -235 b 413 -115 472 -142 446 -115 z "},"Ś":{"ha":806,"x_min":0,"x_max":0,"o":"m 456 986 b 142 733 232 986 142 846 b 703 183 142 385 739 479 b 475 19 692 96 593 19 b 93 288 293 19 164 146 l 83 288 l 42 129 b 418 -8 150 47 253 -8 b 764 274 615 -8 764 108 b 194 807 764 621 168 529 b 419 968 203 890 282 968 b 710 711 529 968 631 897 l 719 711 l 761 856 b 456 986 679 919 563 986 z m 554 1282 b 489 1283 542 1300 517 1308 b 319 1128 403 1207 346 1153 l 328 1115 b 535 1219 361 1128 435 1161 b 554 1282 568 1239 567 1265 z "},"Š":{"ha":806,"x_min":0,"x_max":0,"o":"m 456 986 b 142 733 232 986 142 846 b 703 183 142 385 739 479 b 475 19 692 96 593 19 b 93 288 293 19 164 146 l 83 288 l 42 129 b 418 -8 150 47 253 -8 b 764 274 615 -8 764 108 b 194 807 764 621 168 529 b 419 968 203 890 282 968 b 710 711 529 968 631 897 l 719 711 l 761 856 b 456 986 679 919 563 986 z m 594 1251 l 586 1258 l 417 1149 l 246 1258 l 239 1251 l 417 1074 z "},"Ŝ":{"ha":806,"x_min":0,"x_max":0,"o":"m 456 986 b 142 733 232 986 142 846 b 703 183 142 385 739 479 b 475 19 692 96 593 19 b 93 288 293 19 164 146 l 83 288 l 42 129 b 418 -8 150 47 253 -8 b 764 274 615 -8 764 108 b 194 807 764 621 168 529 b 419 968 203 890 282 968 b 710 711 529 968 631 897 l 719 711 l 761 856 b 456 986 679 919 563 986 z m 431 1258 l 253 1081 l 261 1074 l 431 1183 l 601 1074 l 608 1081 z "},"Ș":{"ha":806,"x_min":0,"x_max":0,"o":"m 456 986 b 142 733 232 986 142 846 b 703 183 142 385 739 479 b 475 19 692 96 593 19 b 93 288 293 19 164 146 l 83 288 l 42 129 b 418 -8 150 47 253 -8 b 764 274 615 -8 764 108 b 194 807 764 621 168 529 b 419 968 203 890 282 968 b 710 711 529 968 631 897 l 719 711 l 761 856 b 456 986 679 919 563 986 z m 440 -115 b 381 -175 407 -115 381 -142 b 440 -235 381 -207 407 -235 b 481 -218 456 -235 469 -228 b 396 -332 468 -261 439 -294 l 401 -337 b 500 -175 463 -287 500 -235 b 440 -115 500 -142 474 -115 z "},"Ť":{"ha":850,"x_min":0,"x_max":0,"o":"m 778 972 l 72 972 l 28 803 l 36 799 b 340 961 99 869 186 961 l 371 961 l 371 92 b 339 10 371 43 360 22 b 339 0 339 7 339 0 l 511 0 b 511 10 511 0 511 7 b 479 92 490 22 479 43 l 479 961 l 510 961 b 814 799 664 961 751 869 l 822 803 z m 603 1251 l 594 1258 l 425 1149 l 254 1258 l 247 1251 l 425 1074 z "},"Ţ":{"ha":850,"x_min":0,"x_max":0,"o":"m 778 972 l 72 972 l 28 803 l 36 799 b 340 961 99 869 186 961 l 371 961 l 371 92 b 339 10 371 43 360 22 b 339 0 339 7 339 0 l 511 0 b 511 10 511 0 511 7 b 479 92 490 22 479 43 l 479 961 l 510 961 b 814 799 664 961 751 869 l 822 803 z m 425 -115 b 365 -175 392 -115 365 -142 b 425 -235 365 -207 392 -235 b 465 -218 440 -235 454 -228 b 381 -332 453 -261 424 -294 l 386 -337 b 485 -175 447 -287 485 -235 b 425 -115 485 -142 458 -115 z "},"Ú":{"ha":915,"x_min":0,"x_max":0,"o":"m 688 972 b 688 961 688 972 688 964 b 792 790 756 951 792 867 l 792 326 b 517 8 792 171 688 22 b 197 360 315 -8 197 131 l 197 879 b 228 961 197 929 207 949 b 228 972 228 964 228 972 l 56 972 b 56 961 56 972 56 964 b 88 879 78 949 88 929 l 88 360 b 468 -8 88 107 261 -8 b 801 326 664 -8 801 133 l 801 806 b 860 961 801 865 815 938 b 860 972 860 964 860 972 z m 596 1282 b 531 1283 583 1300 558 1308 b 361 1128 444 1207 388 1153 l 369 1115 b 576 1219 403 1128 476 1161 b 596 1282 610 1239 608 1265 z "},"Ŭ":{"ha":915,"x_min":0,"x_max":0,"o":"m 688 972 b 688 961 688 972 688 964 b 792 790 756 951 792 867 l 792 326 b 517 8 792 171 688 22 b 197 360 315 -8 197 131 l 197 879 b 228 961 197 929 207 949 b 228 972 228 964 228 972 l 56 972 b 56 961 56 972 56 964 b 88 879 78 949 88 929 l 88 360 b 468 -8 88 107 261 -8 b 801 326 664 -8 801 133 l 801 806 b 860 961 801 865 815 938 b 860 972 860 964 860 972 z m 610 1257 b 457 1149 586 1175 535 1149 b 306 1257 381 1149 328 1175 l 296 1257 b 457 1086 303 1151 363 1086 b 619 1257 553 1086 611 1151 z "},"Û":{"ha":915,"x_min":0,"x_max":0,"o":"m 688 972 b 688 961 688 972 688 964 b 792 790 756 951 792 867 l 792 326 b 517 8 792 171 688 22 b 197 360 315 -8 197 131 l 197 879 b 228 961 197 929 207 949 b 228 972 228 964 228 972 l 56 972 b 56 961 56 972 56 964 b 88 879 78 949 88 929 l 88 360 b 468 -8 88 107 261 -8 b 801 326 664 -8 801 133 l 801 806 b 860 961 801 865 815 938 b 860 972 860 964 860 972 z m 471 1258 l 293 1081 l 301 1074 l 471 1183 l 642 1074 l 649 1081 z "},"Ü":{"ha":915,"x_min":0,"x_max":0,"o":"m 688 972 b 688 961 688 972 688 964 b 792 790 756 951 792 867 l 792 326 b 517 8 792 171 688 22 b 197 360 315 -8 197 131 l 197 879 b 228 961 197 929 207 949 b 228 972 228 964 228 972 l 56 972 b 56 961 56 972 56 964 b 88 879 78 949 88 929 l 88 360 b 468 -8 88 107 261 -8 b 801 326 664 -8 801 133 l 801 806 b 860 961 801 865 815 938 b 860 972 860 964 860 972 z m 349 1197 b 289 1136 315 1197 289 1169 b 349 1075 289 1103 315 1075 b 410 1136 383 1075 410 1103 b 349 1197 410 1169 383 1197 z m 592 1197 b 531 1136 558 1197 531 1169 b 592 1075 531 1103 558 1075 b 653 1136 625 1075 653 1103 b 592 1197 653 1169 625 1197 z "},"Ù":{"ha":915,"x_min":0,"x_max":0,"o":"m 688 972 b 688 961 688 972 688 964 b 792 790 756 951 792 867 l 792 326 b 517 8 792 171 688 22 b 197 360 315 -8 197 131 l 197 879 b 228 961 197 929 207 949 b 228 972 228 964 228 972 l 56 972 b 56 961 56 972 56 964 b 88 879 78 949 88 929 l 88 360 b 468 -8 88 107 261 -8 b 801 326 664 -8 801 133 l 801 806 b 860 961 801 865 815 938 b 860 972 860 964 860 972 z m 399 1283 b 333 1282 371 1308 346 1300 b 353 1219 321 1265 319 1239 b 560 1115 453 1161 526 1128 l 568 1128 b 399 1283 542 1153 485 1207 z "},"Ű":{"ha":915,"x_min":0,"x_max":0,"o":"m 688 972 b 688 961 688 972 688 964 b 792 790 756 951 792 867 l 792 326 b 517 8 792 171 688 22 b 197 360 315 -8 197 131 l 197 879 b 228 961 197 929 207 949 b 228 972 228 964 228 972 l 56 972 b 56 961 56 972 56 964 b 88 879 78 949 88 929 l 88 360 b 468 -8 88 107 261 -8 b 801 326 664 -8 801 133 l 801 806 b 860 961 801 865 815 938 b 860 972 860 964 860 972 z m 443 1292 b 315 1101 378 1197 335 1133 l 326 1092 b 503 1242 356 1111 419 1161 b 508 1307 531 1267 524 1293 b 443 1292 492 1321 465 1324 z m 714 1307 b 650 1292 699 1321 672 1324 b 522 1101 585 1197 542 1133 l 533 1092 b 710 1242 561 1111 626 1161 b 714 1307 738 1267 731 1293 z "},"Ū":{"ha":915,"x_min":0,"x_max":0,"o":"m 688 972 b 688 961 688 972 688 964 b 792 790 756 951 792 867 l 792 326 b 517 8 792 171 688 22 b 197 360 315 -8 197 131 l 197 879 b 228 961 197 929 207 949 b 228 972 228 964 228 972 l 56 972 b 56 961 56 972 56 964 b 88 879 78 949 88 929 l 88 360 b 468 -8 88 107 261 -8 b 801 326 664 -8 801 133 l 801 806 b 860 961 801 865 815 938 b 860 972 860 964 860 972 z m 269 1142 l 269 1131 l 700 1131 l 700 1142 z "},"Ů":{"ha":915,"x_min":0,"x_max":0,"o":"m 688 972 b 688 961 688 972 688 964 b 792 790 756 951 792 867 l 792 326 b 517 8 792 171 688 22 b 197 360 315 -8 197 131 l 197 879 b 228 961 197 929 207 949 b 228 972 228 964 228 972 l 56 972 b 56 961 56 972 56 964 b 88 879 78 949 88 929 l 88 360 b 468 -8 88 107 261 -8 b 801 326 664 -8 801 133 l 801 806 b 860 961 801 865 815 938 b 860 972 860 964 860 972 z m 472 1053 b 585 1165 535 1053 585 1103 b 472 1279 585 1229 535 1279 b 358 1165 408 1279 358 1229 b 472 1053 358 1103 408 1053 z m 472 1268 b 574 1165 528 1268 574 1222 b 472 1064 574 1110 528 1064 b 369 1165 415 1064 369 1110 b 472 1268 369 1222 415 1268 z "},"Ũ":{"ha":915,"x_min":0,"x_max":0,"o":"m 688 972 b 688 961 688 972 688 964 b 792 790 756 951 792 867 l 792 326 b 517 8 792 171 688 22 b 197 360 315 -8 197 131 l 197 879 b 228 961 197 929 207 949 b 228 972 228 964 228 972 l 56 972 b 56 961 56 972 56 964 b 88 879 78 949 88 929 l 88 360 b 468 -8 88 107 261 -8 b 801 326 664 -8 801 133 l 801 806 b 860 961 801 865 815 938 b 860 972 860 964 860 972 z m 700 1203 b 635 1135 683 1147 664 1135 b 410 1189 557 1132 496 1189 b 286 1072 344 1189 311 1149 l 297 1068 b 364 1133 314 1118 326 1133 b 592 1076 421 1135 506 1076 b 711 1200 656 1076 689 1132 z "},"Ẃ":{"ha":1410,"x_min":0,"x_max":0,"o":"m 1396 961 l 1396 972 l 1231 972 l 1231 961 b 1243 706 1290 899 1286 832 l 1050 136 l 803 775 b 789 961 764 876 753 925 l 789 972 l 575 972 l 575 961 b 699 758 621 907 654 858 b 682 706 693 742 688 724 l 489 136 l 242 775 b 228 961 203 876 192 925 l 228 972 l 14 972 l 14 961 b 160 706 67 899 103 843 l 432 0 l 540 0 l 494 121 l 704 743 b 721 706 710 731 721 706 l 993 0 l 1103 0 l 1056 121 l 1253 706 b 1396 961 1297 836 1336 899 z m 843 1282 b 778 1283 831 1300 806 1308 b 608 1128 692 1207 635 1153 l 617 1115 b 824 1219 650 1128 724 1161 b 843 1282 857 1239 856 1265 z "},"Ŵ":{"ha":1410,"x_min":0,"x_max":0,"o":"m 1396 961 l 1396 972 l 1231 972 l 1231 961 b 1243 706 1290 899 1286 832 l 1050 136 l 803 775 b 789 961 764 876 753 925 l 789 972 l 575 972 l 575 961 b 699 758 621 907 654 858 b 682 706 693 742 688 724 l 489 136 l 242 775 b 228 961 203 876 192 925 l 228 972 l 14 972 l 14 961 b 160 706 67 899 103 843 l 432 0 l 540 0 l 494 121 l 704 743 b 721 706 710 731 721 706 l 993 0 l 1103 0 l 1056 121 l 1253 706 b 1396 961 1297 836 1336 899 z m 704 1258 l 526 1081 l 535 1074 l 704 1183 l 875 1074 l 882 1081 z "},"Ẅ":{"ha":1410,"x_min":0,"x_max":0,"o":"m 1396 961 l 1396 972 l 1231 972 l 1231 961 b 1243 706 1290 899 1286 832 l 1050 136 l 803 775 b 789 961 764 876 753 925 l 789 972 l 575 972 l 575 961 b 699 758 621 907 654 858 b 682 706 693 742 688 724 l 489 136 l 242 775 b 228 961 203 876 192 925 l 228 972 l 14 972 l 14 961 b 160 706 67 899 103 843 l 432 0 l 540 0 l 494 121 l 704 743 b 721 706 710 731 721 706 l 993 0 l 1103 0 l 1056 121 l 1253 706 b 1396 961 1297 836 1336 899 z m 582 1197 b 522 1136 549 1197 522 1169 b 582 1075 522 1103 549 1075 b 643 1136 617 1075 643 1103 b 582 1197 643 1169 617 1197 z m 825 1197 b 764 1136 792 1197 764 1169 b 825 1075 764 1103 792 1075 b 886 1136 858 1075 886 1103 b 825 1197 886 1169 858 1197 z "},"Ẁ":{"ha":1410,"x_min":0,"x_max":0,"o":"m 1396 961 l 1396 972 l 1231 972 l 1231 961 b 1243 706 1290 899 1286 832 l 1050 136 l 803 775 b 789 961 764 876 753 925 l 789 972 l 575 972 l 575 961 b 699 758 621 907 654 858 b 682 706 693 742 688 724 l 489 136 l 242 775 b 228 961 203 876 192 925 l 228 972 l 14 972 l 14 961 b 160 706 67 899 103 843 l 432 0 l 540 0 l 494 121 l 704 743 b 721 706 710 731 721 706 l 993 0 l 1103 0 l 1056 121 l 1253 706 b 1396 961 1297 836 1336 899 z m 632 1283 b 567 1282 604 1308 579 1300 b 586 1219 554 1265 553 1239 b 793 1115 686 1161 760 1128 l 801 1128 b 632 1283 775 1153 718 1207 z "},"Ý":{"ha":864,"x_min":0,"x_max":0,"o":"m 686 972 l 686 961 b 685 751 736 919 743 882 l 496 350 l 274 768 b 257 961 221 867 221 925 l 257 972 l 14 972 l 14 961 b 135 825 57 925 104 881 b 397 331 164 768 397 331 l 397 92 b 367 10 397 43 388 22 b 367 0 367 7 367 0 l 539 0 b 539 10 539 0 539 7 b 507 92 517 22 507 43 l 507 346 l 685 728 b 850 961 756 878 786 907 l 850 972 z m 597 1282 b 532 1283 585 1300 560 1308 b 363 1128 446 1207 389 1153 l 371 1115 b 578 1219 404 1128 478 1161 b 597 1282 611 1239 610 1265 z "},"Ŷ":{"ha":864,"x_min":0,"x_max":0,"o":"m 686 972 l 686 961 b 685 751 736 919 743 882 l 496 350 l 274 768 b 257 961 221 867 221 925 l 257 972 l 14 972 l 14 961 b 135 825 57 925 104 881 b 397 331 164 768 397 331 l 397 92 b 367 10 397 43 388 22 b 367 0 367 7 367 0 l 539 0 b 539 10 539 0 539 7 b 507 92 517 22 507 43 l 507 346 l 685 728 b 850 961 756 878 786 907 l 850 972 z m 460 1258 l 282 1081 l 290 1074 l 460 1183 l 631 1074 l 638 1081 z "},"Ÿ":{"ha":864,"x_min":0,"x_max":0,"o":"m 686 972 l 686 961 b 685 751 736 919 743 882 l 496 350 l 274 768 b 257 961 221 867 221 925 l 257 972 l 14 972 l 14 961 b 135 825 57 925 104 881 b 397 331 164 768 397 331 l 397 92 b 367 10 397 43 388 22 b 367 0 367 7 367 0 l 539 0 b 539 10 539 0 539 7 b 507 92 517 22 507 43 l 507 346 l 685 728 b 850 961 756 878 786 907 l 850 972 z m 338 1197 b 278 1136 304 1197 278 1169 b 338 1075 278 1103 304 1075 b 399 1136 372 1075 399 1103 b 338 1197 399 1169 372 1197 z m 581 1197 b 519 1136 547 1197 519 1169 b 581 1075 519 1103 547 1075 b 642 1136 614 1075 642 1103 b 581 1197 642 1169 614 1197 z "},"Ỳ":{"ha":864,"x_min":0,"x_max":0,"o":"m 686 972 l 686 961 b 685 751 736 919 743 882 l 496 350 l 274 768 b 257 961 221 867 221 925 l 257 972 l 14 972 l 14 961 b 135 825 57 925 104 881 b 397 331 164 768 397 331 l 397 92 b 367 10 397 43 388 22 b 367 0 367 7 367 0 l 539 0 b 539 10 539 0 539 7 b 507 92 517 22 507 43 l 507 346 l 685 728 b 850 961 756 878 786 907 l 850 972 z m 414 1283 b 349 1282 386 1308 361 1300 b 368 1219 336 1265 335 1239 b 575 1115 468 1161 542 1128 l 583 1128 b 414 1283 557 1153 500 1207 z "},"Ź":{"ha":775,"x_min":0,"x_max":0,"o":"m 725 174 b 392 10 660 89 544 10 l 135 10 l 704 972 l 99 972 l 54 803 l 61 799 b 365 961 125 869 213 961 l 582 961 l 14 0 l 129 0 l 703 0 l 733 168 z m 539 1282 b 474 1283 526 1300 501 1308 b 304 1128 388 1207 331 1153 l 313 1115 b 519 1219 346 1128 419 1161 b 539 1282 553 1239 551 1265 z "},"Ž":{"ha":775,"x_min":0,"x_max":0,"o":"m 725 174 b 392 10 660 89 544 10 l 135 10 l 704 972 l 99 972 l 54 803 l 61 799 b 365 961 125 869 213 961 l 582 961 l 14 0 l 129 0 l 703 0 l 733 168 z m 579 1251 l 571 1258 l 401 1149 l 231 1258 l 224 1251 l 401 1074 z "},"Ż":{"ha":775,"x_min":0,"x_max":0,"o":"m 725 174 b 392 10 660 89 544 10 l 135 10 l 704 972 l 99 972 l 54 803 l 61 799 b 365 961 125 869 213 961 l 582 961 l 14 0 l 129 0 l 703 0 l 733 168 z m 400 1197 b 340 1136 367 1197 340 1169 b 400 1075 340 1103 367 1075 b 461 1136 435 1075 461 1103 b 400 1197 461 1169 435 1197 z "},"á":{"ha":717,"x_min":0,"x_max":0,"o":"m 675 10 b 644 92 654 22 644 43 l 644 436 b 407 668 644 607 522 668 b 214 415 221 668 178 496 b 46 146 107 371 22 288 b 289 -8 64 46 175 -8 b 535 194 422 -8 499 72 l 535 0 l 675 0 b 675 10 675 0 675 7 z m 394 654 b 535 456 493 654 535 561 l 535 446 b 451 458 511 453 483 458 b 228 421 386 458 303 449 b 394 654 186 533 269 654 z m 322 10 b 154 126 253 6 172 51 b 451 446 94 371 300 446 b 535 433 494 446 528 436 l 535 219 b 322 10 507 119 443 17 z m 551 963 b 486 964 539 981 514 989 b 317 808 400 888 343 833 l 325 796 b 532 900 358 808 432 842 b 551 963 565 919 564 946 z "},"ă":{"ha":717,"x_min":0,"x_max":0,"o":"m 675 10 b 644 92 654 22 644 43 l 644 436 b 407 668 644 607 522 668 b 214 415 221 668 178 496 b 46 146 107 371 22 288 b 289 -8 64 46 175 -8 b 535 194 422 -8 499 72 l 535 0 l 675 0 b 675 10 675 0 675 7 z m 394 654 b 535 456 493 654 535 561 l 535 446 b 451 458 511 453 483 458 b 228 421 386 458 303 449 b 394 654 186 533 269 654 z m 322 10 b 154 126 253 6 172 51 b 451 446 94 371 300 446 b 535 433 494 446 528 436 l 535 219 b 322 10 507 119 443 17 z m 565 938 b 413 829 542 856 490 829 b 261 938 336 829 283 856 l 251 938 b 413 767 258 832 318 767 b 575 938 508 767 567 832 z "},"â":{"ha":717,"x_min":0,"x_max":0,"o":"m 675 10 b 644 92 654 22 644 43 l 644 436 b 407 668 644 607 522 668 b 214 415 221 668 178 496 b 46 146 107 371 22 288 b 289 -8 64 46 175 -8 b 535 194 422 -8 499 72 l 535 0 l 675 0 b 675 10 675 0 675 7 z m 394 654 b 535 456 493 654 535 561 l 535 446 b 451 458 511 453 483 458 b 228 421 386 458 303 449 b 394 654 186 533 269 654 z m 322 10 b 154 126 253 6 172 51 b 451 446 94 371 300 446 b 535 433 494 446 528 436 l 535 219 b 322 10 507 119 443 17 z m 414 939 l 236 761 l 244 754 l 414 864 l 585 754 l 592 761 z "},"à":{"ha":717,"x_min":0,"x_max":0,"o":"m 675 10 b 644 92 654 22 644 43 l 644 436 b 407 668 644 607 522 668 b 214 415 221 668 178 496 b 46 146 107 371 22 288 b 289 -8 64 46 175 -8 b 535 194 422 -8 499 72 l 535 0 l 675 0 b 675 10 675 0 675 7 z m 394 654 b 535 456 493 654 535 561 l 535 446 b 451 458 511 453 483 458 b 228 421 386 458 303 449 b 394 654 186 533 269 654 z m 322 10 b 154 126 253 6 172 51 b 451 446 94 371 300 446 b 535 433 494 446 528 436 l 535 219 b 322 10 507 119 443 17 z m 382 964 b 317 963 354 989 329 981 b 336 900 304 946 303 919 b 543 796 436 842 510 808 l 551 808 b 382 964 525 833 468 888 z "},"ā":{"ha":717,"x_min":0,"x_max":0,"o":"m 675 10 b 644 92 654 22 644 43 l 644 436 b 407 668 644 607 522 668 b 214 415 221 668 178 496 b 46 146 107 371 22 288 b 289 -8 64 46 175 -8 b 535 194 422 -8 499 72 l 535 0 l 675 0 b 675 10 675 0 675 7 z m 394 654 b 535 456 493 654 535 561 l 535 446 b 451 458 511 453 483 458 b 228 421 386 458 303 449 b 394 654 186 533 269 654 z m 322 10 b 154 126 253 6 172 51 b 451 446 94 371 300 446 b 535 433 494 446 528 436 l 535 219 b 322 10 507 119 443 17 z m 199 822 l 199 811 l 629 811 l 629 822 z "},"ä":{"ha":717,"x_min":0,"x_max":0,"o":"m 675 10 b 644 92 654 22 644 43 l 644 436 b 407 668 644 607 522 668 b 214 415 221 668 178 496 b 46 146 107 371 22 288 b 289 -8 64 46 175 -8 b 535 194 422 -8 499 72 l 535 0 l 675 0 b 675 10 675 0 675 7 z m 394 654 b 535 456 493 654 535 561 l 535 446 b 451 458 511 453 483 458 b 228 421 386 458 303 449 b 394 654 186 533 269 654 z m 322 10 b 154 126 253 6 172 51 b 451 446 94 371 300 446 b 535 433 494 446 528 436 l 535 219 b 322 10 507 119 443 17 z m 292 878 b 232 817 258 878 232 850 b 292 756 232 783 258 756 b 353 817 326 756 353 783 b 292 878 353 850 326 878 z m 535 878 b 474 817 501 878 474 850 b 535 756 474 783 501 756 b 596 817 568 756 596 783 b 535 878 596 850 568 878 z "},"ą":{"ha":763,"x_min":0,"x_max":0,"o":"m 714 -201 b 661 -240 700 -217 685 -232 b 550 -208 618 -254 575 -243 b 626 0 507 -147 542 -43 l 675 0 b 675 10 675 0 675 7 b 644 92 654 22 644 43 l 644 436 b 407 668 644 607 524 668 b 215 415 221 668 179 496 b 47 146 107 371 22 288 b 289 -8 64 44 175 -8 b 535 194 422 -8 499 72 l 535 0 l 608 0 b 504 -229 518 -49 460 -162 b 664 -256 532 -271 601 -287 b 721 -208 686 -244 706 -225 l 714 -201 z m 535 219 b 324 10 508 118 443 17 b 154 126 253 6 172 51 b 451 446 94 371 300 446 b 535 433 496 446 528 436 l 535 219 z m 535 446 b 453 458 511 453 483 458 b 229 421 388 458 304 449 b 394 654 186 533 271 654 b 535 456 493 654 535 561 l 535 446 z "},"å":{"ha":717,"x_min":0,"x_max":0,"o":"m 675 10 b 644 92 654 22 644 43 l 644 436 b 407 668 644 607 522 668 b 214 415 221 668 178 496 b 46 146 107 371 22 288 b 289 -8 64 46 175 -8 b 535 194 422 -8 499 72 l 535 0 l 675 0 b 675 10 675 0 675 7 z m 394 654 b 535 456 493 654 535 561 l 535 446 b 451 458 511 453 483 458 b 228 421 386 458 303 449 b 394 654 186 533 269 654 z m 322 10 b 154 126 253 6 172 51 b 451 446 94 371 300 446 b 535 433 494 446 528 436 l 535 219 b 322 10 507 119 443 17 z m 414 733 b 526 846 476 733 526 783 b 414 960 526 910 476 960 b 300 846 350 960 300 910 b 414 733 300 783 350 733 z m 414 949 b 515 846 469 949 515 903 b 414 744 515 790 469 744 b 311 846 357 744 311 790 b 414 949 311 903 357 949 z "},"ã":{"ha":717,"x_min":0,"x_max":0,"o":"m 675 10 b 644 92 654 22 644 43 l 644 436 b 407 668 644 607 522 668 b 214 415 221 668 178 496 b 46 146 107 371 22 288 b 289 -8 64 46 175 -8 b 535 194 422 -8 499 72 l 535 0 l 675 0 b 675 10 675 0 675 7 z m 394 654 b 535 456 493 654 535 561 l 535 446 b 451 458 511 453 483 458 b 228 421 386 458 303 449 b 394 654 186 533 269 654 z m 322 10 b 154 126 253 6 172 51 b 451 446 94 371 300 446 b 535 433 494 446 528 436 l 535 219 b 322 10 507 119 443 17 z m 615 883 b 550 815 599 828 579 815 b 325 869 472 813 411 869 b 201 753 260 869 226 829 l 213 749 b 279 814 229 799 242 814 b 507 757 336 815 421 757 b 626 881 571 757 604 813 z "},"ǽ":{"ha":1257,"x_min":0,"x_max":0,"o":"m 1074 449 b 1203 449 1074 449 1190 449 b 903 668 1183 617 1021 674 b 622 546 814 664 700 625 b 407 668 582 635 493 668 b 214 415 221 668 178 497 b 46 146 107 371 22 288 b 289 -8 63 46 175 -8 b 539 261 449 -8 528 117 b 921 -8 572 72 744 -8 b 1214 221 1118 -8 1204 122 b 1074 449 1225 349 1153 428 z m 840 651 b 1103 460 976 678 1085 581 l 660 460 b 840 651 685 554 744 635 z m 394 654 b 535 456 493 654 535 561 l 535 446 b 451 458 511 453 483 458 b 228 421 386 458 303 449 b 394 654 186 533 269 654 z m 322 10 b 154 126 253 6 172 51 b 450 446 94 371 300 446 b 535 433 494 446 528 436 l 535 333 b 322 10 535 190 488 22 z m 1200 218 b 964 22 1188 110 1083 28 b 665 226 822 17 718 81 b 657 449 642 293 639 375 l 1017 449 b 1200 218 1122 449 1218 363 z m 822 963 b 757 964 810 981 785 989 b 588 808 671 888 614 833 l 596 796 b 803 900 629 808 703 842 b 822 963 836 919 835 946 z "},"ć":{"ha":764,"x_min":0,"x_max":0,"o":"m 183 226 b 358 651 125 393 188 613 b 654 479 489 682 621 563 l 663 479 l 683 594 b 421 668 611 632 500 668 b 57 315 268 668 50 556 b 446 -8 63 86 254 -18 b 736 188 611 1 693 110 l 728 192 b 493 17 706 153 631 31 b 183 226 353 3 235 81 z m 561 963 b 496 964 549 981 524 989 b 326 808 410 888 353 833 l 335 796 b 542 900 368 808 442 842 b 561 963 575 919 574 946 z "},"č":{"ha":764,"x_min":0,"x_max":0,"o":"m 183 226 b 358 651 125 393 188 613 b 654 479 489 682 621 563 l 663 479 l 683 594 b 421 668 611 632 500 668 b 57 315 268 668 50 556 b 446 -8 63 86 254 -18 b 736 188 611 1 693 110 l 728 192 b 493 17 706 153 631 31 b 183 226 353 3 235 81 z m 601 932 l 593 939 l 424 829 l 253 939 l 246 932 l 424 754 z "},"ĉ":{"ha":764,"x_min":0,"x_max":0,"o":"m 183 226 b 358 651 125 393 188 613 b 654 479 489 682 621 563 l 663 479 l 683 594 b 421 668 611 632 500 668 b 57 315 268 668 50 556 b 446 -8 63 86 254 -18 b 736 188 611 1 693 110 l 728 192 b 493 17 706 153 631 31 b 183 226 353 3 235 81 z m 424 939 l 246 761 l 254 754 l 424 864 l 594 754 l 601 761 z "},"ċ":{"ha":764,"x_min":0,"x_max":0,"o":"m 183 226 b 358 651 125 393 188 613 b 654 479 489 682 621 563 l 663 479 l 683 594 b 421 668 611 632 500 668 b 57 315 268 668 50 556 b 446 -8 63 86 254 -18 b 736 188 611 1 693 110 l 728 192 b 493 17 706 153 631 31 b 183 226 353 3 235 81 z m 422 878 b 363 817 389 878 363 850 b 422 756 363 783 389 756 b 483 817 457 756 483 783 b 422 878 483 850 457 878 z "},"ď":{"ha":907,"x_min":0,"x_max":0,"o":"m 746 10 b 715 92 725 22 715 43 l 715 1001 l 706 1001 l 574 972 b 574 961 574 972 574 964 b 606 894 601 957 606 943 l 606 656 b 522 668 582 663 554 668 b 57 267 368 668 49 610 b 314 -8 63 89 201 -8 b 606 372 508 -8 579 211 l 606 0 l 746 0 b 746 10 746 0 746 7 z m 376 17 b 165 246 257 -6 172 125 b 522 661 146 600 388 658 b 606 649 567 661 599 650 l 606 454 b 376 17 606 338 532 47 z m 901 1001 b 825 925 860 1001 825 967 b 901 850 825 885 860 850 b 951 871 921 850 938 858 b 844 728 935 817 899 775 l 851 721 b 976 925 929 783 976 850 b 901 1001 976 967 942 1001 z "},"é":{"ha":775,"x_min":0,"x_max":0,"o":"m 592 449 l 622 449 b 721 449 622 449 708 449 b 421 668 701 617 539 674 b 57 315 268 660 50 556 b 439 -8 63 86 247 -8 b 732 221 636 -8 724 122 b 592 449 743 347 671 428 z m 358 651 b 621 460 494 678 603 581 l 178 460 b 358 651 203 554 264 633 z m 719 218 b 482 22 706 110 601 28 b 185 226 340 17 236 81 b 175 449 161 293 157 375 l 535 449 b 719 218 640 449 736 363 z m 546 963 b 481 964 533 981 508 989 b 311 808 394 888 338 833 l 319 796 b 526 900 353 808 426 842 b 546 963 560 919 558 946 z "},"ĕ":{"ha":775,"x_min":0,"x_max":0,"o":"m 592 449 l 622 449 b 721 449 622 449 708 449 b 421 668 701 617 539 674 b 57 315 268 660 50 556 b 439 -8 63 86 247 -8 b 732 221 636 -8 724 122 b 592 449 743 347 671 428 z m 358 651 b 621 460 494 678 603 581 l 178 460 b 358 651 203 554 264 633 z m 719 218 b 482 22 706 110 601 28 b 185 226 340 17 236 81 b 175 449 161 293 157 375 l 535 449 b 719 218 640 449 736 363 z m 574 938 b 421 829 550 856 499 829 b 269 938 344 829 292 856 l 260 938 b 421 767 267 832 326 767 b 583 938 517 767 575 832 z "},"ě":{"ha":775,"x_min":0,"x_max":0,"o":"m 592 449 l 622 449 b 721 449 622 449 708 449 b 421 668 701 617 539 674 b 57 315 268 660 50 556 b 439 -8 63 86 247 -8 b 732 221 636 -8 724 122 b 592 449 743 347 671 428 z m 358 651 b 621 460 494 678 603 581 l 178 460 b 358 651 203 554 264 633 z m 719 218 b 482 22 706 110 601 28 b 185 226 340 17 236 81 b 175 449 161 293 157 375 l 535 449 b 719 218 640 449 736 363 z m 600 932 l 592 939 l 422 829 l 251 939 l 244 932 l 422 754 z "},"ê":{"ha":775,"x_min":0,"x_max":0,"o":"m 592 449 l 622 449 b 721 449 622 449 708 449 b 421 668 701 617 539 674 b 57 315 268 660 50 556 b 439 -8 63 86 247 -8 b 732 221 636 -8 724 122 b 592 449 743 347 671 428 z m 358 651 b 621 460 494 678 603 581 l 178 460 b 358 651 203 554 264 633 z m 719 218 b 482 22 706 110 601 28 b 185 226 340 17 236 81 b 175 449 161 293 157 375 l 535 449 b 719 218 640 449 736 363 z m 422 939 l 244 761 l 253 754 l 422 864 l 593 754 l 600 761 z "},"ë":{"ha":775,"x_min":0,"x_max":0,"o":"m 592 449 l 622 449 b 721 449 622 449 708 449 b 421 668 701 617 539 674 b 57 315 268 660 50 556 b 439 -8 63 86 247 -8 b 732 221 636 -8 724 122 b 592 449 743 347 671 428 z m 358 651 b 621 460 494 678 603 581 l 178 460 b 358 651 203 554 264 633 z m 719 218 b 482 22 706 110 601 28 b 185 226 340 17 236 81 b 175 449 161 293 157 375 l 535 449 b 719 218 640 449 736 363 z m 300 878 b 240 817 267 878 240 850 b 300 756 240 783 267 756 b 361 817 335 756 361 783 b 300 878 361 850 335 878 z m 543 878 b 482 817 510 878 482 850 b 543 756 482 783 510 756 b 604 817 576 756 604 783 b 543 878 604 850 576 878 z "},"ė":{"ha":775,"x_min":0,"x_max":0,"o":"m 592 449 l 622 449 b 721 449 622 449 708 449 b 421 668 701 617 539 674 b 57 315 268 660 50 556 b 439 -8 63 86 247 -8 b 732 221 636 -8 724 122 b 592 449 743 347 671 428 z m 358 651 b 621 460 494 678 603 581 l 178 460 b 358 651 203 554 264 633 z m 719 218 b 482 22 706 110 601 28 b 185 226 340 17 236 81 b 175 449 161 293 157 375 l 535 449 b 719 218 640 449 736 363 z m 421 878 b 361 817 388 878 361 850 b 421 756 361 783 388 756 b 482 817 456 756 482 783 b 421 878 482 850 456 878 z "},"è":{"ha":775,"x_min":0,"x_max":0,"o":"m 592 449 l 622 449 b 721 449 622 449 708 449 b 421 668 701 617 539 674 b 57 315 268 660 50 556 b 439 -8 63 86 247 -8 b 732 221 636 -8 724 122 b 592 449 743 347 671 428 z m 358 651 b 621 460 494 678 603 581 l 178 460 b 358 651 203 554 264 633 z m 719 218 b 482 22 706 110 601 28 b 185 226 340 17 236 81 b 175 449 161 293 157 375 l 535 449 b 719 218 640 449 736 363 z m 390 964 b 325 963 363 989 338 981 b 344 900 313 946 311 919 b 551 796 444 842 518 808 l 560 808 b 390 964 533 833 476 888 z "},"ē":{"ha":775,"x_min":0,"x_max":0,"o":"m 592 449 l 622 449 b 721 449 622 449 708 449 b 421 668 701 617 539 674 b 57 315 268 660 50 556 b 439 -8 63 86 247 -8 b 732 221 636 -8 724 122 b 592 449 743 347 671 428 z m 358 651 b 621 460 494 678 603 581 l 178 460 b 358 651 203 554 264 633 z m 719 218 b 482 22 706 110 601 28 b 185 226 340 17 236 81 b 175 449 161 293 157 375 l 535 449 b 719 218 640 449 736 363 z m 193 822 l 193 811 l 624 811 l 624 822 z "},"ğ":{"ha":890,"x_min":0,"x_max":0,"o":"m 775 38 b 515 -99 704 35 618 -37 b 275 -206 426 -153 346 -207 b 197 -126 224 -206 200 -172 b 389 -7 190 -43 297 -11 b 403 -8 394 -8 399 -8 b 781 360 590 -8 781 138 b 611 628 781 486 711 579 l 835 638 l 826 707 l 589 638 b 433 668 542 657 489 668 b 56 300 247 668 56 529 b 350 -4 56 124 188 15 b 122 -144 253 -14 119 -60 b 253 -229 124 -208 179 -235 b 451 -150 318 -225 388 -189 b 633 -250 485 -196 533 -250 b 890 -69 751 -250 890 -179 b 775 38 890 -8 858 39 z m 174 256 b 326 643 125 424 168 597 b 664 404 485 689 615 571 b 511 17 713 236 668 63 b 174 256 353 -31 222 89 z m 806 -93 b 633 -240 800 -185 740 -242 b 461 -143 531 -239 488 -182 b 524 -106 482 -131 503 -118 b 736 10 604 -56 693 4 b 806 -93 792 18 808 -29 z m 583 938 b 431 829 560 856 508 829 b 279 938 354 829 301 856 l 269 938 b 431 767 276 832 336 767 b 593 938 526 767 585 832 z "},"ĝ":{"ha":890,"x_min":0,"x_max":0,"o":"m 775 38 b 515 -99 704 35 618 -37 b 275 -206 426 -153 346 -207 b 197 -126 224 -206 200 -172 b 389 -7 190 -43 297 -11 b 403 -8 394 -8 399 -8 b 781 360 590 -8 781 138 b 611 628 781 486 711 579 l 835 638 l 826 707 l 589 638 b 433 668 542 657 489 668 b 56 300 247 668 56 529 b 350 -4 56 124 188 15 b 122 -144 253 -14 119 -60 b 253 -229 124 -208 179 -235 b 451 -150 318 -225 388 -189 b 633 -250 485 -196 533 -250 b 890 -69 751 -250 890 -179 b 775 38 890 -8 858 39 z m 174 256 b 326 643 125 424 168 597 b 664 404 485 689 615 571 b 511 17 713 236 668 63 b 174 256 353 -31 222 89 z m 806 -93 b 633 -240 800 -185 740 -242 b 461 -143 531 -239 488 -182 b 524 -106 482 -131 503 -118 b 736 10 604 -56 693 4 b 806 -93 792 18 808 -29 z m 444 939 l 267 761 l 275 754 l 444 864 l 615 754 l 622 761 z "},"ģ":{"ha":890,"x_min":0,"x_max":0,"o":"m 775 38 b 515 -99 704 35 618 -37 b 275 -206 426 -153 346 -207 b 197 -126 224 -206 200 -172 b 389 -7 190 -43 297 -11 b 403 -8 394 -8 399 -8 b 781 360 590 -8 781 138 b 611 628 781 486 711 579 l 835 638 l 826 707 l 589 638 b 433 668 542 657 489 668 b 56 300 247 668 56 529 b 350 -4 56 124 188 15 b 122 -144 253 -14 119 -60 b 253 -229 124 -208 179 -235 b 451 -150 318 -225 388 -189 b 633 -250 485 -196 533 -250 b 890 -69 751 -250 890 -179 b 775 38 890 -8 858 39 z m 174 256 b 326 643 125 424 168 597 b 664 404 485 689 615 571 b 511 17 713 236 668 63 b 174 256 353 -31 222 89 z m 806 -93 b 633 -240 800 -185 740 -242 b 461 -143 531 -239 488 -182 b 524 -106 482 -131 503 -118 b 736 10 604 -56 693 4 b 806 -93 792 18 808 -29 z m 431 924 b 381 904 411 924 393 917 b 488 1047 396 957 432 1000 l 481 1054 b 356 849 403 992 356 924 b 431 774 356 807 389 774 b 506 849 472 774 506 807 b 431 924 506 890 472 924 z "},"ġ":{"ha":890,"x_min":0,"x_max":0,"o":"m 775 38 b 515 -99 704 35 618 -37 b 275 -206 426 -153 346 -207 b 197 -126 224 -206 200 -172 b 389 -7 190 -43 297 -11 b 403 -8 394 -8 399 -8 b 781 360 590 -8 781 138 b 611 628 781 486 711 579 l 835 638 l 826 707 l 589 638 b 433 668 542 657 489 668 b 56 300 247 668 56 529 b 350 -4 56 124 188 15 b 122 -144 253 -14 119 -60 b 253 -229 124 -208 179 -235 b 451 -150 318 -225 388 -189 b 633 -250 485 -196 533 -250 b 890 -69 751 -250 890 -179 b 775 38 890 -8 858 39 z m 174 256 b 326 643 125 424 168 597 b 664 404 485 689 615 571 b 511 17 713 236 668 63 b 174 256 353 -31 222 89 z m 806 -93 b 633 -240 800 -185 740 -242 b 461 -143 531 -239 488 -182 b 524 -106 482 -131 503 -118 b 736 10 604 -56 693 4 b 806 -93 792 18 808 -29 z m 444 878 b 385 817 411 878 385 850 b 444 756 385 783 411 756 b 506 817 479 756 506 783 b 444 878 506 850 479 878 z "},"ĥ":{"ha":769,"x_min":0,"x_max":0,"o":"m 703 92 b 669 424 697 143 685 289 b 443 668 653 590 556 668 b 197 324 263 668 214 479 l 197 1001 l 186 1001 l 56 972 b 56 961 56 972 56 964 b 88 894 83 957 88 943 l 88 92 b 56 10 88 43 78 22 b 56 0 56 7 56 0 l 228 0 b 228 10 228 0 228 7 b 197 92 207 22 197 43 l 197 206 b 381 643 197 322 225 613 b 563 444 500 667 551 549 b 594 92 569 372 589 138 b 571 10 599 46 592 22 b 571 0 571 7 571 0 l 742 0 b 742 10 742 0 742 7 b 703 92 721 22 708 42 z m 246 1268 l 68 1090 l 76 1083 l 246 1193 l 417 1083 l 424 1090 z "},"ı":{"ha":269,"x_min":0,"x_max":0,"o":"m 196 92 l 196 668 l 186 668 l 56 638 b 56 628 56 638 56 631 b 86 561 82 624 86 610 l 86 92 b 56 10 86 43 76 22 b 56 0 56 7 56 0 l 228 0 b 228 10 228 0 228 7 b 196 92 206 22 196 43 z "},"ĳ":{"ha":539,"x_min":0,"x_max":0,"o":"m 196 92 l 196 668 l 186 668 l 56 638 b 56 628 56 638 56 631 b 86 561 82 624 86 610 l 86 92 b 56 10 86 43 76 22 b 56 0 56 7 56 0 l 228 0 b 228 10 228 0 228 7 b 196 92 206 22 196 43 z m 138 781 b 203 846 174 781 203 810 b 138 911 203 882 174 911 b 72 846 101 911 72 882 b 138 781 72 810 101 781 z m 454 668 l 324 638 b 324 628 324 638 324 631 b 354 561 350 624 354 610 l 354 -19 b 200 -357 354 -249 324 -299 l 204 -371 b 464 -4 333 -317 464 -244 l 464 668 z m 404 781 b 469 846 440 781 469 810 b 404 911 469 882 440 911 b 340 846 369 911 340 882 b 404 781 340 810 369 781 z "},"ĵ":{"ha":283,"x_min":0,"x_max":0,"o":"m 199 668 l 68 638 b 68 628 68 638 68 631 b 99 561 94 624 99 610 l 99 -19 b -56 -357 99 -249 68 -299 l -51 -371 b 208 -4 78 -317 208 -244 l 208 668 z m 149 939 l -29 761 l -21 754 l 149 864 l 319 754 l 326 761 z "},"ķ":{"ha":715,"x_min":0,"x_max":0,"o":"m 506 254 l 378 458 b 647 657 504 569 571 626 l 647 668 l 464 668 l 464 657 b 343 439 519 621 486 567 l 196 310 l 196 1001 l 186 1001 l 56 972 b 56 961 56 972 56 964 b 86 903 82 957 86 951 l 86 99 b 56 10 86 50 76 22 b 56 0 56 7 56 0 l 228 0 b 228 10 228 0 228 7 b 196 99 206 22 196 50 l 196 297 l 308 396 l 465 140 b 490 10 507 69 522 35 l 490 0 l 701 0 l 701 10 b 506 254 639 39 601 99 z m 350 -115 b 290 -175 317 -115 290 -142 b 350 -235 290 -207 317 -235 b 390 -218 365 -235 379 -228 b 306 -332 378 -261 349 -294 l 311 -337 b 410 -175 372 -287 410 -235 b 350 -115 410 -142 383 -115 z "},"ĸ":{"ha":715,"x_min":0,"x_max":0,"o":"m 506 254 l 378 458 b 647 657 504 569 571 626 l 647 668 l 464 668 l 464 657 b 343 439 519 621 486 567 l 196 310 l 196 668 l 186 668 l 56 639 b 56 628 56 639 56 631 b 86 569 82 624 86 618 l 86 99 b 56 10 86 50 76 22 b 56 0 56 7 56 0 l 228 0 b 228 10 228 0 228 7 b 196 99 206 22 196 50 l 196 297 l 308 396 l 465 140 b 490 10 507 69 522 35 l 490 0 l 701 0 l 701 10 b 506 254 639 39 601 99 z "},"ĺ":{"ha":268,"x_min":0,"x_max":0,"o":"m 196 92 l 196 1001 l 186 1001 l 56 972 b 56 961 56 972 56 964 b 86 894 82 957 86 943 l 86 92 b 56 10 86 43 76 22 b 56 0 56 7 56 0 l 226 0 b 226 10 226 0 226 7 b 196 92 206 22 196 43 z m 251 1208 b 186 1210 239 1226 214 1235 b 17 1054 100 1133 43 1079 l 25 1042 b 232 1146 58 1054 132 1088 b 251 1208 265 1165 264 1192 z "},"ľ":{"ha":379,"x_min":0,"x_max":0,"o":"m 196 92 l 196 1001 l 186 1001 l 56 972 b 56 961 56 972 56 964 b 86 894 82 957 86 943 l 86 92 b 56 10 86 43 76 22 b 56 0 56 7 56 0 l 226 0 b 226 10 226 0 226 7 b 196 92 206 22 196 43 z m 374 1001 b 297 925 332 1001 297 967 b 374 850 297 885 332 850 b 424 871 393 850 410 858 b 317 728 407 817 371 775 l 324 721 b 449 925 401 783 449 850 b 374 1001 449 967 414 1001 z "},"ļ":{"ha":268,"x_min":0,"x_max":0,"o":"m 196 92 l 196 1001 l 186 1001 l 56 972 b 56 961 56 972 56 964 b 86 894 82 957 86 943 l 86 92 b 56 10 86 43 76 22 b 56 0 56 7 56 0 l 226 0 b 226 10 226 0 226 7 b 196 92 206 22 196 43 z m 140 -115 b 81 -175 107 -115 81 -142 b 140 -235 81 -207 107 -235 b 181 -218 156 -235 169 -228 b 96 -332 168 -261 139 -294 l 101 -337 b 200 -175 163 -287 200 -235 b 140 -115 200 -142 174 -115 z "},"ŀ":{"ha":429,"x_min":0,"x_max":0,"o":"m 354 469 b 294 408 321 469 294 442 b 354 347 294 375 321 347 b 415 408 389 347 415 375 b 354 469 415 442 389 469 z m 196 92 l 196 1001 l 186 1001 l 56 972 b 56 961 56 972 56 964 b 86 894 82 957 86 943 l 86 92 b 56 10 86 43 76 22 b 56 0 56 7 56 0 l 226 0 b 226 10 226 0 226 7 b 196 92 206 22 196 43 z "},"ń":{"ha":769,"x_min":0,"x_max":0,"o":"m 703 92 b 669 424 697 143 683 289 b 442 668 653 590 556 668 b 196 324 261 668 214 479 l 196 668 l 186 668 l 56 638 b 56 628 56 638 56 631 b 86 561 82 624 86 610 l 86 92 b 56 10 86 43 76 22 b 56 0 56 7 56 0 l 228 0 b 228 10 228 0 228 7 b 196 92 206 22 196 43 l 196 206 b 381 643 196 322 225 613 b 561 444 500 667 551 549 b 593 92 568 372 589 138 b 569 10 597 46 592 22 b 569 0 569 7 569 0 l 742 0 b 742 10 742 0 742 7 b 703 92 721 22 708 42 z m 536 963 b 471 964 524 981 499 989 b 301 808 385 888 328 833 l 310 796 b 517 900 343 808 417 842 b 536 963 550 919 549 946 z "},"ŉ":{"ha":947,"x_min":0,"x_max":0,"o":"m 881 92 b 847 424 875 143 861 289 b 619 668 831 590 733 668 b 374 324 439 668 392 479 l 374 668 l 364 668 l 233 638 b 233 628 233 638 233 631 b 264 561 260 624 264 610 l 264 92 b 233 10 264 43 254 22 b 233 0 233 7 233 0 l 406 0 b 406 10 406 0 406 7 b 374 92 383 22 374 43 l 374 206 b 558 643 374 322 403 613 b 739 444 678 667 729 549 b 771 92 746 372 767 138 b 747 10 775 46 769 22 b 747 0 747 7 747 0 l 919 0 b 919 10 919 0 919 7 b 881 92 899 22 886 42 z m 101 668 b 42 608 68 668 42 642 b 101 549 42 576 68 549 b 142 565 117 549 131 556 b 57 451 129 522 100 489 l 63 446 b 161 608 124 496 161 549 b 101 668 161 642 135 668 z "},"ň":{"ha":769,"x_min":0,"x_max":0,"o":"m 703 92 b 669 424 697 143 683 289 b 442 668 653 590 556 668 b 196 324 261 668 214 479 l 196 668 l 186 668 l 56 638 b 56 628 56 638 56 631 b 86 561 82 624 86 610 l 86 92 b 56 10 86 43 76 22 b 56 0 56 7 56 0 l 228 0 b 228 10 228 0 228 7 b 196 92 206 22 196 43 l 196 206 b 381 643 196 322 225 613 b 561 444 500 667 551 549 b 593 92 568 372 589 138 b 569 10 597 46 592 22 b 569 0 569 7 569 0 l 742 0 b 742 10 742 0 742 7 b 703 92 721 22 708 42 z m 590 932 l 582 939 l 413 829 l 242 939 l 235 932 l 413 754 z "},"ņ":{"ha":769,"x_min":0,"x_max":0,"o":"m 703 92 b 669 424 697 143 683 289 b 442 668 653 590 556 668 b 196 324 261 668 214 479 l 196 668 l 186 668 l 56 638 b 56 628 56 638 56 631 b 86 561 82 624 86 610 l 86 92 b 56 10 86 43 76 22 b 56 0 56 7 56 0 l 228 0 b 228 10 228 0 228 7 b 196 92 206 22 196 43 l 196 206 b 381 643 196 322 225 613 b 561 444 500 667 551 549 b 593 92 568 372 589 138 b 569 10 597 46 592 22 b 569 0 569 7 569 0 l 742 0 b 742 10 742 0 742 7 b 703 92 721 22 708 42 z m 413 -115 b 353 -175 379 -115 353 -142 b 413 -235 353 -207 379 -235 b 453 -218 428 -235 442 -228 b 368 -332 440 -261 411 -294 l 374 -337 b 472 -175 435 -287 472 -235 b 413 -115 472 -142 446 -115 z "},"ñ":{"ha":769,"x_min":0,"x_max":0,"o":"m 703 92 b 669 424 697 143 683 289 b 442 668 653 590 556 668 b 196 324 261 668 214 479 l 196 668 l 186 668 l 56 638 b 56 628 56 638 56 631 b 86 561 82 624 86 610 l 86 92 b 56 10 86 43 76 22 b 56 0 56 7 56 0 l 228 0 b 228 10 228 0 228 7 b 196 92 206 22 196 43 l 196 206 b 381 643 196 322 225 613 b 561 444 500 667 551 549 b 593 92 568 372 589 138 b 569 10 597 46 592 22 b 569 0 569 7 569 0 l 742 0 b 742 10 742 0 742 7 b 703 92 721 22 708 42 z m 614 883 b 549 815 597 828 578 815 b 324 869 471 813 410 869 b 200 753 258 869 225 829 l 211 749 b 278 814 228 799 240 814 b 506 757 335 815 419 757 b 625 881 569 757 603 813 z "},"ó":{"ha":821,"x_min":0,"x_max":0,"o":"m 432 668 b 56 300 246 668 56 529 b 403 -8 56 106 215 -8 b 779 360 589 -8 779 138 b 432 668 779 551 618 668 z m 510 17 b 172 256 351 -31 221 89 b 325 643 124 424 167 597 b 663 404 483 689 614 571 b 510 17 711 236 668 63 z m 556 963 b 490 964 543 981 518 989 b 321 808 404 888 347 833 l 329 796 b 536 900 363 808 436 842 b 556 963 569 919 568 946 z "},"ŏ":{"ha":821,"x_min":0,"x_max":0,"o":"m 432 668 b 56 300 246 668 56 529 b 403 -8 56 106 215 -8 b 779 360 589 -8 779 138 b 432 668 779 551 618 668 z m 510 17 b 172 256 351 -31 221 89 b 325 643 124 424 167 597 b 663 404 483 689 614 571 b 510 17 711 236 668 63 z m 569 938 b 417 829 546 856 494 829 b 265 938 340 829 288 856 l 256 938 b 417 767 263 832 322 767 b 579 938 513 767 571 832 z "},"ô":{"ha":821,"x_min":0,"x_max":0,"o":"m 432 668 b 56 300 246 668 56 529 b 403 -8 56 106 215 -8 b 779 360 589 -8 779 138 b 432 668 779 551 618 668 z m 510 17 b 172 256 351 -31 221 89 b 325 643 124 424 167 597 b 663 404 483 689 614 571 b 510 17 711 236 668 63 z m 417 939 l 239 761 l 247 754 l 417 864 l 588 754 l 594 761 z "},"ö":{"ha":821,"x_min":0,"x_max":0,"o":"m 432 668 b 56 300 246 668 56 529 b 403 -8 56 106 215 -8 b 779 360 589 -8 779 138 b 432 668 779 551 618 668 z m 510 17 b 172 256 351 -31 221 89 b 325 643 124 424 167 597 b 663 404 483 689 614 571 b 510 17 711 236 668 63 z m 294 878 b 235 817 261 878 235 850 b 294 756 235 783 261 756 b 356 817 329 756 356 783 b 294 878 356 850 329 878 z m 538 878 b 476 817 504 878 476 850 b 538 756 476 783 504 756 b 599 817 571 756 599 783 b 538 878 599 850 571 878 z "},"ò":{"ha":821,"x_min":0,"x_max":0,"o":"m 432 668 b 56 300 246 668 56 529 b 403 -8 56 106 215 -8 b 779 360 589 -8 779 138 b 432 668 779 551 618 668 z m 510 17 b 172 256 351 -31 221 89 b 325 643 124 424 167 597 b 663 404 483 689 614 571 b 510 17 711 236 668 63 z m 358 964 b 293 963 331 989 306 981 b 313 900 281 946 279 919 b 519 796 413 842 486 808 l 528 808 b 358 964 501 833 444 888 z "},"ő":{"ha":821,"x_min":0,"x_max":0,"o":"m 432 668 b 56 300 246 668 56 529 b 403 -8 56 106 215 -8 b 779 360 589 -8 779 138 b 432 668 779 551 618 668 z m 510 17 b 172 256 351 -31 221 89 b 325 643 124 424 167 597 b 663 404 483 689 614 571 b 510 17 711 236 668 63 z m 403 972 b 275 782 338 878 294 814 l 286 772 b 463 922 315 792 379 842 b 468 988 490 947 483 974 b 403 972 451 1001 425 1004 z m 674 988 b 610 972 658 1001 632 1004 b 482 782 544 878 501 814 l 493 772 b 669 922 521 792 586 842 b 674 988 697 947 690 974 z "},"ō":{"ha":821,"x_min":0,"x_max":0,"o":"m 432 668 b 56 300 246 668 56 529 b 403 -8 56 106 215 -8 b 779 360 589 -8 779 138 b 432 668 779 551 618 668 z m 510 17 b 172 256 351 -31 221 89 b 325 643 124 424 167 597 b 663 404 483 689 614 571 b 510 17 711 236 668 63 z m 215 822 l 215 811 l 646 811 l 646 822 z "},"ǿ":{"ha":829,"x_min":0,"x_max":0,"o":"m 682 583 l 788 689 l 781 696 l 675 590 b 436 668 611 640 526 668 b 60 300 250 668 60 529 b 160 76 60 204 99 128 l 56 -29 l 63 -36 l 168 69 b 407 -8 231 19 315 -8 b 783 360 593 -8 783 138 b 682 583 783 454 744 531 z m 176 256 b 329 643 128 424 171 597 b 610 526 444 678 546 624 l 226 143 b 176 256 206 176 188 215 z m 514 17 b 232 133 399 -17 297 38 l 617 518 b 667 404 638 483 654 446 b 514 17 715 236 672 63 z m 556 963 b 490 964 543 981 518 989 b 321 808 404 888 347 833 l 329 796 b 536 900 363 808 436 842 b 556 963 569 919 568 946 z "},"õ":{"ha":821,"x_min":0,"x_max":0,"o":"m 432 668 b 56 300 246 668 56 529 b 403 -8 56 106 215 -8 b 779 360 589 -8 779 138 b 432 668 779 551 618 668 z m 510 17 b 172 256 351 -31 221 89 b 325 643 124 424 167 597 b 663 404 483 689 614 571 b 510 17 711 236 668 63 z m 618 883 b 553 815 601 828 582 815 b 328 869 475 813 414 869 b 204 753 263 869 229 829 l 215 749 b 282 814 232 799 244 814 b 510 757 339 815 424 757 b 629 881 574 757 607 813 z "},"ŕ":{"ha":563,"x_min":0,"x_max":0,"o":"m 397 668 b 197 296 250 668 211 464 l 197 668 l 186 668 l 56 638 b 56 628 56 638 56 631 b 88 561 83 624 88 610 l 88 92 b 56 10 88 43 78 22 b 56 0 56 7 56 0 l 228 0 b 228 10 228 0 228 7 b 197 92 207 22 197 43 l 197 146 b 351 643 197 264 215 622 b 468 472 426 654 465 551 l 478 467 l 563 586 b 397 668 515 642 472 668 z m 419 963 b 354 964 407 981 382 989 b 185 808 268 888 211 833 l 193 796 b 400 900 226 808 300 842 b 419 963 433 919 432 946 z "},"ř":{"ha":563,"x_min":0,"x_max":0,"o":"m 397 668 b 197 296 250 668 211 464 l 197 668 l 186 668 l 56 638 b 56 628 56 638 56 631 b 88 561 83 624 88 610 l 88 92 b 56 10 88 43 78 22 b 56 0 56 7 56 0 l 228 0 b 228 10 228 0 228 7 b 197 92 207 22 197 43 l 197 146 b 351 643 197 264 215 622 b 468 472 426 654 465 551 l 478 467 l 563 586 b 397 668 515 642 472 668 z m 486 932 l 478 939 l 308 829 l 138 939 l 131 932 l 308 754 z "},"ŗ":{"ha":563,"x_min":0,"x_max":0,"o":"m 397 668 b 197 296 250 668 211 464 l 197 668 l 186 668 l 56 638 b 56 628 56 638 56 631 b 88 561 83 624 88 610 l 88 92 b 56 10 88 43 78 22 b 56 0 56 7 56 0 l 228 0 b 228 10 228 0 228 7 b 197 92 207 22 197 43 l 197 146 b 351 643 197 264 215 622 b 468 472 426 654 465 551 l 478 467 l 563 586 b 397 668 515 642 472 668 z m 142 -115 b 82 -175 108 -115 82 -142 b 142 -235 82 -207 108 -235 b 182 -218 157 -235 171 -228 b 97 -332 169 -261 140 -294 l 103 -337 b 201 -175 164 -287 201 -235 b 142 -115 201 -142 175 -115 z "},"ś":{"ha":636,"x_min":0,"x_max":0,"o":"m 338 668 b 125 496 186 668 136 586 b 550 122 92 224 576 304 b 367 11 542 63 467 11 b 92 224 243 11 139 126 l 85 224 l 56 85 b 326 -8 131 29 214 -8 b 593 183 482 -8 585 74 b 160 546 608 410 140 360 b 314 656 167 603 219 656 b 525 451 393 656 482 569 l 532 451 l 560 579 b 338 668 504 622 410 668 z m 476 963 b 411 964 464 981 439 989 b 242 808 325 888 268 833 l 250 796 b 457 900 283 808 357 842 b 476 963 490 919 489 946 z "},"š":{"ha":636,"x_min":0,"x_max":0,"o":"m 338 668 b 125 496 186 668 136 586 b 550 122 92 224 576 304 b 367 11 542 63 467 11 b 92 224 243 11 139 126 l 85 224 l 56 85 b 326 -8 131 29 214 -8 b 593 183 482 -8 585 74 b 160 546 608 410 140 360 b 314 656 167 603 219 656 b 525 451 393 656 482 569 l 532 451 l 560 579 b 338 668 504 622 410 668 z m 517 932 l 508 939 l 339 829 l 168 939 l 161 932 l 339 754 z "},"ŝ":{"ha":636,"x_min":0,"x_max":0,"o":"m 338 668 b 125 496 186 668 136 586 b 550 122 92 224 576 304 b 367 11 542 63 467 11 b 92 224 243 11 139 126 l 85 224 l 56 85 b 326 -8 131 29 214 -8 b 593 183 482 -8 585 74 b 160 546 608 410 140 360 b 314 656 167 603 219 656 b 525 451 393 656 482 569 l 532 451 l 560 579 b 338 668 504 622 410 668 z m 339 939 l 161 761 l 169 754 l 339 864 l 510 754 l 517 761 z "},"ș":{"ha":636,"x_min":0,"x_max":0,"o":"m 338 668 b 125 496 186 668 136 586 b 550 122 92 224 576 304 b 367 11 542 63 467 11 b 92 224 243 11 139 126 l 85 224 l 56 85 b 326 -8 131 29 214 -8 b 593 183 482 -8 585 74 b 160 546 608 410 140 360 b 314 656 167 603 219 656 b 525 451 393 656 482 569 l 532 451 l 560 579 b 338 668 504 622 410 668 z m 339 -115 b 279 -175 306 -115 279 -142 b 339 -235 279 -207 306 -235 b 379 -218 354 -235 368 -228 b 294 -332 367 -261 338 -294 l 300 -337 b 399 -175 361 -287 399 -235 b 339 -115 399 -142 372 -115 z "},"ť":{"ha":526,"x_min":0,"x_max":0,"o":"m 547 246 b 385 17 522 139 476 29 b 233 215 267 1 233 94 l 233 657 l 397 657 l 397 668 l 90 668 b 279 858 174 672 279 751 l 169 858 b 42 668 169 792 160 668 l 42 657 l 124 657 l 124 236 b 324 -8 124 72 200 -8 b 554 243 469 -8 528 113 z m 401 1001 b 325 925 360 1001 325 967 b 401 850 325 885 360 850 b 451 871 421 850 438 858 b 344 728 435 817 399 775 l 351 721 b 476 925 429 783 476 850 b 401 1001 476 967 442 1001 z "},"ţ":{"ha":526,"x_min":0,"x_max":0,"o":"m 547 246 b 385 17 522 139 476 29 b 233 215 267 1 233 94 l 233 657 l 397 657 l 397 668 l 90 668 b 279 858 174 672 279 751 l 169 858 b 42 668 169 792 160 668 l 42 657 l 124 657 l 124 236 b 324 -8 124 72 200 -8 b 554 243 469 -8 528 113 z m 339 -115 b 279 -175 306 -115 279 -142 b 339 -235 279 -207 306 -235 b 379 -218 354 -235 368 -228 b 294 -332 367 -261 338 -294 l 300 -337 b 399 -175 361 -287 399 -235 b 339 -115 399 -142 372 -115 z "},"ú":{"ha":744,"x_min":0,"x_max":0,"o":"m 703 10 b 671 92 681 22 671 43 l 671 668 l 661 668 l 531 638 b 531 628 531 638 531 631 b 561 561 557 624 561 610 l 561 454 b 378 17 561 338 533 47 b 196 215 258 -6 196 94 l 196 668 l 186 668 l 56 638 b 56 628 56 638 56 631 b 86 561 82 624 86 610 l 86 236 b 315 -8 86 72 188 -8 b 561 338 496 -8 543 181 l 561 0 l 703 0 b 703 10 703 0 703 7 z m 517 963 b 451 964 504 981 479 989 b 282 808 365 888 308 833 l 290 796 b 497 900 324 808 397 842 b 517 963 531 919 529 946 z "},"ŭ":{"ha":744,"x_min":0,"x_max":0,"o":"m 703 10 b 671 92 681 22 671 43 l 671 668 l 661 668 l 531 638 b 531 628 531 638 531 631 b 561 561 557 624 561 610 l 561 454 b 378 17 561 338 533 47 b 196 215 258 -6 196 94 l 196 668 l 186 668 l 56 638 b 56 628 56 638 56 631 b 86 561 82 624 86 610 l 86 236 b 315 -8 86 72 188 -8 b 561 338 496 -8 543 181 l 561 0 l 703 0 b 703 10 703 0 703 7 z m 544 938 b 392 829 521 856 469 829 b 240 938 315 829 263 856 l 231 938 b 392 767 238 832 297 767 b 554 938 488 767 546 832 z "},"û":{"ha":744,"x_min":0,"x_max":0,"o":"m 703 10 b 671 92 681 22 671 43 l 671 668 l 661 668 l 531 638 b 531 628 531 638 531 631 b 561 561 557 624 561 610 l 561 454 b 378 17 561 338 533 47 b 196 215 258 -6 196 94 l 196 668 l 186 668 l 56 638 b 56 628 56 638 56 631 b 86 561 82 624 86 610 l 86 236 b 315 -8 86 72 188 -8 b 561 338 496 -8 543 181 l 561 0 l 703 0 b 703 10 703 0 703 7 z m 393 939 l 215 761 l 224 754 l 393 864 l 564 754 l 571 761 z "},"ü":{"ha":744,"x_min":0,"x_max":0,"o":"m 703 10 b 671 92 681 22 671 43 l 671 668 l 661 668 l 531 638 b 531 628 531 638 531 631 b 561 561 557 624 561 610 l 561 454 b 378 17 561 338 533 47 b 196 215 258 -6 196 94 l 196 668 l 186 668 l 56 638 b 56 628 56 638 56 631 b 86 561 82 624 86 610 l 86 236 b 315 -8 86 72 188 -8 b 561 338 496 -8 543 181 l 561 0 l 703 0 b 703 10 703 0 703 7 z m 271 878 b 211 817 238 878 211 850 b 271 756 211 783 238 756 b 332 817 306 756 332 783 b 271 878 332 850 306 878 z m 514 878 b 453 817 481 878 453 850 b 514 756 453 783 481 756 b 575 817 547 756 575 783 b 514 878 575 850 547 878 z "},"ű":{"ha":744,"x_min":0,"x_max":0,"o":"m 703 10 b 671 92 681 22 671 43 l 671 668 l 661 668 l 531 638 b 531 628 531 638 531 631 b 561 561 557 624 561 610 l 561 454 b 378 17 561 338 533 47 b 196 215 258 -6 196 94 l 196 668 l 186 668 l 56 638 b 56 628 56 638 56 631 b 86 561 82 624 86 610 l 86 236 b 315 -8 86 72 188 -8 b 561 338 496 -8 543 181 l 561 0 l 703 0 b 703 10 703 0 703 7 z m 351 972 b 224 782 286 878 243 814 l 235 772 b 411 922 264 792 328 842 b 417 988 439 947 432 974 b 351 972 400 1001 374 1004 z m 622 988 b 558 972 607 1001 581 1004 b 431 782 493 878 450 814 l 442 772 b 618 922 469 792 535 842 b 622 988 646 947 639 974 z "},"ù":{"ha":744,"x_min":0,"x_max":0,"o":"m 703 10 b 671 92 681 22 671 43 l 671 668 l 661 668 l 531 638 b 531 628 531 638 531 631 b 561 561 557 624 561 610 l 561 454 b 378 17 561 338 533 47 b 196 215 258 -6 196 94 l 196 668 l 186 668 l 56 638 b 56 628 56 638 56 631 b 86 561 82 624 86 610 l 86 236 b 315 -8 86 72 188 -8 b 561 338 496 -8 543 181 l 561 0 l 703 0 b 703 10 703 0 703 7 z m 319 964 b 254 963 292 989 267 981 b 274 900 242 946 240 919 b 481 796 374 842 447 808 l 489 808 b 319 964 463 833 406 888 z "},"ū":{"ha":744,"x_min":0,"x_max":0,"o":"m 703 10 b 671 92 681 22 671 43 l 671 668 l 661 668 l 531 638 b 531 628 531 638 531 631 b 561 561 557 624 561 610 l 561 454 b 378 17 561 338 533 47 b 196 215 258 -6 196 94 l 196 668 l 186 668 l 56 638 b 56 628 56 638 56 631 b 86 561 82 624 86 610 l 86 236 b 315 -8 86 72 188 -8 b 561 338 496 -8 543 181 l 561 0 l 703 0 b 703 10 703 0 703 7 z m 178 822 l 178 811 l 608 811 l 608 822 z "},"ů":{"ha":744,"x_min":0,"x_max":0,"o":"m 703 10 b 671 92 681 22 671 43 l 671 668 l 661 668 l 531 638 b 531 628 531 638 531 631 b 561 561 557 624 561 610 l 561 454 b 378 17 561 338 533 47 b 196 215 258 -6 196 94 l 196 668 l 186 668 l 56 638 b 56 628 56 638 56 631 b 86 561 82 624 86 610 l 86 236 b 315 -8 86 72 188 -8 b 561 338 496 -8 543 181 l 561 0 l 703 0 b 703 10 703 0 703 7 z m 393 733 b 506 846 456 733 506 783 b 393 960 506 910 456 960 b 279 846 329 960 279 910 b 393 733 279 783 329 733 z m 393 949 b 494 846 449 949 494 903 b 393 744 494 790 449 744 b 290 846 336 744 290 790 b 393 949 290 903 336 949 z "},"ũ":{"ha":744,"x_min":0,"x_max":0,"o":"m 703 10 b 671 92 681 22 671 43 l 671 668 l 661 668 l 531 638 b 531 628 531 638 531 631 b 561 561 557 624 561 610 l 561 454 b 378 17 561 338 533 47 b 196 215 258 -6 196 94 l 196 668 l 186 668 l 56 638 b 56 628 56 638 56 631 b 86 561 82 624 86 610 l 86 236 b 315 -8 86 72 188 -8 b 561 338 496 -8 543 181 l 561 0 l 703 0 b 703 10 703 0 703 7 z m 594 883 b 529 815 578 828 558 815 b 304 869 451 813 390 869 b 181 753 239 869 206 829 l 192 749 b 258 814 208 799 221 814 b 486 757 315 815 400 757 b 606 881 550 757 583 813 z "},"ẃ":{"ha":1057,"x_min":0,"x_max":0,"o":"m 879 668 l 879 657 b 879 401 942 607 929 531 l 776 129 l 646 468 b 632 657 608 569 590 614 l 632 668 l 418 668 l 418 657 b 532 479 472 613 497 565 l 417 113 l 250 504 b 242 657 218 582 206 619 l 242 668 l 28 668 l 28 657 b 183 406 96 601 125 542 l 356 0 l 465 0 l 424 99 l 538 465 b 715 0 544 447 715 0 l 825 0 l 781 115 l 904 439 b 1043 657 949 544 988 604 l 1043 668 z m 715 963 b 650 964 703 981 678 989 b 481 808 564 888 507 833 l 489 796 b 696 900 522 808 596 842 b 715 963 729 919 728 946 z "},"ŵ":{"ha":1057,"x_min":0,"x_max":0,"o":"m 879 668 l 879 657 b 879 401 942 607 929 531 l 776 129 l 646 468 b 632 657 608 569 590 614 l 632 668 l 418 668 l 418 657 b 532 479 472 613 497 565 l 417 113 l 250 504 b 242 657 218 582 206 619 l 242 668 l 28 668 l 28 657 b 183 406 96 601 125 542 l 356 0 l 465 0 l 424 99 l 538 465 b 715 0 544 447 715 0 l 825 0 l 781 115 l 904 439 b 1043 657 949 544 988 604 l 1043 668 z m 535 939 l 357 761 l 365 754 l 535 864 l 706 754 l 713 761 z "},"ẅ":{"ha":1057,"x_min":0,"x_max":0,"o":"m 879 668 l 879 657 b 879 401 942 607 929 531 l 776 129 l 646 468 b 632 657 608 569 590 614 l 632 668 l 418 668 l 418 657 b 532 479 472 613 497 565 l 417 113 l 250 504 b 242 657 218 582 206 619 l 242 668 l 28 668 l 28 657 b 183 406 96 601 125 542 l 356 0 l 465 0 l 424 99 l 538 465 b 715 0 544 447 715 0 l 825 0 l 781 115 l 904 439 b 1043 657 949 544 988 604 l 1043 668 z m 413 878 b 353 817 379 878 353 850 b 413 756 353 783 379 756 b 474 817 447 756 474 783 b 413 878 474 850 447 878 z m 656 878 b 594 817 622 878 594 850 b 656 756 594 783 622 756 b 717 817 689 756 717 783 b 656 878 717 850 689 878 z "},"ẁ":{"ha":1057,"x_min":0,"x_max":0,"o":"m 879 668 l 879 657 b 879 401 942 607 929 531 l 776 129 l 646 468 b 632 657 608 569 590 614 l 632 668 l 418 668 l 418 657 b 532 479 472 613 497 565 l 417 113 l 250 504 b 242 657 218 582 206 619 l 242 668 l 28 668 l 28 657 b 183 406 96 601 125 542 l 356 0 l 465 0 l 424 99 l 538 465 b 715 0 544 447 715 0 l 825 0 l 781 115 l 904 439 b 1043 657 949 544 988 604 l 1043 668 z m 449 964 b 383 963 421 989 396 981 b 403 900 371 946 369 919 b 610 796 503 842 576 808 l 618 808 b 449 964 592 833 535 888 z "},"ý":{"ha":721,"x_min":0,"x_max":0,"o":"m 707 657 l 707 668 l 543 668 l 543 657 b 538 401 606 606 589 529 l 424 118 l 258 504 b 250 657 226 582 215 619 l 250 668 l 38 668 l 38 657 b 192 406 104 601 133 542 l 369 -12 b 194 -215 324 -115 267 -207 b 117 -39 118 -224 103 -117 l 108 -32 l 0 -131 b 164 -229 35 -194 89 -229 b 386 0 274 -229 336 -125 b 547 400 436 124 547 400 b 707 657 599 528 647 596 z m 547 963 b 482 964 535 981 510 989 b 313 808 396 888 339 833 l 321 796 b 528 900 354 808 428 842 b 547 963 561 919 560 946 z "},"ŷ":{"ha":721,"x_min":0,"x_max":0,"o":"m 707 657 l 707 668 l 543 668 l 543 657 b 538 401 606 606 589 529 l 424 118 l 258 504 b 250 657 226 582 215 619 l 250 668 l 38 668 l 38 657 b 192 406 104 601 133 542 l 369 -12 b 194 -215 324 -115 267 -207 b 117 -39 118 -224 103 -117 l 108 -32 l 0 -131 b 164 -229 35 -194 89 -229 b 386 0 274 -229 336 -125 b 547 400 436 124 547 400 b 707 657 599 528 647 596 z m 408 939 l 231 761 l 239 754 l 408 864 l 579 754 l 586 761 z "},"ÿ":{"ha":721,"x_min":0,"x_max":0,"o":"m 707 657 l 707 668 l 543 668 l 543 657 b 538 401 606 606 589 529 l 424 118 l 258 504 b 250 657 226 582 215 619 l 250 668 l 38 668 l 38 657 b 192 406 104 601 133 542 l 369 -12 b 194 -215 324 -115 267 -207 b 117 -39 118 -224 103 -117 l 108 -32 l 0 -131 b 164 -229 35 -194 89 -229 b 386 0 274 -229 336 -125 b 547 400 436 124 547 400 b 707 657 599 528 647 596 z m 286 878 b 226 817 253 878 226 850 b 286 756 226 783 253 756 b 347 817 321 756 347 783 b 286 878 347 850 321 878 z m 529 878 b 468 817 496 878 468 850 b 529 756 468 783 496 756 b 590 817 563 756 590 783 b 529 878 590 850 563 878 z "},"ỳ":{"ha":721,"x_min":0,"x_max":0,"o":"m 707 657 l 707 668 l 543 668 l 543 657 b 538 401 606 606 589 529 l 424 118 l 258 504 b 250 657 226 582 215 619 l 250 668 l 38 668 l 38 657 b 192 406 104 601 133 542 l 369 -12 b 194 -215 324 -115 267 -207 b 117 -39 118 -224 103 -117 l 108 -32 l 0 -131 b 164 -229 35 -194 89 -229 b 386 0 274 -229 336 -125 b 547 400 436 124 547 400 b 707 657 599 528 647 596 z m 350 964 b 285 963 322 989 297 981 b 304 900 272 946 271 919 b 511 796 404 842 478 808 l 519 808 b 350 964 493 833 436 888 z "},"ź":{"ha":654,"x_min":0,"x_max":0,"o":"m 618 174 b 329 10 553 89 492 11 l 164 10 l 608 668 l 108 668 l 63 515 l 71 510 b 360 658 133 582 206 658 l 486 658 l 42 0 l 596 0 l 626 168 z m 500 963 b 435 964 488 981 463 989 b 265 808 349 888 292 833 l 274 796 b 481 900 307 808 381 842 b 500 963 514 919 513 946 z "},"ž":{"ha":654,"x_min":0,"x_max":0,"o":"m 618 174 b 329 10 553 89 492 11 l 164 10 l 608 668 l 108 668 l 63 515 l 71 510 b 360 658 133 582 206 658 l 486 658 l 42 0 l 596 0 l 626 168 z m 539 932 l 531 939 l 361 829 l 190 939 l 183 932 l 361 754 z "},"ż":{"ha":654,"x_min":0,"x_max":0,"o":"m 618 174 b 329 10 553 89 492 11 l 164 10 l 608 668 l 108 668 l 63 515 l 71 510 b 360 658 133 582 206 658 l 486 658 l 42 0 l 596 0 l 626 168 z m 361 878 b 301 817 328 878 301 850 b 361 756 301 783 328 756 b 422 817 396 756 422 783 b 361 878 422 850 396 878 z "},"Ð":{"ha":1036,"x_min":0,"x_max":0,"o":"m 438 972 l 90 972 b 90 961 90 972 90 964 b 121 881 111 949 121 929 l 121 492 l 0 492 l 0 481 l 121 481 l 121 92 b 90 10 121 43 111 22 b 90 0 90 7 90 0 l 438 0 b 994 486 760 0 994 211 b 438 972 994 760 760 972 z m 438 10 l 231 10 l 231 481 l 535 481 l 535 492 l 231 492 l 231 961 l 438 961 b 885 486 715 961 885 742 b 438 10 885 229 715 10 z "},"⁄":{"ha":617,"x_min":0,"x_max":0,"o":"m 550 1203 l 56 -232 l 67 -232 l 561 1203 z "},"°":{"ha":338,"x_min":0,"x_max":0,"o":"m 169 794 b 282 907 232 794 282 844 b 169 1021 282 971 232 1021 b 56 907 106 1021 56 971 b 169 794 56 844 106 794 z m 169 1010 b 271 907 225 1010 271 964 b 169 806 271 851 225 806 b 67 907 113 806 67 851 b 169 1010 67 964 113 1010 z "},"ſ":{"ha":372,"x_min":0,"x_max":0,"o":"m 335 657 l 335 668 l 324 668 b 157 813 211 668 167 753 b 208 982 144 888 161 961 b 425 804 301 1025 392 889 l 435 804 l 456 950 b 275 1001 406 986 335 1001 b 61 833 138 1001 61 928 b 260 668 61 740 176 672 l 56 668 l 56 657 b 138 546 110 657 138 621 l 138 92 b 107 10 138 43 128 22 b 107 0 107 7 107 0 l 278 0 b 278 10 278 0 278 7 b 247 92 257 22 247 43 l 247 657 z "},"í":{"ha":269,"x_min":0,"x_max":0,"o":"m 196 92 l 196 668 l 186 668 l 56 638 b 56 628 56 638 56 631 b 86 561 82 624 86 610 l 86 92 b 56 10 86 43 76 22 b 56 0 56 7 56 0 l 228 0 b 228 10 228 0 228 7 b 196 92 206 22 196 43 z m 246 963 b 181 964 233 981 208 989 b 11 808 94 888 38 833 l 19 796 b 226 900 53 808 126 842 b 246 963 260 919 258 946 z "},"ĭ":{"ha":269,"x_min":0,"x_max":0,"o":"m 196 92 l 196 668 l 186 668 l 56 638 b 56 628 56 638 56 631 b 86 561 82 624 86 610 l 86 92 b 56 10 86 43 76 22 b 56 0 56 7 56 0 l 228 0 b 228 10 228 0 228 7 b 196 92 206 22 196 43 z m 288 938 b 135 829 264 856 213 829 b -17 938 58 829 6 856 l -26 938 b 135 767 -19 832 40 767 b 297 938 231 767 289 832 z "},"î":{"ha":269,"x_min":0,"x_max":0,"o":"m 196 92 l 196 668 l 186 668 l 56 638 b 56 628 56 638 56 631 b 86 561 82 624 86 610 l 86 92 b 56 10 86 43 76 22 b 56 0 56 7 56 0 l 228 0 b 228 10 228 0 228 7 b 196 92 206 22 196 43 z m 135 939 l -43 761 l -35 754 l 135 864 l 306 754 l 313 761 z "},"ï":{"ha":269,"x_min":0,"x_max":0,"o":"m 196 92 l 196 668 l 186 668 l 56 638 b 56 628 56 638 56 631 b 86 561 82 624 86 610 l 86 92 b 56 10 86 43 76 22 b 56 0 56 7 56 0 l 228 0 b 228 10 228 0 228 7 b 196 92 206 22 196 43 z m 13 878 b -47 817 -21 878 -47 850 b 13 756 -47 783 -21 756 b 74 817 47 756 74 783 b 13 878 74 850 47 878 z m 256 878 b 194 817 222 878 194 850 b 256 756 194 783 222 756 b 317 817 289 756 317 783 b 256 878 317 850 289 878 z "},"ì":{"ha":269,"x_min":0,"x_max":0,"o":"m 196 92 l 196 668 l 186 668 l 56 638 b 56 628 56 638 56 631 b 86 561 82 624 86 610 l 86 92 b 56 10 86 43 76 22 b 56 0 56 7 56 0 l 228 0 b 228 10 228 0 228 7 b 196 92 206 22 196 43 z m 90 964 b 25 963 63 989 38 981 b 44 900 13 946 11 919 b 251 796 144 842 218 808 l 260 808 b 90 964 233 833 176 888 z "},"ī":{"ha":269,"x_min":0,"x_max":0,"o":"m 196 92 l 196 668 l 186 668 l 56 638 b 56 628 56 638 56 631 b 86 561 82 624 86 610 l 86 92 b 56 10 86 43 76 22 b 56 0 56 7 56 0 l 228 0 b 228 10 228 0 228 7 b 196 92 206 22 196 43 z m -81 822 l -81 811 l 350 811 l 350 822 z "},"ĩ":{"ha":269,"x_min":0,"x_max":0,"o":"m 196 92 l 196 668 l 186 668 l 56 638 b 56 628 56 638 56 631 b 86 561 82 624 86 610 l 86 92 b 56 10 86 43 76 22 b 56 0 56 7 56 0 l 228 0 b 228 10 228 0 228 7 b 196 92 206 22 196 43 z m 336 883 b 271 815 319 828 300 815 b 46 869 193 813 132 869 b -78 753 -19 869 -53 829 l -67 749 b 0 814 -50 799 -37 814 b 228 757 57 815 142 757 b 347 881 292 757 325 813 z "},"A":{"ha":863,"x_min":0,"x_max":0,"o":"m 849 10 b 703 267 796 72 760 128 l 432 972 l 322 972 l 368 853 l 160 267 b 14 10 114 136 74 72 l 14 0 l 178 0 l 178 10 b 171 267 119 72 126 140 l 208 372 l 553 372 l 621 196 b 635 10 660 94 671 46 l 635 0 l 849 0 z m 213 383 l 374 838 l 549 383 z "}}}
